<svg id="Layer_1" data-name="Layer 1" xmlns="http://www.w3.org/2000/svg" viewBox="0 0 90.49 99.29"><defs><style>.cls-1{fill:#d1d3d4;}</style></defs><g id="_08lm4Q.tif" data-name="08lm4Q.tif"><path class="cls-1" d="M642.11,218.22a.89.89,0,0,0,.75-.38,4.54,4.54,0,0,1,2-1.3,2.53,2.53,0,0,1,2,.08,5.7,5.7,0,0,1,.68.36c.58.37,1.15.74,1.71,1.13a3.62,3.62,0,0,1,.66.6.71.71,0,0,1,.12.81c-.14.15-.38-.1-.52.18.15.08.29.16.44.23a.88.88,0,0,1,.59.9,18.9,18.9,0,0,1-.19,3.27,1.17,1.17,0,0,1-.62.91.94.94,0,0,0-.56.89c0,.84,0,1.68.09,2.52a1,1,0,0,0,.17.43,1.83,1.83,0,0,0,2.1.56,4.16,4.16,0,0,0,.4-.24,1,1,0,0,1,1-.09,2.79,2.79,0,0,0,1.41.29l.3,0c.81-.14,1-.31,1.08-1.13,0-.17,0-.34.07-.51s.23-.36.46-.19a2.44,2.44,0,0,1,.57.51c.51.68,1,1.38,1.49,2.08a2.12,2.12,0,0,1,.44,1.13,1.53,1.53,0,0,0,.23.59c.72,1.39.63,1.49.32,3.07-.07.37-.2.52-.61.79l.18-.43a2.58,2.58,0,0,0,0-2.34c-.19-.38-.41-.75-.59-1.14a1.25,1.25,0,0,1-.2-.8c0-.15-.13-.38-.26-.52s-.23-.6-.52-.81a6.35,6.35,0,0,1-.7-.62c-.17-.17-.32-.36-.51-.58l-.25.59a1.09,1.09,0,0,1-1.28.82,1.91,1.91,0,0,1-.38,0,2.54,2.54,0,0,0-1.54.22,1.26,1.26,0,0,0-.82.92c-.08.33-.14.67-.21,1s-.07.38-.12.59a.67.67,0,0,1-.47-.5c-.08-.29-.12-.58-.18-.88a4.05,4.05,0,0,0-.14-.58.86.86,0,0,0-1.42-.33,2.84,2.84,0,0,0-.93,2,.73.73,0,0,0,.61.85,3.42,3.42,0,0,0,.67.13,3.66,3.66,0,0,1,1.35.38,2.26,2.26,0,0,0,1.53.18,6.32,6.32,0,0,1,1.61-.08c.74.05,1.47.19,2.2.3a2.61,2.61,0,0,1,1.15.42.78.78,0,0,1,.39.8.52.52,0,0,1-.49-.22,2,2,0,0,0-1.61-.51c-.69,0-1.39,0-2.09-.05-1,0-2-.09-3-.16-.48,0-1-.1-1.44-.18a2,2,0,0,0-1.55.45,1.69,1.69,0,0,0-.28.39c.41.12.76.25,1.11.32a17.15,17.15,0,0,0,4.63.31c.52,0,1,0,1.58,0a.49.49,0,0,1-.23.52,4.49,4.49,0,0,1-2.17,1.21c-.56.09-1.11.24-1.67.33a8.4,8.4,0,0,1-.89.06,10.87,10.87,0,0,0-1.23.08,1.49,1.49,0,0,0-1.2,1.55,1.32,1.32,0,0,0,.16.52,3.4,3.4,0,0,0,2.09,1.58,8.5,8.5,0,0,0,2.49.35c1.05,0,2.11,0,3.16-.09a2.87,2.87,0,0,0,1.39-.46v.37c.06,0,.11,0,.13-.06.22-.28.46-.54.66-.84a3,3,0,0,1,1.28-1.1,3.8,3.8,0,0,0,1.85-2.08,14.32,14.32,0,0,1,1-1.88,4.61,4.61,0,0,0,.73-2.5,2.47,2.47,0,0,1,.08-.58,1.51,1.51,0,0,1,.19.92c-.06.91-.14,1.82-.28,2.71a4.3,4.3,0,0,1-1,1.88c-.36.48-.8.89-1.18,1.35s-.6.82-.94,1.29a3,3,0,0,0,1.49-.81c.43-.43.86-.87,1.26-1.33,1.54-1.76,1.21-1.21,1.89-3.36.09-.3.21-.59.33-.88a4.2,4.2,0,0,0,.31-1.83c0-.68,0-1.36,0-2.08.74,1,.83,3.79.22,5.87a3.25,3.25,0,0,0,1.1-1.16,13.07,13.07,0,0,1,.82-1.4,1.55,1.55,0,0,1,0,.35,2.94,2.94,0,0,1-.19.61q-.72,1.48-1.46,2.94a3.19,3.19,0,0,1-1.27,1.29l-.41.23a5,5,0,0,0-2,1.74,2.3,2.3,0,0,1-1,.81q-.79.36-1.57.76a5.65,5.65,0,0,1-1.56.4,6.66,6.66,0,0,1-2.5,0,1.3,1.3,0,0,0-.41,0,25.31,25.31,0,0,1-3.93.47,5.71,5.71,0,0,1-2-.35c-.7-.27-1.4-.55-2.07-.89a5.91,5.91,0,0,1-2.17-1.89c-.28-.39-.55-.8-.83-1.19a7.92,7.92,0,0,1-1.36-3.46,5,5,0,0,0-.45-1.46,2.84,2.84,0,0,1-.26-1.28c0-.53,0-1.05-.05-1.58a3.71,3.71,0,0,1,0-.64,5.8,5.8,0,0,0-.12-2,4.8,4.8,0,0,1,.23-2.31c.1-.37.21-.74.32-1.1a3.41,3.41,0,0,1,.92-1.61,4.12,4.12,0,0,0,.38-.45c-.43-.27-.72-.23-1,.11a.94.94,0,0,0-.18.29,2.51,2.51,0,0,1-.74,1.09c-.28-.64-.58-1.25-.82-1.9a3.59,3.59,0,0,1-.18-1.09,23.89,23.89,0,0,1,.24-6c.19-.86.5-1.69.75-2.53.11-.37.24-.73.33-1.1a2.46,2.46,0,0,1,.56-1.13,2.13,2.13,0,0,0,.6-1.24,1.08,1.08,0,0,1,.26-.53c.5-.61,1-1.21,1.52-1.79a12.52,12.52,0,0,1,2.47-2c.61-.4,1.24-.76,1.85-1.15a2.48,2.48,0,0,0,.52-.44,1.49,1.49,0,0,1,1.12-.53,3,3,0,0,0,1.23-.31,4.77,4.77,0,0,1,1.62-.48c.59,0,1.17-.26,1.75-.34a5.27,5.27,0,0,1,1.14,0c.91.07,1.82.14,2.71.26a13,13,0,0,0,2.16.17,2,2,0,0,1,.58.11.49.49,0,0,1,.37.38.91.91,0,0,0,.69.68l.37.1a2.05,2.05,0,0,1,1.45,1,1.69,1.69,0,0,0,1,.79,1.46,1.46,0,0,1,.4.24.44.44,0,0,1,.21.44.66.66,0,0,0,.27.64c.26.23.55.44.89.7a8.69,8.69,0,0,1,2.89-3.55,1.48,1.48,0,0,1,.72-1.4,8.83,8.83,0,0,1,.69-.56,2.12,2.12,0,0,1,.6-.3,4.83,4.83,0,0,0,1.74-1.12c.07-.06.09-.17.13-.26a.94.94,0,0,1,1-.55c.49,0,.5.05.69-.38a.43.43,0,0,1,.43-.29,1.23,1.23,0,0,1,.3,0,1.27,1.27,0,0,0,1-.23,2.48,2.48,0,0,1,1.15-.41,1,1,0,0,1,.33,0,2.09,2.09,0,0,0,1.26-.07l2.25-.81.73-.24a2.24,2.24,0,0,1,1.92.29,3,3,0,0,0,1.35.47,12.18,12.18,0,0,0,1.7.09,1.53,1.53,0,0,1,1,.29,1.28,1.28,0,0,0,.75.23,8.73,8.73,0,0,1,2.38.43c.39.14.78.26,1.17.39a.87.87,0,0,1,.7.82.9.9,0,0,1,.82.66c0,.09.15.17.25.22l1.38.68a1.16,1.16,0,0,1,.33.22l-.32.18s0,.07,0,.08l1.1.34.24.07c.15,0,.29.1.29.27s-.15.25-.31.29l-.34.11a1.22,1.22,0,0,0,.75.55c.28.09.55.2.86.32-.18.3-.44.18-.67.26a1,1,0,0,0,.08.26c.24.37.49.73.75,1.09s.24.31-.07.61a9.4,9.4,0,0,0,.64.72.9.9,0,0,1,.31.53c0,.28.12.55.17.83a1.18,1.18,0,0,1,0,.28l-.58-.74,0,0c.26.5.52,1,.76,1.51a3.74,3.74,0,0,1,.19.65c.05.21.08.42.15.62a1.94,1.94,0,0,1,.1,1.09,2.69,2.69,0,0,0,0,1c.22,1.35.43,2.69.65,4a1.51,1.51,0,0,0,.07.33,1.84,1.84,0,0,1,0,1.37,4.13,4.13,0,0,0-.15.61c-.08.42-.15.84-.23,1.26a.84.84,0,0,0,.06.53c.15.38.24.78.37,1.17a2.67,2.67,0,0,0,.15.38,4.77,4.77,0,0,1,.35.68c.24.8.49,1.61.66,2.42a5.67,5.67,0,0,1-.05,1.91,9.65,9.65,0,0,0-.09,1.1,12.65,12.65,0,0,1-1.19,5.42c-.36.74-.82,1.43-1.23,2.14a3.44,3.44,0,0,0-.29.65c-.11.35-.17.72-.29,1.07a2.88,2.88,0,0,1-.38.76,14.21,14.21,0,0,1-1.92,2.29,1.58,1.58,0,0,0-.25.34c-.2.31-.39.63-.59.94a5.91,5.91,0,0,1-4.19,2.73,13.51,13.51,0,0,1-8.14-1.19,3.49,3.49,0,0,1-1.18-.84,2.87,2.87,0,0,1,.3.1,9.39,9.39,0,0,0,2.36.72,8.76,8.76,0,0,0,1.06,0,7.42,7.42,0,0,1,1.32.09,6,6,0,0,0,2,0,9.27,9.27,0,0,0,3.64-1.15l.26-.17c-.1,0-.14,0-.17,0a5.9,5.9,0,0,1-2.74.55,11.54,11.54,0,0,1-4.44-.92,8.55,8.55,0,0,1-2.54-1.78,1.47,1.47,0,0,1-.12-.17,2,2,0,0,1,.89.35c.57.32,1.13.66,1.7,1a5.28,5.28,0,0,0,2.09.67,10.06,10.06,0,0,0,2.93,0,6.83,6.83,0,0,0,1.5-.48,1.91,1.91,0,0,0,1.06-1.6,3.46,3.46,0,0,0-.25-2,1,1,0,0,1,.09-1c.11-.18.21-.36.32-.54a.56.56,0,0,0-.56,0,5.89,5.89,0,0,1-3.68-.19c-.49-.14-1-.23-1.49-.34a1.74,1.74,0,0,1-.83-.24,1.53,1.53,0,0,1,1-.3c.6,0,1.2,0,1.79-.06a6.65,6.65,0,0,0,2.45-.68,2.91,2.91,0,0,0,.57-.38.5.5,0,0,0-.25-.88,10.33,10.33,0,0,0-1.14-.08c-.68,0-1.36.13-2,.2a6,6,0,0,1-2.57-.25c-.12,0-.34,0-.28-.25s.24-.07.37-.06h.5a8,8,0,0,1,.89,0,3.24,3.24,0,0,0,2-.31,4.86,4.86,0,0,0-.89-.36,14.54,14.54,0,0,0-2-.28,8.59,8.59,0,0,0-3.66.7c-.27.11-.56.18-.87.27a1.3,1.3,0,0,1,.06,1c-.05.13-.19.22-.27.31a1.77,1.77,0,0,1-1-2,1.58,1.58,0,0,1,1.25-1.4c-.1.23-.27.43-.09.71a9.11,9.11,0,0,1,1.34-1.46l.07.41.31-.78c.44.09.22.41.29.67l.44-.19.1.35a.55.55,0,0,1,.81-.25.52.52,0,0,0,.35,0c.21-.09.4-.21.61-.32l.33.27a1.19,1.19,0,0,1,1.28-.27.31.31,0,0,0,.27-.14.63.63,0,0,0,0-.36s-.14-.06-.21-.05-.21.08-.32.09a3.7,3.7,0,0,1-.44,0l-.11-.3-1.05-.38c-.18.22-.35.57-.77.61-.17-.37.11-.66.13-1a.19.19,0,0,0-.33.05c-.1.18-.18.38-.28.58l-.2.39c-.2-.38-.13-.61.4-1.37l-.48-.52a1.2,1.2,0,0,0-.15.13,17.38,17.38,0,0,1-3.65,3.45,2.75,2.75,0,0,0-1.09,1.33.44.44,0,0,1-.07.11l-.09,0a3.43,3.43,0,0,1,0-.79,6.9,6.9,0,0,1,1.47-3.27,10.55,10.55,0,0,0,.72-1.1c.34-.56.65-1.13,1-1.7a2,2,0,0,1,1-.81,7.55,7.55,0,0,1,1.64-.44,3.44,3.44,0,0,1,1.91.27.29.29,0,0,1,.17.18h-.43a2.55,2.55,0,0,0-1.48.57,1.24,1.24,0,0,0,.28,2,2.26,2.26,0,0,0,1.4.22,3.39,3.39,0,0,1,2.42.46,4,4,0,0,0,1.84.46,1.45,1.45,0,0,0,1.21-.61c.36-.42.7-.86,1-1.3s.35-.71-.05-1.12a2.45,2.45,0,0,0-.73-.5,1,1,0,0,1-.58-.59,5.7,5.7,0,0,1-.32-1,11.63,11.63,0,0,0-.76-2.57c-.14-.33-.25-.66-.36-1a2.68,2.68,0,0,1,.38-2.47,2.08,2.08,0,0,0,.21-.46,1.55,1.55,0,0,1,.86-1,5.25,5.25,0,0,0,.55-.33l.12.48c.25-.14.5-.28.75-.4s.3-.16.47,0,.15,0,.23,0c.71-.06,1.41-.12,2.12-.21a3.07,3.07,0,0,0,.7-.18.34.34,0,0,0,.25-.4.53.53,0,0,0-.29-.26,5,5,0,0,0-1.93-.3,15.81,15.81,0,0,0-1.61.13c-.16,0-.28,0-.33-.2a.92.92,0,0,1,.21-.12,4.23,4.23,0,0,1,1.89-.22,3.34,3.34,0,0,0,.6,0,.94.94,0,0,0,.81-.47.51.51,0,0,0-.09-.76,2.55,2.55,0,0,0-1.28-.7,4.91,4.91,0,0,1-1.05-.33,2.26,2.26,0,0,1-.36-.21c.16-.36.47-.28.72-.32a7.7,7.7,0,0,1,.83-.05l-.1-.41.18-.22a.61.61,0,0,0,0-.82,1.18,1.18,0,0,1-.18-.51.55.55,0,0,0-.32-.51c-.43-.21-.87-.41-1.31-.61a3.52,3.52,0,0,0-.36-.12c-.54-.18-.63-.29-.66-.84a2.81,2.81,0,0,0-.63-1.48l-.06.52-.55-.48,0,.32-.39-.06a4.81,4.81,0,0,1,.08,1.38l-.33-.35a5.09,5.09,0,0,0-2.32-1.54,2.41,2.41,0,0,0-1-.08.56.56,0,0,0,.38.39c.26.12.53.21.79.32a.91.91,0,0,1,.51.43,4.84,4.84,0,0,1-3.37-.77c-.07.5.48.58.63,1-.17,0-.29-.06-.4-.1a2.47,2.47,0,0,1-1.16-.9.47.47,0,0,0-.51-.21c-.28,0-.57,0-.85.11s-.72.22-1.13.34l-.24-.83c-.26.1-.49.21-.73.29a7.68,7.68,0,0,1-1.05.33c-.51.1-.62,0-.73-.53a1.61,1.61,0,0,1-1.74-.06c-.42-.23-.84-.48-1.27-.7s-.7-.31-1.05-.46a2.5,2.5,0,0,0-.44-.08c.2.22.34.36.46.51.26.32.25.43-.05.78a1.65,1.65,0,0,0-.23-.06,2.47,2.47,0,0,0-.3,0l-.06,1.64c-.44,0-.75-.31-1.18-.41.07.25.14.48.2.7a.82.82,0,0,1-.12.76,2.54,2.54,0,0,0-.43,1.28,4.19,4.19,0,0,1-.68,1.86,9.87,9.87,0,0,0-.64,1.29.74.74,0,0,0,0,.38.36.36,0,0,0,.34.36c.5.07.59.2.68.72,0,.15.07.3.11.49l.32.06c0,.12,0,.24,0,.3a.87.87,0,0,0-.12.78,3.45,3.45,0,0,1-.53,2.56,12.06,12.06,0,0,0-1,3.28l1.18-.3-.54,1.41a3.94,3.94,0,0,1,1.75-.69.72.72,0,0,1-.08.16l-1.11,1.12c-.33.33-.66.67-1,1a1.06,1.06,0,0,1-.83.27c-.34,0-.44,0-.57.36l-.15.37a1.48,1.48,0,0,1-.24-.25,4.14,4.14,0,0,0-1.42-1.51,4.51,4.51,0,0,1-.57-.51,7.54,7.54,0,0,0-1.89-1.38,1,1,0,0,0-.93,0,3.11,3.11,0,0,0-1.13,1,.64.64,0,0,0-.1.75.45.45,0,0,1,0,.28,2.16,2.16,0,0,0,.19,1.41c.14.28.3.55.44.83a4.77,4.77,0,0,1,.3.75,1.89,1.89,0,0,1,0,.5.42.42,0,0,1-.47-.22,2.24,2.24,0,0,1-.28-.52,4.76,4.76,0,0,0-.75-1.38,1.36,1.36,0,0,1-.28-1.24,1.39,1.39,0,0,1,.19-.43,4.19,4.19,0,0,0,.58-1.54,1.77,1.77,0,0,1-.76-1.4,5,5,0,0,1,.13-1,7.19,7.19,0,0,0,.24-1.9,3,3,0,0,0-.33-1.23c-.24-.45-.51-.89-.73-1.35s-.5-1.08-.71-1.64a1.18,1.18,0,0,1,0-1,3.19,3.19,0,0,0,.1-2.09c-.23.2-.34.51-.71.49,0-.8.39-1.59,0-2.43l-.34.22a.87.87,0,0,1-.11-.25,2.14,2.14,0,0,1,0-.47A1.26,1.26,0,0,0,662,207c0,.21-.08.39-.13.57a.56.56,0,0,1-1,.28,2.86,2.86,0,0,1-.37-.47,1.18,1.18,0,0,0-.64-.54c-.11.13-.23.26-.34.4a.63.63,0,0,1-.79.25,10.91,10.91,0,0,1-1.08-.49c-.34-.18-.65-.41-1-.59s-.52-.22-.82-.34l-.19.78c-.5.07-.66-.46-1.1-.54-.06.17-.1.34-.17.5a1.79,1.79,0,0,1-.25.48.44.44,0,0,1-.71.07L653,207l-.11.35c-.52,0-.79-.45-1.17-.71-.16.31.1.55.09.86l-.33,0a1,1,0,0,0-.66,0,.6.6,0,0,1-.41,0,1.25,1.25,0,0,0-1,.11,3.32,3.32,0,0,1-1.8.44,1,1,0,0,0-.83.38,6.21,6.21,0,0,0-.55.71,5,5,0,0,1-1.1,1.19c-.22.17-.44.36-.66.55a2.94,2.94,0,0,0-.91,1.36c-.13.41-.26.83-.39,1.25l.07.06a14.78,14.78,0,0,0,1.29-.8,3.71,3.71,0,0,1,1.7-.75c.27,0,.54-.12.84-.18.08.39.08.65-.28.88a5,5,0,0,0-1.43,1.45c-.09.14-.16.3-.25.47l.5.25a.76.76,0,0,1-.46.52,8.07,8.07,0,0,1-1,.39,2.74,2.74,0,0,0-2,2.27,1.52,1.52,0,0,1-.05.16l-.37,3.5A9,9,0,0,0,642.11,218.22Zm3.57,15.06c-.53-.33-.57-.4-.38-.9a4.27,4.27,0,0,1,.37-.72c.25-.41.54-.8.78-1.22a4,4,0,0,0,.36-.86,1,1,0,0,0-.05-.8.74.74,0,0,0-.15.1c-.69.83-1.41,1.64-2.06,2.5a5.91,5.91,0,0,0-.73,1.34,2.48,2.48,0,0,0,0,2.07,1.57,1.57,0,0,1,.06.23,1.24,1.24,0,0,1-.39-.68,4.9,4.9,0,0,1,0-2,6.68,6.68,0,0,1,1.45-3.14c.42-.56.86-1.1,1.22-1.7a12.82,12.82,0,0,1,1.49-2,2.86,2.86,0,0,0,.59-.87c.35-.93.66-1.88,1-2.83a1.57,1.57,0,0,0,0-.8,9,9,0,0,0-.49-1.4.78.78,0,0,0-.4-.36,9,9,0,0,0-1.41-.49,2.08,2.08,0,0,0-1,0,3.55,3.55,0,0,0-1.76,1.15,3,3,0,0,0-.66,1.37.75.75,0,0,0,.16-.06A3.41,3.41,0,0,0,644,221a3.87,3.87,0,0,1,2.69-1,2.23,2.23,0,0,1,1.83.66,1.12,1.12,0,0,1,.33,1,12.53,12.53,0,0,0-3.81,0l-.41.48c.14.09.27.23.42.25a3.31,3.31,0,0,0,.84,0c.62-.06,1.23-.14,1.84-.22l0,.1-.6.43a1.42,1.42,0,0,1-1.34.2,6.17,6.17,0,0,0-.78-.23.92.92,0,0,0-1.16.86,13.2,13.2,0,0,1-.29,1.37c-.08.33-.23.65-.29,1a11.33,11.33,0,0,0-.08,2.85,4.48,4.48,0,0,0,.2,1.22,1.15,1.15,0,0,1-.29,1.32,2,2,0,0,0-.49,1,7.37,7.37,0,0,0,.44,4.1c.23,0,.44.08.65.1a.26.26,0,0,0,.32-.26c0-.2.07-.39.1-.59a2.52,2.52,0,0,1,1-1.8A3.9,3.9,0,0,0,645.68,233.28Zm48.48-10.75,0,.09.25.18.73.52a.37.37,0,0,1,.16.41,2.28,2.28,0,0,0,.64,2.07c.39.41.74.86,1.09,1.31a3.13,3.13,0,0,1,.57,1.36,1,1,0,0,0,.19.45,6.59,6.59,0,0,1,1.16,2.35,1.94,1.94,0,0,1-.77,2,2.45,2.45,0,0,1-.33.17c-.29-.9-.29-.9-.67-.89,0,.22,0,.45,0,.68A5.22,5.22,0,0,1,697,235a1.28,1.28,0,0,0,.27,1.24.75.75,0,0,1,.23.53c0,.09.11.2.19.31.21-.27.21-.27.22-.53a11.59,11.59,0,0,1,.07-1.23,3,3,0,0,1,1.18-2.14,2.17,2.17,0,0,0,.9-1.31,8,8,0,0,0-.06-1.7.14.14,0,0,0,0-.07,1.69,1.69,0,0,1-.3-1.33,2.16,2.16,0,0,1,1.11-1.85,1.61,1.61,0,0,0,.82-1.77,5.38,5.38,0,0,0-.72-1.63,1.72,1.72,0,0,0-1-.82,3.8,3.8,0,0,0-1.69-.16c.41.2.85.05,1.23.39a3.32,3.32,0,0,1-.58.17,3.09,3.09,0,0,1-.72,0l-3.67-.55A1.6,1.6,0,0,0,694.16,222.53Zm1.4-1.46V221a2.76,2.76,0,0,0-1.54.17c.48.83,3.85,1,4.81.11-.17-.43-.24-.48-.66-.38-.58.13-1.16.28-1.73.45a3.14,3.14,0,0,1-1.35.13c-.21,0-.45-.06-.52-.39ZM694.13,220a4.19,4.19,0,0,1,3.27-.32,3.88,3.88,0,0,0,.6.06l0-.1c-.12-.07-.23-.15-.35-.2a5.55,5.55,0,0,0-2.17-.55,1.77,1.77,0,0,0-1.35.6A.33.33,0,0,0,694.13,220Zm5.4,0a1.4,1.4,0,0,0,.36-1.66c0-.06-.14-.07-.2-.1Zm-2.48-1.4a2,2,0,0,1,1,.65c.15.15.26.33.39.49s.12.06.2.09C698.61,219.15,698,218.66,697.06,218.57Zm-.23,1.72c.28.22.51.1.76,0C697.27,219.92,697.12,219.92,696.82,220.29Zm-53.72,1.38a2.14,2.14,0,0,0-1,.75A2.18,2.18,0,0,0,643.1,221.66Zm51.38-1.16c.26.09.38.08.41-.05s0-.22-.08-.23-.32,0-.35.25C694.46,220.47,694.47,220.48,694.48,220.5Zm-4.15,9.91a.32.32,0,0,0-.1.49C690.44,230.76,690.45,230.62,690.32,230.41Zm-6.41,1.31.11,0c.13-.14.29-.26.13-.56Z" transform="translate(-629.12 -197.24)"/><path class="cls-1" d="M702.88,247.71l2.45,7.07c.16-2.22-.06-4.42,0-6.69,1.17-.08,2.33,0,3.48-.08.11.38.28,13.66.17,14.23h-3.45l-.08-.29-1.23.41c-.79-2.1-1.51-4.21-2.32-6.3a1.84,1.84,0,0,0,0,.26c0,.88,0,1.76,0,2.65s-.06,2-.09,3.07a.78.78,0,0,1-.06.17c-1.15,0-2.31,0-3.48-.09l-.06-.66a3.42,3.42,0,0,0-1.32.37c-.5.22-1,.42-1.5.62a2.31,2.31,0,0,1-.28.07l-1.28-3.42-4.31-.18c-.16.41-.32.78-.46,1.17-.24.64-.46,1.29-.69,1.93-.05.14-.12.27-.19.41l-3.31-1.05c0-.16.07-.32.12-.48q.69-1.95,1.38-3.9c.4-1.12.82-2.24,1.22-3.37q.78-2.17,1.54-4.34c.16-.44.29-.89.45-1.33.06-.16.13-.31.22-.51.53.18,1,.34,1.54.53a.75.75,0,0,0,.57,0l1-.38a2.58,2.58,0,0,1,.4-.07l4.82,13.05.11,0c0-2,.06-4,.1-5.95s.11-4,.16-6a2.36,2.36,0,0,1,1,0,3.29,3.29,0,0,0,1.4-.2Zm-10.42,7.78-.92-2.42-.87,2.35Z" transform="translate(-629.12 -197.24)"/><path class="cls-1" d="M688.24,280.51c-.27,0-.5.07-.72.08-.81,0-1.62-.09-2.44,0a2.25,2.25,0,0,1-.47-.05c0-.92,0-1.85,0-2.79s0-1.88-.1-2.82c-.55,1.9-.91,3.86-1.36,5.82-.15,0-.26,0-.36,0l-1.91-.43a1.34,1.34,0,0,0-.83,0c-.41.16-.83.29-1.3.45-.31-.72-.53-1.47-.79-2.2s-.51-1.44-.83-2.16a1.39,1.39,0,0,0-.05.25q-.05,1.64-.1,3.29c0,.48,0,.5-.5.51-1,0-2,0-3.09.06a4.08,4.08,0,0,1,0-.47q.06-2.88.13-5.76t.17-6c0-.54,0-1.07.06-1.64a3.82,3.82,0,0,1,.88,0,1.6,1.6,0,0,0,1.16-.31,8.45,8.45,0,0,1,1.57-.62c1.17,3.11,2.2,6.24,3.34,9.43.77-2.93,1.32-5.82,2-8.71a18.41,18.41,0,0,1,1.81.38l0-.74H688Z" transform="translate(-629.12 -197.24)"/><path class="cls-1" d="M643.95,262.83l-4-.08,0-.62-4.66.33-.07.59c-.53,0-1,.05-1.57.05-.67,0-1.35,0-2,0-.35,0-.37,0-.38-.38,0-.73,0-1.45-.07-2.18a9.29,9.29,0,0,1,0-1.55,36.77,36.77,0,0,0,.08-4.23c0-1.28.07-2.56,0-3.84-.05-.72-.09-1.45-.09-2.17s0-1.33,0-2c.14,0,.29,0,.44,0l4,0,8.84-.06.51,0c0,1.28,0,2.52,0,3.76,0,.06-.06.13-.11.24l-9.49,0c-.09,2.62,0,5.18,0,7.74a22.73,22.73,0,0,0,4.65-.24,14.27,14.27,0,0,0,0-1.46c-.2,0-.37-.06-.55-.06l-1.84,0-.45,0a22.17,22.17,0,0,1,.07-4c.58,0,1.17,0,1.76,0l1.75,0,1.79.06c.58,0,1.16,0,1.74.06,0,.94,0,1.83,0,2.73,0,.28,0,.57,0,.85a2.58,2.58,0,0,1-.11.39,1.58,1.58,0,0,0-.08.36,31.24,31.24,0,0,0,.1,3.71c0,.21.06.42.08.63s0,.33-.12.47-.05.18-.06.28S643.95,262.56,643.95,262.83Z" transform="translate(-629.12 -197.24)"/><path class="cls-1" d="M646.36,264.47l13.86-.08c0,1.35.11,2.64,0,4l-9.67.1c0,.19,0,.35,0,.52,0,1.08,0,2.16,0,3.24s0,2.36,0,3.54c0,.17,0,.33,0,.57l4.69-.36v-1.5l-2.72-.13c0-.59,0-1.14,0-1.69,0-.4,0-.79,0-1.19s0-.51,0-.76.08-.32.28-.31l1,0,4.48.09c.3,0,.6,0,.9,0a.29.29,0,0,1,.32.32c0,.73,0,1.45,0,2.18,0,.4,0,.81,0,1.21a.38.38,0,0,1-.08.3.6.6,0,0,0-.09.36c0,.94,0,1.88,0,2.81,0,.48.07,1,.1,1.45,0,.2.11.42-.14.57,0,0,0,.16,0,.24s0,.29,0,.43-.08.21-.26.2a8,8,0,0,0-1.5,0c-.52.07-1,0-1.55.08s-.63,0-.7-.69c-1.52.09-3,.2-4.56.31a.59.59,0,0,0-.07.13c-.07.34-.07.35-.43.36l-2.23,0h-1.32c0-.29,0-.55,0-.82-.06-1-.13-1.9-.19-2.85,0-.22-.07-.44.12-.64s0-.27,0-.41q0-3.12,0-6.23c0-.28,0-.57,0-.85a1,1,0,0,0-.12-.68c-.1-.14-.05-.4-.05-.6q0-1.44,0-2.88A2.51,2.51,0,0,1,646.36,264.47Z" transform="translate(-629.12 -197.24)"/><path class="cls-1" d="M679.75,262.45l-1.61-.42c-.26-.07-.52-.17-.79-.23a.69.69,0,0,0-.36,0l-1.55.57L673.91,258l-.1,0-.09,4.13c-.42,0-.82,0-1.21,0l-1.69-.08a2,2,0,0,1-.4,0,.34.34,0,0,1-.2-.18.76.76,0,0,1,0-.3q.14-6.27.29-12.55c0-.11,0-.22,0-.36a.85.85,0,0,1,.21,0,3.49,3.49,0,0,0,1.78-.34c.49-.2,1-.37,1.54-.58l3.21,9.19h.08l1.89-8.39,1.15.27c.14,0,.27.09.41.12s.21-.06.22-.2,0-.39,0-.61l3.14-.07c.36,0,.38,0,.38.37,0,1.07,0,2.13,0,3.2,0,1.41.06,2.82.08,4.22s0,2.67,0,4c0,.64,0,1.28.06,1.92a1.29,1.29,0,0,1,0,.34.24.24,0,0,1-.28.2c-.68,0-1.35,0-2,0H681.2l-.06-5.64H681C680.6,258.57,680.17,260.48,679.75,262.45Z" transform="translate(-629.12 -197.24)"/><path class="cls-1" d="M661.21,281c0-.27.05-.51-.23-.66-.07,0-.09-.23-.09-.35,0-.68,0-1.37,0-2q-.06-3.33-.12-6.66c0-.6,0-1.19,0-1.79,0-.78,0-1.56,0-2.34,0-.18,0-.35,0-.57a1.86,1.86,0,0,1,.31-.05,25.86,25.86,0,0,1,2.9,0,19.63,19.63,0,0,0,3-.14l3.07-.18,1.06-.09.63,0,.07.42.69.05a4.47,4.47,0,0,1,0,.5q-.09,3.91-.18,7.81-.06,2.52-.11,5c0,.15,0,.31,0,.52h-.49a29.49,29.49,0,0,0-3.71.11c-1.36.08-2.72.2-4.09.3l-2.3.17Zm3.14-10.75.13,6.87,4.2-.25c0-2.35.14-4.65.12-7Z" transform="translate(-629.12 -197.24)"/><path class="cls-1" d="M688,292.69a11.14,11.14,0,0,0-3.25,3.07,3.28,3.28,0,0,1-.4.55.55.55,0,0,1-.73.14.6.6,0,0,1-.28-.73,7.51,7.51,0,0,1,.32-.79c.23-.5.47-1,.71-1.52-1.14.19-1.39.07-2-.93l-1.09.66a2.35,2.35,0,0,1-1,.34.94.94,0,0,1-1.08-.57c-.17.11-.32.21-.48.29a2,2,0,0,1-1.44.2,1.22,1.22,0,0,1-1-1.06,2.54,2.54,0,0,1,.29-1.73,5.69,5.69,0,0,1,4-2.86,2.89,2.89,0,0,1,.76,0,.51.51,0,0,1,.53.47.52.52,0,0,1-.4.61,4,4,0,0,1-.58.15,4.69,4.69,0,0,0-2.92,1.78,3.2,3.2,0,0,0-.41.88.47.47,0,0,0,.16.54.46.46,0,0,0,.56,0,2.43,2.43,0,0,0,1-1.08c.18-.42.38-.83.59-1.23a.8.8,0,0,1,.49-.45.64.64,0,0,1,.64.13.54.54,0,0,1,.12.63c-.08.21-.18.42-.27.63s-.33.69-.48,1c0,.09,0,.27,0,.3a.47.47,0,0,0,.34,0,1.09,1.09,0,0,0,.33-.18l.7-.49a4.1,4.1,0,0,0,1.2-1.23,5.68,5.68,0,0,1,3.88-2.47,2,2,0,0,1,.6,0,.53.53,0,0,1,.54.5.58.58,0,0,1-.44.6c-.16,0-.33.07-.5.11a4.65,4.65,0,0,0-2.39,1.25,7,7,0,0,0-.75,1,1,1,0,0,0-.11.41c0,.18,0,.42.16.49a.72.72,0,0,0,.52,0,2,2,0,0,0,.92-.92c.23-.49.46-1,.71-1.46a.63.63,0,0,1,.65-.38.55.55,0,0,1,.55.7,2.67,2.67,0,0,1-.19.52c-.29.63-.59,1.26-.92,2a2.44,2.44,0,0,0,.24-.12l1.78-1.24a.79.79,0,0,0,.25-.27c.29-.59.56-1.18.84-1.77.15-.32.3-.64.47-1a.63.63,0,0,1,.69-.33.55.55,0,0,1,.49.67,2.45,2.45,0,0,1-.19.52l-1.1,2.31a3.09,3.09,0,0,0-.21.56c-.06.24.05.35.3.31l.08,0a2.67,2.67,0,0,0,1.34-1.13c.38-.78.73-1.57,1.1-2.36a3.72,3.72,0,0,1,.34-.59.65.65,0,0,1,.83-.2.58.58,0,0,1,.26.74,3.85,3.85,0,0,1-.21.51c-.38.83-.77,1.65-1.15,2.48-.07.16-.24.33-.07.5s.36,0,.51,0c.41-.23.81-.47,1.2-.73s.58-.46.89-.71c0-.09,0-.19-.08-.3a1.46,1.46,0,0,1,.44-1.55,4,4,0,0,1,.84-.58,8.5,8.5,0,0,1,1-.4,1.24,1.24,0,0,1,.33-.07.58.58,0,0,1,.66.41.54.54,0,0,1-.34.66c-.34.17-.7.31-1,.48a2.76,2.76,0,0,0-.44.25.39.39,0,0,0-.14.52l.34-.11a3.65,3.65,0,0,1,.53-.16.52.52,0,0,1,.61.34.56.56,0,0,1-.21.68,2.46,2.46,0,0,1-.41.22l-1.17.53a1.54,1.54,0,0,0-.43.28.4.4,0,0,0-.11.33.38.38,0,0,0,.3.17,2.1,2.1,0,0,0,.63-.09c.46-.14.92-.3,1.37-.47a2.75,2.75,0,0,0,1.29-1.08.51.51,0,0,0,.08-.55.53.53,0,0,1,.22-.68,2.26,2.26,0,0,0,.76-1,1.68,1.68,0,0,1,.15-.26.64.64,0,0,1,1.13,0l.08.11c.51,0,1,0,1.47,0a1,1,0,0,1,.85,1.66,3.78,3.78,0,0,1-.5.64c-.45.45-.93.88-1.38,1.33a5.25,5.25,0,0,0-.36.43.35.35,0,0,0,.5.09,4.88,4.88,0,0,0,.66-.39c.78-.57,1.56-1.15,2.32-1.74a1.64,1.64,0,0,0,.41-.52c.22-.41.4-.85.61-1.27a2,2,0,0,1,.27-.43.6.6,0,0,1,.74-.13.54.54,0,0,1,.3.64,2.4,2.4,0,0,1-.18.52l-1.14,2.48a.71.71,0,0,0-.09.62,1.07,1.07,0,0,0,.37-.08c.49-.31,1-.64,1.46-1a.58.58,0,0,0,.17-.23,5.5,5.5,0,0,1,3.82-3,3.61,3.61,0,0,1,.63-.13,2,2,0,0,1,.59,0,.5.5,0,0,1,.43.51.52.52,0,0,1-.35.53,2.45,2.45,0,0,1-.49.13,5,5,0,0,0-2.48,1.17,3,3,0,0,0-.85,1.11,1.7,1.7,0,0,0-.11.66c0,.28.21.4.48.32a1.17,1.17,0,0,0,.38-.19,2.5,2.5,0,0,0,.85-1,8.4,8.4,0,0,1,.54-1.11,1.36,1.36,0,0,1,.44-.45.57.57,0,0,1,.68.07.51.51,0,0,1,.16.58,2.85,2.85,0,0,1-.18.48c-.18.39-.38.77-.54,1.16a1.2,1.2,0,0,0,0,.44,1.22,1.22,0,0,0,.44-.05,7.88,7.88,0,0,0,.74-.5c.21-.15.41-.31.63-.44a.54.54,0,0,1,.7.07.52.52,0,0,1,0,.7.68.68,0,0,1-.1.14,4.87,4.87,0,0,1-2.51,1.45,1,1,0,0,1-1.2-.53l-.36.21a2,2,0,0,1-1,.34,1.39,1.39,0,0,1-1.39-.65l-.14-.21h0l-1.6.73a1.37,1.37,0,0,1-.92.09,1,1,0,0,1-.8-.75c0-.15-.06-.31-.1-.51-.11.07-.22.13-.31.2a8,8,0,0,1-1.82,1,2,2,0,0,1-1.42,0,1,1,0,0,1-.6-1.58,3,3,0,0,1,.51-.62c.46-.45.93-.88,1.39-1.32a1.59,1.59,0,0,0,.28-.32c.12-.19,0-.35-.21-.31a6.34,6.34,0,0,0-.69.22,1.43,1.43,0,0,0-.93.91c-.35.85-.76,1.68-1.15,2.52a1.88,1.88,0,0,1-.19.33.5.5,0,0,1-.91-.07c0-.06-.06-.13-.09-.21-.38.12-.76.25-1.14.34a10.33,10.33,0,0,1-1.3.22,1.71,1.71,0,0,1-1.61-.57c-.54.18-1,.35-1.53.51a2.22,2.22,0,0,1-.51.06.87.87,0,0,1-.81-.39l-.15-.2c-.41.18-.79.37-1.19.51a1.36,1.36,0,0,1-1.59-.36C688.17,292.93,688.11,292.82,688,292.69Z" transform="translate(-629.12 -197.24)"/><path class="cls-1" d="M690.1,281l-.1-.43-1.16-.07c-.1-.35.19-13.38.31-13.87a97.77,97.77,0,0,0,10.23-.51,14.35,14.35,0,0,1,.11,2.5c-.41.13-.41.13-.43.54,0,.19,0,.38-.05.63l-6.34.47v1.09c.28,0,.55.05.83.06l5,.11.52,0c0,1.22,0,2.41-.09,3.65l-6.37-.18v2.15a1.79,1.79,0,0,0,.31,0l4.72-.36,1.92-.12c.27,0,.32.05.34.31q.1,1.49.2,3c0,.3,0,.32-.28.34l-3.62.24-2.89.22-2.85.21A2,2,0,0,1,690.1,281Z" transform="translate(-629.12 -197.24)"/><path class="cls-1" d="M669.48,247.94c0,.24.1.46.12.69s0,.57,0,.85a1.33,1.33,0,0,0,.24.47,1.81,1.81,0,0,0,.27.27,2.15,2.15,0,0,0-.35.54,2.2,2.2,0,0,0,0,.65.76.76,0,0,1-.21.05,1,1,0,0,0-.9.46q-3.06,3.56-6.14,7.11l-.35.43,7.46.32c0,.74,0,1.45-.06,2.16a10.74,10.74,0,0,0-.05,1.08c0,.18-.12.27-.31.27l-1.75,0-3.84-.16-2.21-.11-2.56-.12c-.44,0-.88,0-1.36,0,0-.57,0-1.09.06-1.6,0-.19.07-.37.07-.56a.5.5,0,0,0-.16-.41c-.12-.1-.22-.22-.38-.37l6.93-8a2.31,2.31,0,0,0-.31,0l-5.45.39c-.19,0-.38,0-.56,0l-.15-3.48Z" transform="translate(-629.12 -197.24)"/><path class="cls-1" d="M648.88,248.68c0,1.87.07,3.67.13,5.47s0,3.61.11,5.46l4-.28a.73.73,0,0,0,0-.17c0-1.71.07-3.41.12-5.12,0-1.44.09-2.87.14-4.31,0-.21,0-.43,0-.64a.29.29,0,0,1,.34-.33l2.25.06c.3,0,.61,0,.91,0,0,.69,0,1.34,0,2q-.06,3.12-.13,6.23c0,1.29-.08,2.59-.1,3.88,0,.37,0,.74.07,1.1,0,.2,0,.39,0,.63l-10.54.77-.1-1.07-.47-.08c0-.2-.05-.4-.05-.61,0-1.05,0-2.11,0-3.16,0-1.58-.09-3.16-.12-4.74s-.07-3.19-.1-4.78a1.66,1.66,0,0,1,0-.21C646.52,248.67,647.68,248.73,648.88,248.68Z" transform="translate(-629.12 -197.24)"/><path class="cls-1" d="M710.72,266c.24.35.12.73.22,1.08a.68.68,0,0,1,0,.17c0,.34,0,.65.4.78a5.8,5.8,0,0,0-.24.78,5,5,0,0,0,0,.76s-.08.06-.12.06a.93.93,0,0,0-.87.6c-.81,1.43-1.66,2.85-2.5,4.27l-1.21,2.06c-.06.11-.12.22-.21.4,1.68.1,3.3.18,5,.21,0,.65-.06,1.25-.09,1.85a7.52,7.52,0,0,1-.15,1.79h-.33l-5.46-.23c-.21,0-.43,0-.64,0s-.51,0-.63.31a.56.56,0,0,1-.17-.05,2,2,0,0,0-1.37-.35c-.42,0-.84,0-1.3-.06,0-.28,0-.51,0-.73a.56.56,0,0,0-.26-.61s0-.09,0-.1a2.06,2.06,0,0,0,.33-1.38c0-.25,0-.5,0-.78a2.08,2.08,0,0,1,.42,0,.63.63,0,0,0,.73-.42c.19-.38.43-.74.64-1.11l2.83-4.82c.06-.11.12-.22.21-.4-.92,0-1.77.1-2.63.16l-2.65.14a32.3,32.3,0,0,1-.13-3.62Z" transform="translate(-629.12 -197.24)"/><path class="cls-1" d="M647,289.5c.51-.34,1-.63,1.4-.95a1.56,1.56,0,0,0,.31-.4.62.62,0,0,1,.8-.29.65.65,0,0,1,.39.81,1.36,1.36,0,0,1-.34.58,8.22,8.22,0,0,1-.95.72c-.41.28-.83.54-1.27.82.12.38.22.73.33,1.08a.33.33,0,0,0,.4.24,2,2,0,0,0,.33-.07,4.29,4.29,0,0,0,.43-.18c1.13-.52,1.13-.52,1.65-1.63.26-.55.51-1.11.78-1.66a2.87,2.87,0,0,1,.3-.52.61.61,0,0,1,.8-.16.56.56,0,0,1,.25.73,3.85,3.85,0,0,1-.18.43l-1.11,2.4a.72.72,0,0,0-.08.63,1.35,1.35,0,0,0,.41-.09c.3-.18.59-.39.88-.6a.52.52,0,0,0,.17-.24,5.29,5.29,0,0,1,3.11-3.09,2.78,2.78,0,0,1,.85-.24c.61-.06.92.33.71.91s-.4.94-.61,1.41a.59.59,0,0,1-.53.37.54.54,0,0,1-.58-.66c0-.12.06-.24.1-.43a3.8,3.8,0,0,0-1.74,1.92c-.2.51,0,.81.57.8a2.28,2.28,0,0,0,.75-.13c.65-.24,1.29-.51,1.93-.79a.59.59,0,0,0,.28-.29,5.28,5.28,0,0,1,3.63-3,6.13,6.13,0,0,1,1.22-.18.53.53,0,0,1,.53.29.52.52,0,0,1-.25.75,3.83,3.83,0,0,1-.7.19,4.79,4.79,0,0,0-2.51,1.36,2.49,2.49,0,0,0-.68,1.12,1,1,0,0,0,0,.29.39.39,0,0,0,.59.37,2.11,2.11,0,0,0,1-1c.19-.38.35-.78.55-1.16a1.75,1.75,0,0,1,.36-.47.66.66,0,0,1,.76,0,.51.51,0,0,1,.19.68c-.16.42-.37.83-.56,1.24a3,3,0,0,0-.19.47c-.06.22,0,.33.27.29a.84.84,0,0,0,.31-.13c.28-.19.57-.38.83-.6a1.1,1.1,0,0,0,.26-.38c.37-.77.72-1.55,1.09-2.32a3.86,3.86,0,0,1,.28-.53.62.62,0,0,1,1.14.07.16.16,0,0,0,0,0,8.61,8.61,0,0,1,1-.37,1.63,1.63,0,0,1,.67,0,.86.86,0,0,1,.72.83,2.51,2.51,0,0,1-.3,1.27c-.24.51-.51,1-.76,1.53a3.67,3.67,0,0,0-.16.49.48.48,0,0,0,.6,0c.28-.19.55-.41.82-.61a4,4,0,0,1,.5-.33.55.55,0,0,1,.67.09.52.52,0,0,1,0,.67,1.06,1.06,0,0,1-.18.24,5.4,5.4,0,0,1-2.11,1.32,1.51,1.51,0,0,1-1,0,1,1,0,0,1-.72-1,3.12,3.12,0,0,1,.23-1c.21-.51.48-1,.72-1.5a2.5,2.5,0,0,0,.18-.48c0-.18-.05-.28-.23-.25a.94.94,0,0,0-.28.09,2.41,2.41,0,0,0-1.25,1.22c-.3.72-.65,1.42-1,2.13a4.79,4.79,0,0,1-.26.49.65.65,0,0,1-1.07.17l-.11-.09a5.4,5.4,0,0,1-.63.22c-.58.13-1.14.19-1.47-.46-1.46.79-2,.74-2.83-.28l-.37.16a7.26,7.26,0,0,1-2.16.63,2.19,2.19,0,0,1-2.07-.71,8,8,0,0,1-.84.45,4.1,4.1,0,0,1-.94.26,1.2,1.2,0,0,1-1.27-.65l-.39.18a4.49,4.49,0,0,1-1.54.48,1.17,1.17,0,0,1-1.43-.91c-.1-.29-.18-.59-.29-1-.16.09-.31.15-.44.25a10.85,10.85,0,0,1-2.63,1.3,4.51,4.51,0,0,1-2.13.29,1.25,1.25,0,0,1-1.09-.77,1.31,1.31,0,0,1,.24-1.4,7.79,7.79,0,0,1,.74-.67c0-.07,0-.15-.06-.23a1.45,1.45,0,0,1,.39-1.53,4.31,4.31,0,0,1,2-1.08.63.63,0,0,1,.17,0,.55.55,0,0,1,.59.4.52.52,0,0,1-.29.64c-.3.16-.62.28-.93.43a5.29,5.29,0,0,0-.53.27.42.42,0,0,0-.2.56c.28-.09.56-.2.84-.27a.53.53,0,0,1,.6.3.55.55,0,0,1-.12.66,1.76,1.76,0,0,1-.4.24l-1.13.51a1.88,1.88,0,0,0-.47.28.5.5,0,0,0-.16.36c0,.17.2.19.34.16a6.48,6.48,0,0,0,1-.2,13.88,13.88,0,0,0,3.16-1.68.31.31,0,0,0,.12-.41c-.09-.33-.18-.66-.26-1a2.42,2.42,0,0,1-.07-.38c0-.44.13-.7.48-.78s.6.1.74.54c.07.22.12.44.18.66S646.94,289.28,647,289.5Z" transform="translate(-629.12 -197.24)"/><path class="cls-1" d="M638.15,281.13a34.78,34.78,0,0,1-3.54-.05l-.12-5.29c-.3,0-.36-.2-.46-.38L630.75,269l-.85-1.67,2.92-1.46c.07,0,.17,0,.29,0s.16.27.24.42l2.54,5,.08.15a.33.33,0,0,0,.63,0c.21-.34.39-.69.59-1l2.35-4.21c.25-.45.26-.47.75-.24.81.39,1.61.8,2.42,1.21a1.85,1.85,0,0,1,.23.16c-.1.2-.2.39-.3.57l-3.42,6.1c-.26.46-.5.93-.74,1.39-.08.15-.16.31-.43.23Z" transform="translate(-629.12 -197.24)"/><path class="cls-1" d="M637.17,286.69c.37-.42.71-.86,1.1-1.25a4.52,4.52,0,0,1,1.77-1.16,3.45,3.45,0,0,1,1-.19.81.81,0,0,1,.86,1.18,7.51,7.51,0,0,1-.33.79l-2.3,4.86c-.28.59-.54,1.19-.81,1.78a2.62,2.62,0,0,1-.33.54.6.6,0,0,1-.8.15.57.57,0,0,1-.32-.75,4.73,4.73,0,0,1,.26-.63l2.74-5.83c.06-.14.12-.28.22-.5-.18.09-.27.14-.36.2a5.74,5.74,0,0,0-1.5,1.5c-.55.81-1.05,1.66-1.59,2.48-.27.42-.54.84-.85,1.23a2,2,0,0,1-.6.46.52.52,0,0,1-.63-.12.51.51,0,0,1-.09-.63,4.39,4.39,0,0,1,.38-.57,4.46,4.46,0,0,0,.93-2.17,2.75,2.75,0,0,0-.24-1.5,2,2,0,0,0-2.21-1.08,3.54,3.54,0,0,0-2.6,1.88,2.83,2.83,0,0,0-.26.81,1.25,1.25,0,0,0,.43,1.23l.21.21a.56.56,0,0,1,.16.66.67.67,0,0,1-.6.42,1.16,1.16,0,0,1-.92-.38,2.34,2.34,0,0,1-.68-1.44,3.78,3.78,0,0,1,1-3.06,4.74,4.74,0,0,1,3.38-1.7,3.29,3.29,0,0,1,3.17,1.55A6.61,6.61,0,0,1,637.17,286.69Z" transform="translate(-629.12 -197.24)"/><path class="cls-1" d="M675.89,286.81h-5.28a3.36,3.36,0,0,1-.63-.07.51.51,0,0,1-.44-.46.61.61,0,0,1,.29-.7,1.45,1.45,0,0,1,.61-.16h13.79a2.2,2.2,0,0,1,.47,0,.59.59,0,0,1,.53.58.63.63,0,0,1-.47.68,2.27,2.27,0,0,1-.63.09h-6.57l-.13,0c-.06.11-.13.25-.19.39l-2.43,5.27a4.84,4.84,0,0,1-.36.67.67.67,0,0,1-.89.27.65.65,0,0,1-.29-.88,5,5,0,0,1,.22-.51l2.18-4.68Z" transform="translate(-629.12 -197.24)"/><path class="cls-1" d="M680.38,223a1,1,0,0,1,.2,0,2,2,0,0,0,1.5-.49,1.26,1.26,0,0,1,.62-.25c.91-.14,1.82-.31,2.73-.47a1,1,0,0,0,.78-.65.74.74,0,0,0-.24,0,23.19,23.19,0,0,1-4,.23,3.06,3.06,0,0,0-.89.07,4.87,4.87,0,0,0-1,.49,7.11,7.11,0,0,0-.57.44,1.16,1.16,0,0,1-1.12.09l.44-.38-.35-.28,0-.1a2.71,2.71,0,0,1,.39-.05,2.45,2.45,0,0,0,1.72-.64,5.13,5.13,0,0,1,3.17-1.19l.41,0c0-.27-.13-.3-.29-.28a10.08,10.08,0,0,0-1.59.25c-1,.32-2,.72-3.06,1.06a3.24,3.24,0,0,1-.77.06l0-.09a1.68,1.68,0,0,1,.36-.33,5.64,5.64,0,0,1,.91-.36c.64-.19,1.29-.34,1.93-.52l2.17-.64a1.52,1.52,0,0,1,1,0l.08,0c1,.2.8.31,1.61-.27.31-.22.42-.18.61.14.31.53.61,1.06.95,1.57a1.57,1.57,0,0,1,.09,1.51.71.71,0,0,1-.42.4,1.84,1.84,0,0,1-1.06.13,9.9,9.9,0,0,0-2.59.17,17.38,17.38,0,0,0-2.65.65,2.55,2.55,0,0,1-.75.08c-.12,0-.23-.1-.34-.16Zm4.89-2.13a.57.57,0,0,0-.63-.48c-.21,0-.32.14-.28.41Zm-3.16-.13a.41.41,0,0,0-.47.22C682.09,221.08,682.11,221.07,682.11,220.71Z" transform="translate(-629.12 -197.24)"/><path class="cls-1" d="M655.5,217.73l.3.08c.31-.51.6,0,.92,0l.17-.19c.22,0,.42.27.64,0,0,0,.17,0,.23,0a3.11,3.11,0,0,1,.33.29v-.54a1,1,0,0,1,.7.5c.22.35.42.71.63,1.07a1.54,1.54,0,0,0,.65.71l-.14-.24c-.28-.48-.57-.95-.85-1.43-.07-.11-.17-.22-.06-.39s0-.24,0-.41a4,4,0,0,1,1.72.88c.26.3.53.6.76.92s.69.94,1,1.42a2,2,0,0,1,.23.4c.11.27,0,.45-.3.46a1.07,1.07,0,0,1-.42-.07,4.64,4.64,0,0,1-1.42-.77l-.43-.35a2.3,2.3,0,0,0-1.76-.62,3,3,0,0,1-.76-.1,2.43,2.43,0,0,1-.49-.13,2.19,2.19,0,0,0-2.34.45,1.84,1.84,0,0,0-.31.35c-.08.11-.15.24-.22.35-.27,0-.36-.21-.45-.38a3.31,3.31,0,0,0-.74-1.08c-.26-.22-.22-.42,0-.82l.86.65a.23.23,0,0,0,.34-.06c.12-.15.24-.32.35-.47C655.28,218.32,655.28,218.32,655.5,217.73Z" transform="translate(-629.12 -197.24)"/><path class="cls-1" d="M656,221.73a1.76,1.76,0,0,0-1.59.2c-.25.19-.51.36-.77.53a1.18,1.18,0,0,1-.2.07.92.92,0,0,1,.48-.62l.71-.33-.51-.42a4.89,4.89,0,0,0,.68-.16c.21-.08.39-.23.6-.33a3.1,3.1,0,0,1,2.76-.07,12.61,12.61,0,0,1,3.24,1.86,1.78,1.78,0,0,0,1.22.44c.28,0,.56,0,.92.06l-.85.61a1,1,0,0,0,.8.34,6.24,6.24,0,0,1,.68,0,.48.48,0,0,1,.27.1,1.23,1.23,0,0,1-1.1.11,7.55,7.55,0,0,1-2.19-1.28,4.4,4.4,0,0,0-2.14-.77c-.38-.05-.76-.08-1.15-.1-.54,0-.54,0-1,.5l.68.24c.62.21,1.24.4,1.86.62a1.48,1.48,0,0,1,.75.52,3,3,0,0,1-.37,0c-.73-.19-1.45-.4-2.19-.57a4.73,4.73,0,0,0-1.06-.09c-.64,0-1.28,0-1.91.06a.92.92,0,0,1-.38-.06.38.38,0,0,1-.22-.22c0-.07.1-.19.18-.24Z" transform="translate(-629.12 -197.24)"/><path class="cls-1" d="M687.83,218.11a.61.61,0,0,1-.18,0,8.11,8.11,0,0,0-3.29-.33,12.81,12.81,0,0,0-4.07.86l-1.69.71-.3.09a1.21,1.21,0,0,1,.1-.25c.2-.26.39-.52.61-.77a1.25,1.25,0,0,1,.35-.24,3.87,3.87,0,0,0,1.3-1,.66.66,0,0,1,.31-.2,7.1,7.1,0,0,1,.74-.19,3.42,3.42,0,0,0,.55-.19,6.51,6.51,0,0,1,1.11-.24c.07-.24.27-.3.54-.27l.75.08c0-.25.17-.33.4-.28l.83.2c.11,0,.21.1.3,0s.19-.08.3,0a2.57,2.57,0,0,1,1.38,1.93A.78.78,0,0,1,687.83,218.11Z" transform="translate(-629.12 -197.24)"/><path class="cls-1" d="M719.6,269.37h-1.08v-1.75l-.08,0c-.06.18-.11.36-.17.54s-.23.61-.32.93-.2.36-.45.33l-.42,0-.54-1.51h-.09v1.45a2.71,2.71,0,0,1-1.09,0c0-1.09,0-2.16,0-3.27.38,0,.73,0,1.08-.05a.42.42,0,0,1,.47.34,8.73,8.73,0,0,0,.57,1.32c.11-.3.21-.61.34-.9.37-.88.17-.73,1-.75h.69C719.66,267.17,719.52,268.25,719.6,269.37Z" transform="translate(-629.12 -197.24)"/><path class="cls-1" d="M635.17,286.67a2.89,2.89,0,0,1-.13.41q-1.36,2.89-2.72,5.78a1.65,1.65,0,0,1-.26.39.65.65,0,0,1-.81.15.6.6,0,0,1-.3-.72,2.77,2.77,0,0,1,.2-.52q1.24-2.64,2.49-5.28a4,4,0,0,1,.41-.7.65.65,0,0,1,1.14.49Z" transform="translate(-629.12 -197.24)"/><path class="cls-1" d="M668,223.6l.1,1.29.79-.31c.06.39,0,.8.36,1a9.51,9.51,0,0,0,1,.57,7.74,7.74,0,0,1-.79.11.69.69,0,0,0-.48,1.18c.22.24.48.44.71.67a6,6,0,0,1,.7.74c.23.32.13.55-.26.67a.92.92,0,0,1-1-.24c-.07-.07-.14-.14-.2-.22a1.82,1.82,0,0,0-1-.72c-.6-.16-.77-.53-.65-1.19a2.89,2.89,0,0,1,.17-.48,1.12,1.12,0,0,0-.18-1.2.72.72,0,0,1-.09-.9A3.4,3.4,0,0,1,668,223.6Z" transform="translate(-629.12 -197.24)"/><path class="cls-1" d="M673.55,237.13a1,1,0,0,1-.89-.25,7.12,7.12,0,0,1-2.58-3.81.73.73,0,0,0-.34-.51.43.43,0,0,1-.25-.51c-.2.13-.37.26-.55.36a.33.33,0,0,1-.46-.06.8.8,0,0,1-.15-.46.33.33,0,0,1,.36-.29,3.31,3.31,0,0,1,.67.07,1.45,1.45,0,0,0,.88-.06,1,1,0,0,0,.7-.93c0-.26,0-.26.28-.47a4.51,4.51,0,0,1,.41,1.59,1.08,1.08,0,0,1-.23.53,2.74,2.74,0,0,1-.46.5.83.83,0,0,0-.24.85,1.92,1.92,0,0,0,.5,1c.54.58,1.1,1.15,1.65,1.72Z" transform="translate(-629.12 -197.24)"/><path class="cls-1" d="M714.78,266.14v.8L714,267v2.34a5,5,0,0,1-1.19,0c-.1-.8,0-1.58-.07-2.37l-.75-.07v-.8A14.46,14.46,0,0,1,714.78,266.14Z" transform="translate(-629.12 -197.24)"/><path class="cls-1" d="M682.37,215.37l.42-.17a10.81,10.81,0,0,1,3-.57,12.84,12.84,0,0,1,2.64,0c.62.08,1.24.12,1.86.21a4.07,4.07,0,0,0,2.33-.33,1.2,1.2,0,0,1,1.2.07c-.16.1-.26.18-.38.24a5,5,0,0,1-2.88.58l-1.86-.23a1.36,1.36,0,0,1-.33-.08,5.14,5.14,0,0,0-2.9-.15c-.89.16-1.78.35-2.67.52-.12,0-.25,0-.37,0Z" transform="translate(-629.12 -197.24)"/><path class="cls-1" d="M707.27,287.65a.57.57,0,0,1-.58-.39.62.62,0,0,1,.17-.7,1.59,1.59,0,0,1,.32-.2c.34-.17.69-.34,1-.5a1.61,1.61,0,0,1,.45-.13.61.61,0,0,1,.46,1.08.46.46,0,0,1-.1.08l-1.54.71A1.06,1.06,0,0,1,707.27,287.65Z" transform="translate(-629.12 -197.24)"/><path class="cls-1" d="M652.66,287.71a.7.7,0,0,1-.68-.76.83.83,0,0,1,.81-.83.68.68,0,0,1,.7.74A.83.83,0,0,1,652.66,287.71Z" transform="translate(-629.12 -197.24)"/><path class="cls-1" d="M663,225.32a2.63,2.63,0,0,1,.84,2.56A10.18,10.18,0,0,1,663,225.32Z" transform="translate(-629.12 -197.24)"/><path class="cls-1" d="M663.09,224.42a3.07,3.07,0,0,1,1.39,1.27.3.3,0,0,1,.06.2.41.41,0,0,1-.14.23s-.18-.05-.2-.11A4.44,4.44,0,0,0,663.09,224.42Z" transform="translate(-629.12 -197.24)"/><path class="cls-1" d="M653.63,221.06a.68.68,0,0,1-.64-.17A.78.78,0,0,1,653.63,221.06Z" transform="translate(-629.12 -197.24)"/><path class="cls-1" d="M645.68,233.28a3.9,3.9,0,0,1-.52.53,2.52,2.52,0,0,0-1,1.8c0,.2-.08.39-.1.59a.26.26,0,0,1-.32.26c-.21,0-.42-.06-.65-.1a7.37,7.37,0,0,1-.44-4.1,2,2,0,0,1,.49-1,1.15,1.15,0,0,0,.29-1.32,4.48,4.48,0,0,1-.2-1.22,11.33,11.33,0,0,1,.08-2.85c.06-.33.21-.65.29-1a13.2,13.2,0,0,0,.29-1.37.92.92,0,0,1,1.16-.86,6.17,6.17,0,0,1,.78.23,1.42,1.42,0,0,0,1.34-.2l.6-.43,0-.1c-.61.07-1.23.16-1.84.22a3.31,3.31,0,0,1-.84,0c-.15,0-.28-.16-.42-.25l.41-.48a12.53,12.53,0,0,1,3.81,0,1.12,1.12,0,0,0-.33-1,2.23,2.23,0,0,0-1.83-.66,3.87,3.87,0,0,0-2.69,1,3.41,3.41,0,0,1-.33.27.75.75,0,0,1-.16.06,3,3,0,0,1,.66-1.37,3.55,3.55,0,0,1,1.76-1.15,2.08,2.08,0,0,1,1,0,9,9,0,0,1,1.41.49.78.78,0,0,1,.4.36,9,9,0,0,1,.49,1.4,1.57,1.57,0,0,1,0,.8c-.29.95-.6,1.9-1,2.83a2.86,2.86,0,0,1-.59.87,12.82,12.82,0,0,0-1.49,2c-.36.59-.8,1.14-1.22,1.7a6.68,6.68,0,0,0-1.45,3.14,4.9,4.9,0,0,0,0,2,1.24,1.24,0,0,0,.39.68,1.57,1.57,0,0,0-.06-.23,2.48,2.48,0,0,1,0-2.07,5.91,5.91,0,0,1,.73-1.34c.66-.86,1.37-1.67,2.06-2.5a.74.74,0,0,1,.15-.1,1,1,0,0,1,.05.8,4,4,0,0,1-.36.86c-.24.42-.53.81-.78,1.22a4.27,4.27,0,0,0-.37.72C645.11,232.88,645.15,233,645.68,233.28Z" transform="translate(-629.12 -197.24)"/></g></svg>