<svg id="Layer_1" data-name="Layer 1" xmlns="http://www.w3.org/2000/svg" viewBox="0 0 76.41 76.41"><defs><style>.cls-1{fill:#d1d3d4;}</style></defs><g id="UqiBni.tif"><path class="cls-1" d="M533.68,231.66h2.09l.4,0a36.86,36.86,0,0,1,7.47,1A38.26,38.26,0,0,1,572,261.39a36.71,36.71,0,0,1,.87,6.16c0,.43.05.85.08,1.28v2.05c0,.43-.06.85-.08,1.28a36.61,36.61,0,0,1-.62,5,36.09,36.09,0,0,1-3.09,9.28,37.9,37.9,0,0,1-23.61,20.06A35.51,35.51,0,0,1,537,308l-1.12.08h-2.13l-.34,0a38.16,38.16,0,0,1-25.2-10.71,37.81,37.81,0,0,1-10.71-19,36.33,36.33,0,0,1-.87-6.16c0-.41-.05-.83-.08-1.24v-2.13c0-.09,0-.17,0-.26.07-1,.12-1.94.21-2.9a34.91,34.91,0,0,1,1.07-5.71,38.32,38.32,0,0,1,25.56-26.53,37.12,37.12,0,0,1,9.1-1.64Zm-29.2,54.55.19-.14L529.1,267a.9.9,0,0,0,.37-.66c.18-1.4.38-2.8.57-4.2l.59-4.24.58-4.18.59-4.22.58-4.2.63-4.5.59-4.26c0-.35.1-.71.15-1.09a34.4,34.4,0,0,0-29.26,50.75Zm60.53-.09A34.29,34.29,0,0,0,564,251.74a33.91,33.91,0,0,0-15.32-13.36,34.25,34.25,0,0,0-12.82-2.91,1.56,1.56,0,0,0,0,.19l1,7.48q.47,3.38,1,6.76.41,3,.82,5.91t.79,5.61c.24,1.71.48,3.42.71,5.13a.5.5,0,0,0,.22.36L564.83,286Zm-59.37,2a34.3,34.3,0,0,0,58.26-.08l-.18-.08-28.83-11.68a.48.48,0,0,0-.4,0L505.81,288Z" transform="translate(-496.52 -231.66)"/></g></svg>