<!-- Generator: Adobe Illustrator 23.0.1, SVG Export Plug-In  -->
<svg version="1.1" xmlns="http://www.w3.org/2000/svg" xmlns:xlink="http://www.w3.org/1999/xlink" x="0px" y="0px"
	 width="310.895px" height="47.825px" viewBox="0 0 310.895 47.825" style="enable-background:new 0 0 310.895 47.825;"
	 xml:space="preserve">
<style type="text/css">
	.st0{fill:#F7E38F;}
	.st1{fill:#E2CA63;}
	.st2{fill:#DDAC4C;}
	.st3{fill:#C89329;}
	.st4{fill:#6D473C;}
	.st5{fill:#543429;}
</style>
<defs>
</defs>
<g>
	<g>
		<path class="st0" d="M6.7,8.028c0.087-0.107,0.176-0.211,0.265-0.311C6.876,7.817,6.788,7.921,6.7,8.028z"/>
		<path class="st0" d="M11.88,6.058c0.045,0.016,0.089,0.033,0.133,0.05C11.969,6.091,11.925,6.073,11.88,6.058z"/>
		<path class="st0" d="M12.546,6.353c0.038,0.021,0.075,0.046,0.113,0.068C12.621,6.399,12.584,6.374,12.546,6.353z"/>
		<path class="st1" d="M13.079,6.695c0.053,0.038,0.106,0.074,0.158,0.114C13.185,6.769,13.132,6.733,13.079,6.695z"/>
		<path class="st0" d="M8.516,6.412C8.56,6.386,8.605,6.361,8.65,6.337C8.605,6.361,8.56,6.386,8.516,6.412z"/>
		<path class="st0" d="M9.176,6.095C9.213,6.081,9.25,6.069,9.288,6.056C9.25,6.069,9.213,6.081,9.176,6.095z"/>
		<path class="st1" d="M13.664,7.174c0.07,0.065,0.14,0.131,0.209,0.2C13.804,7.306,13.735,7.239,13.664,7.174z"/>
		<path class="st0" d="M11.206,5.887c0.037,0.006,0.073,0.01,0.11,0.017C11.279,5.897,11.243,5.893,11.206,5.887z"/>
		<path class="st0" d="M7.884,6.844c0.05-0.039,0.099-0.079,0.149-0.116C7.983,6.765,7.933,6.805,7.884,6.844z"/>
		<path class="st0" d="M9.864,5.899c0.024-0.005,0.049-0.007,0.074-0.011C9.913,5.893,9.888,5.895,9.864,5.899z"/>
		<path class="st0" d="M7.465,7.202C7.402,7.261,7.34,7.323,7.278,7.385C7.34,7.323,7.402,7.261,7.465,7.202z"/>
		<path class="st0" d="M8.524,11.602c-1.182-0.365-2.224-0.947-3.097-1.668c0.008-0.015,0.017-0.029,0.025-0.044
			c-3.683,6.561-5.154,19.3-5.425,24.559c-0.373,7.231,3.013,13.429,10.553,13.376V11.991C9.902,11.942,9.212,11.814,8.524,11.602z"
			/>
		<path class="st1" d="M14.666,8.289c0.151,0.197,0.298,0.404,0.443,0.621C14.964,8.694,14.817,8.486,14.666,8.289z"/>
		<path class="st0" d="M6.152,8.761c0.096-0.139,0.192-0.274,0.291-0.405C6.345,8.487,6.248,8.622,6.152,8.761z"/>
		<path class="st0" d="M5.695,9.471c0.077-0.128,0.155-0.252,0.233-0.374C5.849,9.219,5.772,9.343,5.695,9.471z"/>
		<path class="st1" d="M14.203,7.725c0.096,0.108,0.191,0.221,0.285,0.337C14.394,7.946,14.3,7.833,14.203,7.725z"/>
		<path class="st1" d="M21.134,34.449c-0.283-5.495-1.877-19.155-5.934-25.402c0.287,0.442,0.561,0.92,0.824,1.431
			c-1.457,1.099-3.399,1.662-5.443,1.513v35.833C18.121,47.878,21.506,41.679,21.134,34.449z"/>
		<path class="st2" d="M8.033,6.728c0.158-0.116,0.32-0.221,0.483-0.316C8.352,6.507,8.191,6.611,8.033,6.728z"/>
		<path class="st2" d="M5.452,9.889c0.08-0.142,0.16-0.282,0.242-0.419C5.613,9.607,5.532,9.747,5.452,9.889z"/>
		<path class="st2" d="M7.465,7.202c0.137-0.128,0.277-0.247,0.419-0.358C7.742,6.956,7.602,7.074,7.465,7.202z"/>
		<path class="st2" d="M6.443,8.356C6.528,8.243,6.613,8.134,6.7,8.028C6.613,8.134,6.528,8.243,6.443,8.356z"/>
		<path class="st2" d="M6.965,7.717c0.103-0.115,0.207-0.226,0.313-0.332C7.172,7.491,7.068,7.602,6.965,7.717z"/>
		<path class="st2" d="M8.65,6.337c0.172-0.093,0.347-0.174,0.526-0.242C8.997,6.163,8.822,6.244,8.65,6.337z"/>
		<path class="st2" d="M5.928,9.097c0.074-0.115,0.149-0.226,0.224-0.336C6.077,8.871,6.002,8.982,5.928,9.097z"/>
		<path class="st2" d="M11.316,5.904c0.192,0.037,0.38,0.089,0.564,0.153C11.695,5.993,11.507,5.941,11.316,5.904z"/>
		<path class="st3" d="M14.488,8.062c0.06,0.074,0.119,0.15,0.178,0.227C14.607,8.212,14.548,8.136,14.488,8.062z"/>
		<path class="st3" d="M13.873,7.374c0.112,0.111,0.222,0.229,0.33,0.35C14.095,7.603,13.985,7.486,13.873,7.374z"/>
		<path class="st3" d="M13.237,6.809c0.145,0.112,0.287,0.236,0.427,0.365C13.524,7.045,13.382,6.921,13.237,6.809z"/>
		<path class="st3" d="M15.109,8.91C15.139,8.956,15.17,9,15.2,9.047C15.17,9,15.139,8.956,15.109,8.91z"/>
		<path class="st3" d="M12.659,6.421c0.142,0.083,0.282,0.175,0.42,0.274C12.941,6.596,12.801,6.504,12.659,6.421z"/>
		<path class="st2" d="M10.581,5.831c0.213,0,0.42,0.022,0.625,0.056C11.001,5.854,10.793,5.831,10.581,5.831z"/>
		<path class="st2" d="M9.938,5.889c0.211-0.035,0.424-0.057,0.643-0.057C10.362,5.831,10.148,5.853,9.938,5.889z"/>
		<path class="st2" d="M9.288,6.056c0.189-0.066,0.38-0.12,0.576-0.156C9.668,5.936,9.476,5.99,9.288,6.056z"/>
		<path class="st2" d="M12.013,6.108c0.181,0.07,0.359,0.15,0.533,0.245C12.372,6.257,12.194,6.178,12.013,6.108z"/>
		<path class="st2" d="M8.524,11.602c0.688,0.213,1.378,0.34,2.057,0.389V5.831c-0.219,0-0.432,0.022-0.643,0.057
			C9.913,5.893,9.888,5.895,9.864,5.899C9.668,5.936,9.476,5.99,9.288,6.056C9.25,6.069,9.213,6.081,9.176,6.095
			C8.997,6.163,8.822,6.244,8.65,6.337C8.605,6.361,8.56,6.386,8.516,6.412c-0.164,0.095-0.325,0.2-0.483,0.316
			c-0.05,0.037-0.099,0.077-0.149,0.116c-0.142,0.112-0.282,0.23-0.419,0.358C7.402,7.261,7.34,7.323,7.278,7.385
			c-0.106,0.106-0.21,0.217-0.313,0.332C6.876,7.817,6.788,7.921,6.7,8.028C6.613,8.134,6.528,8.243,6.443,8.356
			C6.345,8.487,6.248,8.622,6.152,8.761c-0.075,0.11-0.151,0.221-0.224,0.336C5.849,9.219,5.772,9.343,5.695,9.471
			C5.613,9.607,5.532,9.747,5.452,9.889C5.444,9.904,5.436,9.918,5.427,9.933C6.301,10.654,7.342,11.236,8.524,11.602z"/>
		<path class="st3" d="M16.024,10.477c-0.263-0.51-0.537-0.989-0.824-1.431C15.17,9,15.139,8.956,15.109,8.91
			c-0.144-0.217-0.292-0.424-0.443-0.621c-0.059-0.077-0.118-0.153-0.178-0.227c-0.094-0.116-0.189-0.229-0.285-0.337
			c-0.109-0.122-0.219-0.239-0.33-0.35c-0.069-0.069-0.139-0.135-0.209-0.2c-0.14-0.129-0.282-0.253-0.427-0.365
			c-0.052-0.04-0.105-0.076-0.158-0.114c-0.138-0.099-0.277-0.191-0.42-0.274c-0.038-0.022-0.075-0.047-0.113-0.068
			c-0.174-0.095-0.352-0.175-0.533-0.245c-0.044-0.017-0.088-0.035-0.133-0.05c-0.185-0.064-0.373-0.117-0.564-0.153
			c-0.036-0.007-0.073-0.012-0.11-0.017c-0.205-0.033-0.412-0.056-0.625-0.056v6.159C12.625,12.139,14.567,11.577,16.024,10.477z"/>
	</g>
	<g>
		<path class="st4" d="M51.45,0.069c-5.812,1.113-12.709,15.817-15.896,26.429c-3.227,10.272,1.889,17.813,13.668,20.454
			c0.831,0.186,1.628,0.344,2.393,0.471V0.047C51.56,0.056,51.505,0.057,51.45,0.069z"/>
		<path class="st5" d="M65.357,29.35c-1.87-15.998-7.955-30.275-13.742-29.303v47.377C63.025,49.331,67.168,44.612,65.357,29.35z"/>
	</g>
</g>
<g>
	<path class="st4" d="M186.168,1.56c1.426,3.032,2.859,6.062,4.278,9.097c2.045,4.373,4.079,8.751,6.121,13.125
		c0.095,0.203,0.228,0.389,0.343,0.582c0.066-0.021,0.132-0.043,0.198-0.064c0.058-1.358,0.075-2.719,0.181-4.074
		c0.3-3.829,0.556-7.664,0.996-11.477c0.178-1.545,0.688-3.077,1.228-4.549c0.72-1.964,2.449-2.801,4.094-2.164
		c1.376,0.533,1.885,1.807,1.236,3.126c-2.034,4.128-3.57,8.426-4.222,12.995c-0.724,5.076-0.686,10.113,1.321,14.946
		c0.382,0.921,1.006,1.757,1.604,2.569c1.339,1.816,0.875,2.972-1.375,3.25c-1.528,0.189-2.784-0.396-3.654-1.611
		c-2.118-2.955-4.236-5.914-6.223-8.957c-1.486-2.275-2.768-4.683-4.141-7.031c-0.133-0.228-0.268-0.454-0.402-0.681
		c-0.071,0.018-0.142,0.036-0.213,0.053c0,0.257-0.006,0.514,0.001,0.771c0.138,5.216-1.031,10.095-3.835,14.526
		c-0.454,0.718-1.069,1.374-1.731,1.907c-0.39,0.314-1.02,0.452-1.541,0.45c-0.703-0.003-1.144-0.449-1.219-1.213
		c-0.118-1.201,0.293-2.243,0.865-3.259c1.121-1.992,2.333-3.944,3.288-6.013c0.55-1.191,0.893-2.571,0.947-3.882
		c0.224-5.429-0.276-10.791-2.3-15.894c-0.885-2.231-0.006-3.901,1.384-5.463c0.404-0.455,1.026-0.716,1.548-1.066
		C185.353,1.56,185.761,1.56,186.168,1.56z"/>
	<path class="st4" d="M91.522,23.425c0.695-1.707,1.219-3.51,2.114-5.104c3.318-5.909,8.387-9.554,14.962-11.131
		c0.074-0.018,0.147-0.04,0.221-0.059c0.17-0.044,0.34-0.088,0.59-0.153c0-0.522,0.018-1.052-0.005-1.58
		c-0.027-0.634,0.237-1.078,0.801-1.346c1.194-0.568,2.457-0.695,3.717-0.372c1.274,0.327,1.635,0.947,1.528,2.235
		c-0.02,0.246-0.003,0.496-0.003,0.554c2.189,0.618,4.36,1.074,6.411,1.847c3.138,1.182,5.676,3.199,7.199,6.267
		c2.771,5.578,0.076,12.4-5.73,14.677c-1.447,0.568-2.925,0.855-4.473,0.775c-0.972-0.05-1.286-0.297-1.351-1.003
		c-0.078-0.847,0.245-1.458,1.099-1.551c1.954-0.212,2.791-1.558,3.321-3.15c2.004-6.02-1.362-11.174-6.715-12.902
		c-0.08,1.435-0.169,2.85-0.237,4.266c-0.279,5.774-0.552,11.548-0.827,17.322c-0.061,1.272-0.134,11.103-0.173,12.375
		c-0.016,0.515-0.187,0.843-0.739,0.85c-0.835,0.01-1.674,0.052-2.505-0.01c-0.7-0.053-1.011-0.454-1.017-1.23
		c-0.068-8.278-0.172-25.116-0.266-33.394c-0.003-0.273,0-0.546,0-0.872c-2.849,0.216-5.355,1.103-7.585,2.716
		c-3.349,2.421-5.452,5.7-6.538,9.661c-0.388,1.416-1.641,2.082-2.983,1.554c-0.307-0.121-0.546-0.414-0.816-0.628
		C91.522,23.833,91.522,23.629,91.522,23.425z"/>
	<path class="st4" d="M259.764,18.146c0.864-2.226,1.627-4.437,2.574-6.567c1.041-2.341,2.186-4.642,3.408-6.895
		c0.798-1.473,2.14-1.526,3.254-0.271c0.426,0.48,0.628,1.015,0.37,1.683c-1.99,5.142-2.103,10.469-1.604,15.873
		c0.401,4.338,1.661,8.357,4.061,12.01c0.156,0.238,0.211,0.627,0.148,0.909c-0.321,1.433-1.081,2.626-2.176,3.594
		c-0.547,0.483-1.098,0.598-1.763,0.082c-1.421-1.103-2.288-2.574-2.96-4.186c-1.276-3.06-1.822-6.288-2.151-9.562
		c-0.147-1.462-0.266-2.926-0.568-4.404c-0.27,1.338-0.544,2.676-0.808,4.016c-0.614,3.117-1.193,6.241-1.858,9.346
		c-0.143,0.67-0.512,1.332-0.918,1.895c-0.511,0.709-1.299,0.611-1.854-0.065c-0.849-1.034-0.697-2.305-0.869-3.494
		c-0.572-3.951-1.116-7.906-1.677-11.859c-0.038-0.269-0.133-0.531-0.198-0.783c-0.396,2.198-0.708,4.405-1.205,6.57
		c-0.752,3.28-1.749,6.488-3.78,9.25c-1.203,1.636-2.629,2.98-4.795,3.206c-0.866,0.09-1.922-0.323-2.21-0.9
		c-0.313-0.627,0.004-1.861,0.745-2.402c0.941-0.688,1.929-1.323,2.945-1.892c1.175-0.658,2.004-1.587,2.677-2.74
		c1.698-2.906,2.522-6.042,2.587-9.382c0.056-2.851,0.192-5.713,0.01-8.552c-0.12-1.88-0.713-3.735-1.142-5.589
		c-0.57-2.459-0.057-3.501,2.305-4.438c0.371-0.147,0.78-0.248,1.176-0.27c1.094-0.06,1.38,0.145,1.707,1.21
		c1.475,4.806,2.938,9.617,4.408,14.425C259.618,18.007,259.668,18.038,259.764,18.146z"/>
	<path class="st4" d="M300.13,22.138c0.154-0.219,0.314-0.433,0.461-0.657c0.928-1.414,1.928-2.787,3.434-3.618
		c0.638-0.352,1.431-0.576,2.157-0.583c1.67-0.016,2.567,1.056,2.423,2.721c-0.21,2.429-1.079,4.53-3.035,6.104
		c-0.17,0.137-0.281,0.557-0.202,0.763c0.984,2.571,2.17,5.039,3.847,7.247c0.507,0.667,0.996,1.354,1.42,2.075
		c0.513,0.872,0.264,1.546-0.723,1.689c-1.225,0.177-2.504,0.321-3.713,0.149c-0.709-0.101-1.537-0.708-1.945-1.328
		c-1.195-1.817-2.214-3.752-3.285-5.649c-0.306-0.542-0.557-1.116-0.996-1.645c-0.22,1.672-0.438,3.343-0.659,5.015
		c-0.14,1.059-0.306,2.116-0.416,3.179c-0.046,0.447-0.256,0.659-0.666,0.662c-0.937,0.006-1.876,0.022-2.809-0.042
		c-0.548-0.038-0.821-0.397-0.816-0.995c0.073-9.909,0.132-19.818,0.198-29.727c0.005-0.764-0.014-1.533,0.072-2.289
		c0.039-0.339,0.236-0.73,0.487-0.962c0.836-0.773,3.69-0.995,4.66-0.28c0.579,0.426,0.908,0.846,0.86,1.628
		c-0.341,5.489-0.638,10.98-0.949,16.471C300,22.089,300.065,22.114,300.13,22.138z M300.881,26.546
		c1.669-0.953,3.061-1.938,3.264-3.889c0.035-0.341-0.128-0.702-0.2-1.054c-0.393,0.124-0.901,0.133-1.159,0.392
		C301.58,23.207,301.106,24.752,300.881,26.546z"/>
	<path class="st4" d="M215.402,34.453c-0.55,0.827-0.927,1.494-1.4,2.086c-1.353,1.697-4.437,2.172-6.095,0.944
		c-1.309-0.969-1.705-2.385-1.668-3.914c0.054-2.189,0.206-4.376,0.315-6.564c0.139-2.798,0.297-5.595,0.399-8.395
		c0.021-0.591,0.187-0.953,0.78-0.954c1.141-0.001,2.283,0.031,3.423,0.092c0.576,0.031,0.79,0.358,0.776,0.978
		c-0.095,4.101-0.155,8.202-0.204,12.304c-0.007,0.58,0.047,1.176,0.178,1.739c0.186,0.797,0.795,1.028,1.422,0.5
		c0.408-0.343,0.751-0.84,0.953-1.337c0.874-2.151,1.053-4.444,1.236-6.726c0.183-2.285,0.314-4.574,0.448-6.862
		c0.024-0.407,0.102-0.721,0.568-0.727c1.14-0.012,2.281-0.037,3.419,0.011c0.542,0.023,0.823,0.354,0.821,0.97
		c-0.018,5.962-0.019,11.925-0.001,17.887c0.003,0.823-0.365,1.284-1.103,1.525c-1.142,0.372-2.257,0.279-3.348-0.198
		c-0.656-0.286-0.98-0.759-0.927-1.501C215.433,35.767,215.402,35.215,215.402,34.453z"/>
	<path class="st4" d="M146.814,21.307c0.368-0.606,0.657-1.104,0.966-1.588c1.311-2.053,3.475-2.388,5.436-2.032
		c1.403,0.255,2.593,1.807,2.678,3.452c0.076,1.47,0.014,2.951-0.054,4.423c-0.177,3.84-0.413,7.677-0.57,11.518
		c-0.028,0.693-0.275,1.005-0.913,1c-1.091-0.01-2.182-0.044-3.271-0.108c-0.616-0.036-0.845-0.403-0.83-1.035
		c0.091-3.895,0.169-7.791,0.212-11.687c0.009-0.829-0.096-1.669-0.242-2.487c-0.113-0.632-0.648-0.772-1.099-0.422
		c-0.461,0.358-0.982,0.84-1.129,1.365c-0.461,1.656-0.897,3.343-1.089,5.046c-0.321,2.856-0.455,5.733-0.645,8.603
		c-0.03,0.456-0.165,0.745-0.645,0.75c-1.088,0.012-2.178,0.031-3.265-0.002c-0.59-0.018-0.872-0.334-0.872-0.989
		c0-5.934-0.03-11.868-0.046-17.801c-0.003-0.957,0.277-1.332,1.173-1.627c1.09-0.358,2.157-0.235,3.21,0.164
		c0.707,0.268,1.036,0.767,1.001,1.53C146.793,19.963,146.814,20.548,146.814,21.307z"/>
	<path class="st4" d="M290.562,21.109c-0.21,5.291-0.43,10.582-0.617,15.874c-0.024,0.686-0.249,1.073-0.946,1.066
		c-0.989-0.01-1.979-0.032-2.966-0.095c-0.631-0.04-0.902-0.41-0.912-1.07c-0.039-2.495-0.17-4.988-0.177-7.482
		c-0.022-7.969,0.002-15.938-0.01-23.908c-0.001-0.732,0.27-1.216,0.931-1.498c1.235-0.528,2.521-0.616,3.809-0.307
		c1.11,0.266,1.421,0.71,1.389,1.851c-0.129,4.631-0.279,9.261-0.417,13.892c-0.017,0.559-0.002,1.12-0.002,1.68
		C290.617,21.109,290.59,21.109,290.562,21.109z"/>
	<path class="st4" d="M164.351,28.379c0.046,2.221,0.196,3.912,1.174,5.404c1.407,2.146,3.633,2.561,5.691,1.066
		c0.35-0.254,0.682-0.532,1.034-0.783c0.41-0.292,0.924-0.431,1.23,0.002c0.222,0.314,0.249,0.831,0.21,1.242
		c-0.025,0.258-0.29,0.548-0.523,0.722c-2.69,2.006-5.637,3.146-9.043,2.41c-2.118-0.457-3.659-1.756-4.315-3.81
		c-1.257-3.934-1.482-7.906,0.391-11.736c1.648-3.37,4.362-5.191,8.179-5.288c1.521-0.039,2.711,0.547,3.675,1.672
		c1.982,2.314,2.319,5.606,0.817,7.944c-0.805,1.254-1.384,1.542-2.732,0.917c-1.303-0.603-2.505-1.431-3.723-2.206
		c-0.444-0.282-0.428-1.03-0.056-1.504c0.393-0.501,0.722-0.221,1.097,0.053c0.623,0.456,1.326,0.935,2.1,0.542
		c0.717-0.365,0.768-1.185,0.713-1.89c-0.055-0.717-0.145-1.492-0.465-2.114c-0.753-1.461-2.311-1.563-3.338-0.286
		c-0.968,1.203-1.395,2.652-1.665,4.13C164.558,26.188,164.454,27.536,164.351,28.379z"/>
	<path class="st4" d="M225.138,18.634c-0.738-0.199-1.437-0.334-2.096-0.578c-0.858-0.318-1.135-0.896-0.871-1.598
		c0.268-0.714,0.802-0.937,1.678-0.709c0.412,0.107,0.827,0.203,1.344,0.329c0-0.785-0.056-1.504,0.023-2.206
		c0.041-0.366,0.236-0.808,0.511-1.038c1.173-0.986,3.879-0.933,5.096,0.011c0.386,0.299,0.512,0.622,0.456,1.111
		c-0.135,1.184-0.208,2.374-0.308,3.587c0.674,0.183,1.283,0.348,1.891,0.514c0.692,0.189,0.991,0.66,0.85,1.367
		c-0.137,0.69-0.598,0.9-1.244,0.8c-0.522-0.081-1.042-0.177-1.582-0.269c-0.124,3.049-0.242,6.052-0.371,9.054
		c-0.117,2.698-0.263,5.394-0.359,8.092c-0.023,0.644-0.293,0.955-0.898,0.956c-0.914,0.001-1.829-0.025-2.741-0.073
		c-0.726-0.039-1.043-0.401-1.055-1.184c-0.085-5.859-0.21-11.717-0.322-17.576C225.135,19.023,225.138,18.823,225.138,18.634z"/>
	<path class="st4" d="M137.015,28.25c-0.108,2.949-0.236,5.897-0.307,8.847c-0.016,0.659-0.277,0.96-0.877,0.956
		c-0.988-0.007-1.978-0.037-2.962-0.117c-0.544-0.044-0.82-0.373-0.828-0.979c-0.08-5.85-0.175-11.701-0.286-17.551
		c-0.015-0.77,0.311-1.167,1.036-1.355c1.241-0.322,2.47-0.277,3.688,0.066c0.62,0.175,0.957,0.562,0.92,1.288
		c-0.148,2.947-0.254,5.896-0.375,8.845C137.021,28.25,137.018,28.25,137.015,28.25z"/>
	<path class="st4" d="M279.983,28.149c-0.11,3-0.234,5.999-0.317,8.999c-0.016,0.57-0.216,0.89-0.772,0.887
		c-1.038-0.007-2.078-0.027-3.112-0.11c-0.507-0.04-0.768-0.374-0.776-0.944c-0.081-5.876-0.178-11.752-0.286-17.627
		c-0.013-0.7,0.284-1.097,0.937-1.277c1.284-0.355,2.565-0.321,3.833,0.059c0.594,0.178,0.906,0.558,0.872,1.244
		c-0.143,2.922-0.25,5.845-0.37,8.768C279.989,28.149,279.986,28.149,279.983,28.149z"/>
	<path class="st4" d="M137.593,12.283c0.053,2.954-2.58,3.353-4.253,2.653c-0.87-0.364-1.178-1.185-1.259-2.04
		c-0.059-0.622-0.01-1.277,0.125-1.888c0.321-1.453,1.215-2.04,2.881-2.003c1.275,0.029,2.042,0.704,2.329,2.075
		C137.499,11.476,137.535,11.881,137.593,12.283z"/>
	<path class="st4" d="M280.556,12.291c-0.014,2.382-2.113,3.697-4.264,2.649c-0.85-0.414-1.17-1.198-1.249-2.053
		c-0.057-0.622-0.008-1.277,0.128-1.888c0.323-1.448,1.221-2.036,2.887-1.994c1.273,0.032,2.035,0.707,2.323,2.083
		C280.463,11.484,280.499,11.89,280.556,12.291z"/>
</g>
</svg>