<!-- Generator: Adobe Illustrator 23.0.1, SVG Export Plug-In  -->
<svg version="1.1" xmlns="http://www.w3.org/2000/svg" xmlns:xlink="http://www.w3.org/1999/xlink" x="0px" y="0px"
	 width="794.324px" height="403.287px" viewBox="0 0 794.324 403.287" style="enable-background:new 0 0 794.324 403.287;"
	 xml:space="preserve">
<style type="text/css">
	.st0{fill:#912020;}
	.st1{fill:#CE763A;}
	.st2{fill:#A3C645;}
	.st3{fill:#F4DE7F;}
	.st4{fill:#D87544;}
</style>
<defs>
</defs>
<g>
	<g>
		<g>
			<path class="st0" d="M0,90.988c0.086-1.275,0.18-2.549,0.257-3.825c0.361-6.033,1.147-12,2.818-17.823
				c1.451-5.054,3.514-9.809,6.975-13.855c0.212-0.248,0.516-0.45,0.636-0.734c0.134-0.317,0.218-0.741,0.111-1.044
				c-0.074-0.211-0.495-0.382-0.781-0.418c-0.522-0.066-1.058-0.019-1.65-0.019c0.21-1.346,0.398-2.607,0.618-3.862
				c0.022-0.123,0.23-0.262,0.376-0.301c0.196-0.053,0.416-0.015,0.626-0.016c4.808-0.035,9.622,0.21,14.405-0.629
				c1.973-0.346,3.959-0.081,5.775,0.884c2.729,1.45,4.461,4.754,3.989,7.869c-0.624,4.117-1.36,8.217-2.064,12.322
				c-1.017,5.94-2.051,11.877-3.071,17.816c-0.196,1.143,0.266,1.698,1.404,1.519c0.86-0.135,1.712-0.431,2.52-0.771
				c0.919-0.386,1.769-0.934,2.679-1.345c0.59-0.266,0.768-0.694,0.87-1.287c1.032-6.055,2.089-12.106,3.138-18.158
				c0.036-0.206,0.073-0.414,0.081-0.622c0.028-0.741-0.187-0.971-0.92-0.994c-0.256-0.008-0.512-0.002-0.769-0.002
				c-0.254,0-0.508,0-0.87,0c0.245-1.391,0.479-2.721,0.717-4.071c3.647,0,7.227,0,10.869,0c-0.089,0.573-0.173,1.108-0.276,1.773
				c3.141-1.99,6.522-2.509,10.121-2.518c-0.345,1.994-0.68,3.928-1.009,5.829c-1.466,0.128-2.883,0.202-4.286,0.386
				c-1.86,0.243-3.65,0.73-5.19,1.885c-0.464,0.348-0.751,0.756-0.854,1.364c-1.295,7.639-2.617,15.273-3.934,22.908
				c-0.011,0.065-0.05,0.125-0.089,0.218c-2.692,0-5.385,0-8.122,0c0.197-1.168,0.389-2.307,0.617-3.66
				c-0.327,0.278-0.507,0.432-0.687,0.584c-2,1.685-4.175,3.08-6.778,3.571c-1.099,0.207-2.281,0.255-3.384,0.094
				c-2.403-0.349-3.891-1.965-4.018-4.39c-0.07-1.329,0.121-2.688,0.323-4.013c0.386-2.529,0.867-5.044,1.304-7.566
				c0.035-0.2,0.032-0.406,0.055-0.728c-1.627,0.118-3.204,0.193-4.773,0.355c-2.737,0.283-5.428,0.794-8.022,1.76
				c-0.485,0.181-0.692,0.42-0.717,0.936c-0.202,4.046-0.426,8.09-0.64,12.135c-0.016,0.295-0.002,0.592-0.002,0.958
				c-2.848,0-5.614,0-8.379,0C0,92.665,0,91.826,0,90.988z M23.457,71.801c0.051-0.168,0.106-0.298,0.129-0.434
				c0.906-5.274,1.813-10.547,2.708-15.823c0.222-1.311-0.357-2.089-1.68-2.287c-0.365-0.055-0.746-0.065-1.114-0.035
				c-2,0.164-3.602,1.174-5.052,2.462c-1.872,1.663-3.244,3.705-4.386,5.913c-1.666,3.222-2.754,6.643-3.565,10.204
				C14.832,71.801,19.114,71.801,23.457,71.801z"/>
			<path class="st0" d="M134.135,46.726c-0.285,1.663-0.566,3.307-0.849,4.95c-1.325,7.682-2.649,15.364-3.977,23.045
				c-0.714,4.127-1.434,8.253-2.153,12.38c-0.222,1.275,0.194,1.763,1.479,1.649c0.482-0.043,0.98-0.135,1.423-0.32
				c1.307-0.546,2.59-1.152,3.885-1.728c0.32-0.142,0.419-0.304,0.33-0.697c-1.98-8.668,0.262-16.08,6.813-22.084
				c2.377-2.179,5.267-3.305,8.585-3.005c1.668,0.151,3.153,0.765,4.494,1.752c0.148,0.109,0.297,0.216,0.535,0.39
				c0.253-1.449,0.498-2.828,0.734-4.208c0.366-2.133,0.728-4.266,1.088-6.4c0.042-0.252,0.074-0.508,0.081-0.763
				c0.016-0.538-0.238-0.828-0.798-0.822c-0.557,0.006-1.113,0.001-1.764,0.001c0.246-1.42,0.481-2.779,0.719-4.158
				c3.641,0,7.245,0,10.9,0c-0.399,2.327-0.788,4.617-1.183,6.906c-1.33,7.705-2.66,15.409-3.992,23.113
				c-0.583,3.37-1.164,6.741-1.764,10.109c-0.332,1.862,0.251,2.518,2.041,1.882c1.804-0.641,3.493-1.608,5.225-2.446
				c0.348-0.169,0.665-0.402,1.077-0.654c-0.177,1.565-0.336,2.926-1.603,4.02c-2.122,1.832-4.306,3.519-7.066,4.204
				c-1.111,0.276-2.303,0.357-3.452,0.325c-1.719-0.047-2.724-0.732-4.018-2.404c-6.045,4.32-12.374,2.742-15.55-2.917
				c-0.216,0.175-0.425,0.338-0.628,0.507c-2.362,1.965-4.881,3.657-7.883,4.499c-1.481,0.416-2.979,0.54-4.482,0.135
				c-2.166-0.583-3.548-2.298-3.519-4.706c0.019-1.568,0.326-3.14,0.584-4.697c0.601-3.627,1.25-7.246,1.878-10.868
				c0.012-0.067,0.001-0.138,0.001-0.277c-0.135,0.085-0.247,0.133-0.333,0.211c-1.285,1.166-2.691,2.139-4.28,2.858
				c-0.244,0.11-0.466,0.505-0.504,0.795c-0.594,4.419-2.341,8.314-5.304,11.638c-2.568,2.881-5.66,4.913-9.571,5.419
				c-4.42,0.573-7.929-1.035-10.571-4.594c-0.135-0.182-0.262-0.369-0.381-0.536c-1.06,0.852-2.055,1.73-3.129,2.5
				c-1.979,1.419-4.16,2.359-6.625,2.552c-2.398,0.188-4.411-0.776-5.309-2.599c-0.675-1.371-0.73-2.823-0.475-4.3
				c1.128-6.535,2.263-13.069,3.39-19.604c0.206-1.197-0.365-1.792-1.581-1.612c-2.047,0.302-3.797,1.344-5.592,2.281
				c-0.569,0.297-0.821,0.676-0.931,1.326c-1.317,7.801-2.673,15.596-4.02,23.392c-0.015,0.089-0.045,0.175-0.077,0.299
				c-2.704,0-5.396,0-8.149,0c0.339-1.981,0.671-3.945,1.013-5.907c1.185-6.809,2.374-13.616,3.558-20.425
				c0.188-1.081-0.047-1.358-1.124-1.365c-0.437-0.003-0.874,0-1.398,0c0.249-1.43,0.483-2.772,0.719-4.125
				c3.658,0,7.258,0,10.879,0c-0.096,0.618-0.184,1.187-0.265,1.708c1.56-0.591,3.071-1.238,4.63-1.735
				c1.897-0.604,3.863-0.864,5.86-0.706c2.971,0.235,4.774,2.084,4.737,5.068c-0.019,1.522-0.34,3.046-0.596,4.557
				c-0.932,5.506-1.895,11.008-2.842,16.511c-0.043,0.252-0.073,0.509-0.073,0.764c0,0.721,0.344,1.119,1.061,1.08
				c0.595-0.032,1.214-0.128,1.765-0.343c1.143-0.446,2.248-0.99,3.356-1.489c-0.29-1.134-0.615-2.151-0.804-3.193
				c-0.761-4.194-0.084-8.217,1.681-12.049c1.914-4.154,4.739-7.534,8.921-9.564c3.913-1.899,7.856-2.054,11.646,0.36
				c2.543,1.619,4.133,4.008,4.987,6.858c0.447,1.489,0.892,2.467,3.211,1.423c1.07-0.482,2.042-1.198,3.015-1.87
				c0.243-0.168,0.401-0.564,0.457-0.88c0.939-5.34,1.856-10.683,2.778-16.026c0.163-0.943-0.084-1.242-1.038-1.248
				c-0.463-0.003-0.925,0-1.49,0c0.24-1.412,0.468-2.752,0.704-4.136C126.866,46.726,130.461,46.726,134.135,46.726z
				 M142.012,79.178c0.071,2.746,0.466,5.323,2.069,7.562c1.256,1.756,3.126,2.52,4.965,2.099c0.828-0.19,1.31-0.499,1.473-1.495
				c1.116-6.819,2.329-13.622,3.491-20.433c0.039-0.229-0.05-0.577-0.212-0.728c-0.894-0.83-1.975-1.218-3.196-1.129
				c-2.115,0.154-3.631,1.365-4.877,2.937C143.113,71.283,142.144,75.134,142.012,79.178z M96.746,81.65
				c0,0.605-0.044,1.213,0.008,1.814c0.139,1.604,0.366,3.197,1.255,4.594c0.878,1.38,2.222,1.711,3.51,0.713
				c0.829-0.642,1.613-1.445,2.154-2.336c2.953-4.86,4.032-10.195,3.743-15.831c-0.078-1.517-0.356-3.007-1.135-4.347
				c-0.936-1.611-2.348-1.942-3.785-0.774c-0.762,0.619-1.46,1.389-1.984,2.218C97.828,71.953,96.871,76.699,96.746,81.65z"/>
			<path class="st0" d="M185.326,78.592c-1.558-1.897-3.061-3.702-4.534-5.532c-0.715-0.888-1.408-1.797-2.051-2.737
				c-1.636-2.39-1.031-5.462,1.337-7.148c1.982-1.411,4.229-2.027,6.602-2.212c4.685-0.365,9.29,0.302,13.874,1.175
				c0.088,0.017,0.17,0.061,0.306,0.112c-0.358,1.901-0.712,3.786-1.043,5.541c-2.497-0.642-4.91-1.322-7.353-1.862
				c-1.053-0.233-2.174-0.262-3.259-0.227c-1.453,0.047-2.051,0.972-1.416,2.278c0.554,1.14,1.272,2.221,2.046,3.23
				c3.299,4.307,6.648,8.576,9.972,12.863c2.012,2.595,1.334,6.108-1.518,7.729c-2.133,1.213-4.48,1.802-6.88,2.183
				c-3.337,0.53-6.676,0.636-9.983-0.205c-1.975-0.503-3.767-1.341-5.031-3.044c-1.365-1.839-1.912-5.677,0.79-7.915
				c1.748-1.448,3.725-2.447,5.792-3.309C183.724,79.201,184.484,78.921,185.326,78.592z M188.058,82.15
				c-1.197,0.737-2.407,1.316-3.416,2.139c-1.882,1.536-1.684,3.564,0.36,4.879c1.903,1.225,3.958,1.189,6.044,0.656
				c1.24-0.317,1.584-1.137,0.87-2.205C190.72,85.825,189.434,84.09,188.058,82.15z"/>
			<path class="st0" d="M175.21,46.739c-0.207,4.761-1.045,9.165-4.225,12.834c-0.643-0.483-1.235-0.894-1.781-1.359
				c-0.148-0.127-0.25-0.434-0.216-0.631c0.594-3.463,1.208-6.922,1.838-10.378c0.031-0.172,0.242-0.441,0.374-0.444
				C172.5,46.726,173.8,46.739,175.21,46.739z"/>
		</g>
	</g>
	<g>
		<g>
			<path class="st0" d="M50.937,143.495c0.16-0.842,0.329-1.682,0.479-2.526c0.706-3.973,1.407-7.947,2.11-11.921
				c0.698-3.951,1.395-7.903,2.094-11.854c0.495-2.8,0.989-5.6,1.49-8.398c0.131-0.73-0.09-1.016-0.824-1.02
				c-0.456-0.002-0.911,0-1.405,0c0.202-1.269,0.397-2.487,0.592-3.714c3.245,0,6.456,0,9.711,0
				c-0.083,0.576-0.164,1.136-0.253,1.753c0.206-0.116,0.375-0.217,0.549-0.309c2.546-1.356,5.26-2.076,8.146-2.085
				c0.6-0.002,1.216,0.087,1.799,0.235c1.311,0.331,2.006,0.978,2.799,2.478c0.106-0.054,0.214-0.106,0.32-0.163
				c2.397-1.289,4.929-2.164,7.641-2.473c1.212-0.138,2.431-0.188,3.613,0.211c1.695,0.571,2.534,1.826,2.813,3.536
				c0.184,1.126-0.046,2.215-0.242,3.31c-0.749,4.175-1.495,8.351-2.242,12.526c-0.747,4.176-1.494,8.351-2.238,12.527
				c-0.161,0.903-0.331,1.805-0.464,2.712c-0.127,0.864,0.338,1.373,1.193,1.202c0.813-0.162,1.621-0.415,2.383-0.741
				c0.872-0.373,1.695-0.861,2.526-1.323c0.134-0.074,0.258-0.263,0.286-0.417c0.434-2.415,0.85-4.833,1.271-7.25
				c0.563-3.23,1.127-6.46,1.69-9.69c0.02-0.113,0.038-0.227,0.045-0.341c0.04-0.637-0.165-0.854-0.805-0.855
				c-0.481-0.001-0.962,0-1.486,0c0.216-1.244,0.426-2.458,0.641-3.697c3.233,0,6.461,0,9.718,0
				c-0.156,0.909-0.307,1.801-0.461,2.692c-0.68,3.92-1.359,7.84-2.043,11.758c-0.487,2.79-0.982,5.578-1.473,8.367
				c-0.002,0.011-0.006,0.022-0.008,0.033c-0.188,1.081,0.241,1.601,1.326,1.423c0.769-0.126,1.527-0.404,2.249-0.711
				c0.809-0.345,1.569-0.805,2.356-1.204c0.217-0.11,0.308-0.268,0.348-0.503c0.486-2.848,0.98-5.695,1.472-8.541
				c0.656-3.796,1.313-7.592,1.97-11.387c0.602-3.479,1.205-6.959,1.805-10.438c0.021-0.124,0.027-0.252,0.025-0.377
				c-0.008-0.485-0.211-0.694-0.693-0.699c-0.526-0.006-1.051-0.001-1.602-0.001c0.219-1.257,0.431-2.475,0.645-3.706
				c3.237,0,6.458,0,9.716,0c-0.134,0.784-0.263,1.549-0.395,2.314c-0.631,3.661-1.263,7.321-1.894,10.982
				c-0.653,3.785-1.302,7.57-1.959,11.354c-0.667,3.84-1.343,7.679-2.011,11.52c-0.165,0.948,0.243,1.409,1.209,1.34
				c1.07-0.077,2.046-0.495,3.004-0.935c0.812-0.373,1.606-0.786,2.393-1.208c0.143-0.077,0.284-0.273,0.312-0.434
				c0.832-4.743,1.651-9.488,2.469-14.233c0.838-4.858,1.672-9.717,2.508-14.575c0.078-0.452,0.161-0.903,0.236-1.355
				c0.021-0.124,0.032-0.251,0.03-0.376c-0.007-0.518-0.218-0.734-0.733-0.741c-0.503-0.007-1.006-0.001-1.565-0.001
				c0.218-1.24,0.429-2.44,0.642-3.652c3.243,0,6.465,0,9.72,0c-1.273,7.353-2.543,14.688-3.812,22.023
				c0.023,0.015,0.046,0.03,0.069,0.045c0.501-0.396,1.009-0.782,1.5-1.189c2.293-1.904,4.309-4.057,5.878-6.606
				c0.042-0.068,0.101-0.132,0.124-0.206c0.218-0.69,0.686-0.83,1.382-0.813c2.122,0.053,4.247,0.019,6.37,0.019
				c0.125,0,0.25,0,0.463,0c-0.2,0.656-0.354,1.275-0.575,1.868c-0.725,1.945-1.908,3.598-3.326,5.093
				c-1.309,1.38-2.778,2.571-4.346,3.642c-0.206,0.141-0.25,0.259-0.165,0.501c1.35,3.837,2.688,7.678,4.032,11.517
				c0.493,1.407,1.625,1.983,3.125,1.586c1.337-0.354,2.457-1.111,3.535-1.938c0.417-0.32,0.812-0.67,1.285-1.064
				c-0.099,0.586-0.186,1.104-0.275,1.623c-0.012,0.068-0.037,0.134-0.04,0.202c-0.032,0.634-0.303,1.142-0.727,1.617
				c-1.623,1.819-3.473,3.311-5.833,4.051c-1.424,0.447-2.88,0.617-4.326,0.097c-1.338-0.481-2.281-1.411-2.762-2.746
				c-1.369-3.794-2.709-7.597-4.061-11.397c-0.05-0.14-0.102-0.278-0.166-0.453c-0.717,0.307-1.422,0.602-2.117,0.918
				c-0.089,0.04-0.163,0.188-0.182,0.296c-0.723,4.215-1.44,8.431-2.157,12.646c-0.021,0.123-0.051,0.244-0.079,0.378
				c-2.426,0-4.844,0-7.278,0c0.185-1.079,0.367-2.139,0.564-3.287c-0.214,0.166-0.363,0.284-0.515,0.399
				c-1.757,1.327-3.609,2.481-5.735,3.134c-1.188,0.365-2.397,0.52-3.635,0.337c-2.147-0.318-3.395-1.547-3.764-3.697
				c-0.011-0.065-0.022-0.131-0.043-0.262c-0.151,0.134-0.266,0.236-0.381,0.339c-1.637,1.454-3.426,2.654-5.542,3.301
				c-1.189,0.364-2.402,0.5-3.638,0.318c-2.152-0.317-3.428-1.588-3.762-3.737c-0.01-0.065-0.022-0.131-0.046-0.266
				c-0.193,0.174-0.349,0.316-0.508,0.456c-1.526,1.347-3.186,2.48-5.125,3.151c-1.501,0.52-3.033,0.725-4.599,0.321
				c-1.807-0.467-2.805-1.673-3.153-3.474c-0.214-1.108-0.036-2.189,0.16-3.277c0.78-4.321,1.547-8.644,2.322-12.966
				c0.764-4.266,1.53-8.531,2.296-12.796c0.12-0.666,0.247-1.33,0.359-1.997c0.032-0.191,0.037-0.389,0.027-0.583
				c-0.024-0.484-0.289-0.785-0.768-0.876c-0.719-0.136-1.39,0.092-2.049,0.318c-1.427,0.489-2.747,1.207-4.045,1.965
				c-0.101,0.059-0.197,0.198-0.218,0.313c-0.722,4.017-1.434,8.036-2.147,12.054c-0.722,4.064-1.443,8.127-2.166,12.191
				c-0.494,2.777-0.989,5.553-1.484,8.329c-0.018,0.099-0.043,0.197-0.065,0.3c-2.422,0-4.819,0-7.268,0
				c0.088-0.515,0.169-1.017,0.258-1.517c0.913-5.112,1.824-10.225,2.742-15.337c1.017-5.664,2.038-11.328,3.064-16.991
				c0.233-1.285-0.262-1.861-1.543-1.608c-0.857,0.169-1.704,0.462-2.506,0.814c-0.973,0.428-1.897,0.969-2.832,1.479
				c-0.117,0.064-0.228,0.228-0.252,0.361c-1.182,6.66-2.354,13.322-3.527,19.983c-0.736,4.178-1.472,8.355-2.209,12.532
				c-0.018,0.101-0.045,0.201-0.082,0.36c-2.418,0-4.846,0-7.273,0C50.937,143.633,50.937,143.564,50.937,143.495z"/>
			<path class="st0" d="M101.869,113.766c-1.956-0.002-3.189-1.636-2.69-3.564c0.415-1.603,1.842-2.854,3.484-3.057
				c1.962-0.241,3.448,1.377,3.091,3.368C105.437,112.288,103.669,113.768,101.869,113.766z"/>
		</g>
	</g>
	<path class="st0" d="M100.482,181.945c-10.479,0-20.753-1.767-30.535-5.252c-9.454-3.368-18.244-8.261-26.126-14.544
		c-15.768-12.569-27.048-30.221-31.763-49.706c-0.204-0.843,0.314-1.692,1.157-1.896c0.844-0.203,1.692,0.315,1.896,1.157
		c4.551,18.811,15.443,35.853,30.668,47.989c15.685,12.503,34.601,19.111,54.704,19.111c20.174,0,39.877-7.009,55.479-19.736
		c15.386-12.551,26.165-30.084,30.353-49.371c0.184-0.847,1.02-1.385,1.868-1.201c0.848,0.184,1.386,1.02,1.202,1.868
		c-4.338,19.979-15.502,38.14-31.437,51.138C141.785,174.685,121.377,181.945,100.482,181.945z"/>
	<path class="st0" d="M26.34,42.569c-0.302,0-0.608-0.087-0.878-0.269c-0.719-0.486-0.908-1.462-0.422-2.18
		C42.006,14.998,70.208,0,100.482,0c27.779,0,53.678,12.452,71.058,34.163c0.542,0.677,0.432,1.666-0.245,2.207
		c-0.677,0.543-1.665,0.432-2.207-0.244c-16.781-20.962-41.786-32.985-68.606-32.985c-29.228,0-56.458,14.481-72.84,38.736
		C27.339,42.326,26.844,42.569,26.34,42.569z"/>
</g>
<g>
	<g>
		<g>
			<path class="st1" d="M297.698,90.988c0.086-1.275,0.18-2.549,0.257-3.825c0.361-6.033,1.147-12,2.818-17.823
				c1.451-5.054,3.514-9.809,6.975-13.855c0.212-0.248,0.516-0.45,0.636-0.734c0.134-0.317,0.218-0.741,0.111-1.044
				c-0.074-0.211-0.495-0.382-0.781-0.418c-0.522-0.066-1.058-0.019-1.65-0.019c0.21-1.346,0.398-2.607,0.618-3.862
				c0.022-0.123,0.23-0.262,0.376-0.301c0.196-0.053,0.416-0.015,0.626-0.016c4.808-0.035,9.622,0.21,14.405-0.629
				c1.973-0.346,3.959-0.081,5.775,0.884c2.729,1.45,4.461,4.754,3.989,7.869c-0.624,4.117-1.361,8.217-2.064,12.322
				c-1.017,5.94-2.051,11.877-3.071,17.816c-0.196,1.143,0.266,1.698,1.404,1.519c0.86-0.135,1.712-0.431,2.52-0.771
				c0.919-0.386,1.769-0.934,2.679-1.345c0.59-0.266,0.768-0.694,0.87-1.287c1.032-6.055,2.089-12.106,3.138-18.158
				c0.036-0.206,0.073-0.414,0.081-0.622c0.028-0.741-0.187-0.971-0.92-0.994c-0.256-0.008-0.512-0.002-0.769-0.002
				c-0.254,0-0.508,0-0.87,0c0.245-1.391,0.479-2.721,0.717-4.071c3.647,0,7.227,0,10.868,0c-0.089,0.573-0.173,1.108-0.276,1.773
				c3.141-1.99,6.522-2.509,10.121-2.518c-0.345,1.994-0.68,3.928-1.009,5.829c-1.466,0.128-2.883,0.202-4.286,0.386
				c-1.86,0.243-3.65,0.73-5.19,1.885c-0.464,0.348-0.751,0.756-0.854,1.364c-1.295,7.639-2.617,15.273-3.934,22.908
				c-0.011,0.065-0.05,0.125-0.089,0.218c-2.692,0-5.385,0-8.122,0c0.197-1.168,0.389-2.307,0.617-3.66
				c-0.327,0.278-0.507,0.432-0.687,0.584c-2,1.685-4.175,3.08-6.778,3.571c-1.099,0.207-2.281,0.255-3.384,0.094
				c-2.403-0.349-3.891-1.965-4.018-4.39c-0.07-1.329,0.121-2.688,0.323-4.013c0.386-2.529,0.867-5.044,1.304-7.566
				c0.035-0.2,0.032-0.406,0.055-0.728c-1.627,0.118-3.204,0.193-4.773,0.355c-2.737,0.283-5.428,0.794-8.022,1.76
				c-0.485,0.181-0.692,0.42-0.717,0.936c-0.202,4.046-0.426,8.09-0.64,12.135c-0.016,0.295-0.002,0.592-0.002,0.958
				c-2.848,0-5.614,0-8.379,0C297.698,92.665,297.698,91.826,297.698,90.988z M321.155,71.801c0.051-0.168,0.106-0.298,0.129-0.434
				c0.906-5.274,1.813-10.547,2.708-15.823c0.222-1.311-0.357-2.089-1.68-2.287c-0.365-0.055-0.746-0.065-1.114-0.035
				c-2,0.164-3.602,1.174-5.052,2.462c-1.872,1.663-3.244,3.705-4.386,5.913c-1.666,3.222-2.754,6.643-3.565,10.204
				C312.53,71.801,316.812,71.801,321.155,71.801z"/>
			<path class="st1" d="M431.833,46.726c-0.285,1.663-0.566,3.307-0.849,4.95c-1.325,7.682-2.649,15.364-3.977,23.045
				c-0.714,4.127-1.434,8.253-2.153,12.38c-0.222,1.275,0.194,1.763,1.479,1.649c0.482-0.043,0.98-0.135,1.423-0.32
				c1.307-0.546,2.59-1.152,3.885-1.728c0.32-0.142,0.419-0.304,0.33-0.697c-1.98-8.668,0.262-16.08,6.813-22.084
				c2.377-2.179,5.267-3.305,8.585-3.005c1.668,0.151,3.153,0.765,4.494,1.752c0.148,0.109,0.297,0.216,0.535,0.39
				c0.253-1.449,0.497-2.828,0.734-4.208c0.366-2.133,0.728-4.266,1.088-6.4c0.042-0.252,0.074-0.508,0.081-0.763
				c0.016-0.538-0.238-0.828-0.798-0.822c-0.557,0.006-1.113,0.001-1.764,0.001c0.246-1.42,0.481-2.779,0.719-4.158
				c3.641,0,7.245,0,10.9,0c-0.399,2.327-0.788,4.617-1.183,6.906c-1.33,7.705-2.66,15.409-3.992,23.113
				c-0.583,3.37-1.164,6.741-1.764,10.109c-0.332,1.862,0.251,2.518,2.041,1.882c1.804-0.641,3.493-1.608,5.225-2.446
				c0.348-0.169,0.665-0.402,1.077-0.654c-0.177,1.565-0.336,2.926-1.603,4.02c-2.122,1.832-4.306,3.519-7.066,4.204
				c-1.111,0.276-2.303,0.357-3.452,0.325c-1.719-0.047-2.724-0.732-4.018-2.404c-6.045,4.32-12.374,2.742-15.55-2.917
				c-0.216,0.175-0.425,0.338-0.628,0.507c-2.362,1.965-4.881,3.657-7.883,4.499c-1.481,0.416-2.979,0.54-4.482,0.135
				c-2.166-0.583-3.548-2.298-3.519-4.706c0.019-1.568,0.326-3.14,0.584-4.697c0.601-3.627,1.25-7.246,1.878-10.868
				c0.012-0.067,0.001-0.138,0.001-0.277c-0.135,0.085-0.247,0.133-0.332,0.211c-1.285,1.166-2.691,2.139-4.28,2.858
				c-0.244,0.11-0.466,0.505-0.504,0.795c-0.594,4.419-2.341,8.314-5.304,11.638c-2.568,2.881-5.66,4.913-9.571,5.419
				c-4.42,0.573-7.929-1.035-10.571-4.594c-0.135-0.182-0.263-0.369-0.381-0.536c-1.06,0.852-2.055,1.73-3.129,2.5
				c-1.979,1.419-4.16,2.359-6.625,2.552c-2.398,0.188-4.411-0.776-5.309-2.599c-0.675-1.371-0.73-2.823-0.475-4.3
				c1.128-6.535,2.263-13.069,3.39-19.604c0.206-1.197-0.365-1.792-1.581-1.612c-2.047,0.302-3.797,1.344-5.592,2.281
				c-0.569,0.297-0.821,0.676-0.931,1.326c-1.317,7.801-2.673,15.596-4.02,23.392c-0.015,0.089-0.045,0.175-0.077,0.299
				c-2.704,0-5.396,0-8.149,0c0.339-1.981,0.671-3.945,1.013-5.907c1.185-6.809,2.374-13.616,3.558-20.425
				c0.188-1.081-0.047-1.358-1.124-1.365c-0.437-0.003-0.874,0-1.398,0c0.249-1.43,0.483-2.772,0.719-4.125
				c3.659,0,7.258,0,10.879,0c-0.096,0.618-0.184,1.187-0.265,1.708c1.56-0.591,3.071-1.238,4.63-1.735
				c1.897-0.604,3.863-0.864,5.86-0.706c2.971,0.235,4.774,2.084,4.737,5.068c-0.019,1.522-0.34,3.046-0.596,4.557
				c-0.932,5.506-1.895,11.008-2.842,16.511c-0.043,0.252-0.073,0.509-0.073,0.764c0,0.721,0.344,1.119,1.061,1.08
				c0.595-0.032,1.214-0.128,1.765-0.343c1.143-0.446,2.248-0.99,3.356-1.489c-0.29-1.134-0.615-2.151-0.804-3.193
				c-0.761-4.194-0.084-8.217,1.681-12.049c1.914-4.154,4.739-7.534,8.921-9.564c3.913-1.899,7.856-2.054,11.646,0.36
				c2.543,1.619,4.133,4.008,4.987,6.858c0.447,1.489,0.892,2.467,3.211,1.423c1.07-0.482,2.042-1.198,3.015-1.87
				c0.243-0.168,0.401-0.564,0.457-0.88c0.939-5.34,1.856-10.683,2.778-16.026c0.163-0.943-0.084-1.242-1.038-1.248
				c-0.462-0.003-0.925,0-1.49,0c0.24-1.412,0.468-2.752,0.704-4.136C424.563,46.726,428.159,46.726,431.833,46.726z
				 M439.709,79.178c0.071,2.746,0.466,5.323,2.069,7.562c1.256,1.756,3.126,2.52,4.965,2.099c0.828-0.19,1.31-0.499,1.473-1.495
				c1.116-6.819,2.329-13.622,3.491-20.433c0.039-0.229-0.05-0.577-0.212-0.728c-0.894-0.83-1.975-1.218-3.196-1.129
				c-2.115,0.154-3.631,1.365-4.877,2.937C440.81,71.283,439.842,75.134,439.709,79.178z M394.443,81.65
				c0,0.605-0.044,1.213,0.008,1.814c0.139,1.604,0.366,3.197,1.255,4.594c0.878,1.38,2.222,1.711,3.51,0.713
				c0.829-0.642,1.613-1.445,2.155-2.336c2.953-4.86,4.032-10.195,3.743-15.831c-0.078-1.517-0.356-3.007-1.135-4.347
				c-0.936-1.611-2.348-1.942-3.785-0.774c-0.762,0.619-1.46,1.389-1.984,2.218C395.525,71.953,394.569,76.699,394.443,81.65z"/>
			<path class="st1" d="M483.024,78.592c-1.558-1.897-3.061-3.702-4.534-5.532c-0.715-0.888-1.408-1.797-2.051-2.737
				c-1.636-2.39-1.031-5.462,1.337-7.148c1.982-1.411,4.229-2.027,6.602-2.212c4.685-0.365,9.29,0.302,13.874,1.175
				c0.088,0.017,0.17,0.061,0.306,0.112c-0.358,1.901-0.712,3.786-1.043,5.541c-2.497-0.642-4.91-1.322-7.353-1.862
				c-1.053-0.233-2.174-0.262-3.259-0.227c-1.453,0.047-2.051,0.972-1.416,2.278c0.554,1.14,1.272,2.221,2.046,3.23
				c3.299,4.307,6.648,8.576,9.972,12.863c2.012,2.595,1.334,6.108-1.518,7.729c-2.133,1.213-4.48,1.802-6.88,2.183
				c-3.337,0.53-6.676,0.636-9.983-0.205c-1.975-0.503-3.767-1.341-5.031-3.044c-1.365-1.839-1.912-5.677,0.79-7.915
				c1.748-1.448,3.725-2.447,5.792-3.309C481.422,79.201,482.182,78.921,483.024,78.592z M485.756,82.15
				c-1.197,0.737-2.407,1.316-3.416,2.139c-1.882,1.536-1.684,3.564,0.36,4.879c1.903,1.225,3.958,1.189,6.044,0.656
				c1.24-0.317,1.584-1.137,0.87-2.205C488.417,85.825,487.132,84.09,485.756,82.15z"/>
			<path class="st1" d="M472.908,46.739c-0.207,4.761-1.045,9.165-4.225,12.834c-0.643-0.483-1.235-0.894-1.781-1.359
				c-0.148-0.127-0.25-0.434-0.216-0.631c0.594-3.463,1.208-6.922,1.838-10.378c0.031-0.172,0.242-0.441,0.374-0.444
				C470.197,46.726,471.498,46.739,472.908,46.739z"/>
		</g>
	</g>
	<g>
		<g>
			<path class="st1" d="M348.634,143.495c0.16-0.842,0.329-1.682,0.479-2.526c0.706-3.973,1.407-7.947,2.11-11.921
				c0.698-3.951,1.395-7.903,2.094-11.854c0.495-2.8,0.989-5.6,1.49-8.398c0.131-0.73-0.09-1.016-0.824-1.02
				c-0.456-0.002-0.911,0-1.405,0c0.202-1.269,0.397-2.487,0.592-3.714c3.245,0,6.456,0,9.711,0
				c-0.083,0.576-0.164,1.136-0.253,1.753c0.206-0.116,0.375-0.217,0.549-0.309c2.546-1.356,5.26-2.076,8.146-2.085
				c0.6-0.002,1.216,0.087,1.799,0.235c1.311,0.331,2.006,0.978,2.799,2.478c0.106-0.054,0.214-0.106,0.32-0.163
				c2.397-1.289,4.929-2.164,7.641-2.473c1.212-0.138,2.431-0.188,3.613,0.211c1.695,0.571,2.534,1.826,2.813,3.536
				c0.184,1.126-0.046,2.215-0.242,3.31c-0.749,4.175-1.495,8.351-2.241,12.526c-0.747,4.176-1.494,8.351-2.238,12.527
				c-0.161,0.903-0.331,1.805-0.464,2.712c-0.127,0.864,0.338,1.373,1.193,1.202c0.813-0.162,1.621-0.415,2.383-0.741
				c0.872-0.373,1.695-0.861,2.526-1.323c0.134-0.074,0.258-0.263,0.286-0.417c0.434-2.415,0.85-4.833,1.271-7.25
				c0.563-3.23,1.127-6.46,1.69-9.69c0.02-0.113,0.038-0.227,0.045-0.341c0.04-0.637-0.165-0.854-0.805-0.855
				c-0.481-0.001-0.962,0-1.486,0c0.216-1.244,0.426-2.458,0.641-3.697c3.233,0,6.461,0,9.718,0
				c-0.156,0.909-0.307,1.801-0.461,2.692c-0.68,3.92-1.359,7.84-2.043,11.758c-0.487,2.79-0.982,5.578-1.473,8.367
				c-0.002,0.011-0.006,0.022-0.008,0.033c-0.188,1.081,0.241,1.601,1.326,1.423c0.769-0.126,1.527-0.404,2.249-0.711
				c0.809-0.345,1.569-0.805,2.356-1.204c0.217-0.11,0.308-0.268,0.348-0.503c0.486-2.848,0.98-5.695,1.472-8.541
				c0.656-3.796,1.313-7.592,1.97-11.387c0.602-3.479,1.205-6.959,1.805-10.438c0.021-0.124,0.027-0.252,0.025-0.377
				c-0.008-0.485-0.211-0.694-0.693-0.699c-0.526-0.006-1.051-0.001-1.602-0.001c0.219-1.257,0.431-2.475,0.645-3.706
				c3.237,0,6.458,0,9.716,0c-0.134,0.784-0.263,1.549-0.395,2.314c-0.631,3.661-1.263,7.321-1.894,10.982
				c-0.653,3.785-1.302,7.57-1.959,11.354c-0.667,3.84-1.343,7.679-2.011,11.52c-0.165,0.948,0.243,1.409,1.209,1.34
				c1.07-0.077,2.046-0.495,3.004-0.935c0.812-0.373,1.606-0.786,2.393-1.208c0.143-0.077,0.284-0.273,0.312-0.434
				c0.832-4.743,1.651-9.488,2.469-14.233c0.838-4.858,1.672-9.717,2.508-14.575c0.078-0.452,0.161-0.903,0.237-1.355
				c0.021-0.124,0.031-0.251,0.03-0.376c-0.007-0.518-0.218-0.734-0.733-0.741c-0.503-0.007-1.006-0.001-1.565-0.001
				c0.218-1.24,0.429-2.44,0.642-3.652c3.243,0,6.465,0,9.72,0c-1.273,7.353-2.543,14.688-3.812,22.023
				c0.023,0.015,0.046,0.03,0.069,0.045c0.501-0.396,1.009-0.782,1.5-1.189c2.293-1.904,4.309-4.057,5.878-6.606
				c0.042-0.068,0.101-0.132,0.124-0.206c0.218-0.69,0.686-0.83,1.382-0.813c2.122,0.053,4.247,0.019,6.37,0.019
				c0.125,0,0.25,0,0.463,0c-0.2,0.656-0.354,1.275-0.575,1.868c-0.725,1.945-1.908,3.598-3.326,5.093
				c-1.309,1.38-2.778,2.571-4.346,3.642c-0.206,0.141-0.25,0.259-0.165,0.501c1.35,3.837,2.688,7.678,4.032,11.517
				c0.493,1.407,1.625,1.983,3.125,1.586c1.337-0.354,2.457-1.111,3.535-1.938c0.417-0.32,0.812-0.67,1.285-1.064
				c-0.099,0.586-0.186,1.104-0.275,1.623c-0.012,0.068-0.037,0.134-0.04,0.202c-0.032,0.634-0.303,1.142-0.727,1.617
				c-1.623,1.819-3.473,3.311-5.833,4.051c-1.424,0.447-2.88,0.617-4.326,0.097c-1.338-0.481-2.281-1.411-2.762-2.746
				c-1.369-3.794-2.709-7.597-4.061-11.397c-0.05-0.14-0.102-0.278-0.166-0.453c-0.717,0.307-1.422,0.602-2.117,0.918
				c-0.089,0.04-0.163,0.188-0.182,0.296c-0.723,4.215-1.44,8.431-2.157,12.646c-0.021,0.123-0.051,0.244-0.079,0.378
				c-2.426,0-4.844,0-7.278,0c0.185-1.079,0.367-2.139,0.564-3.287c-0.214,0.166-0.363,0.284-0.515,0.399
				c-1.757,1.327-3.609,2.481-5.735,3.134c-1.188,0.365-2.397,0.52-3.635,0.337c-2.147-0.318-3.395-1.547-3.764-3.697
				c-0.011-0.065-0.022-0.131-0.043-0.262c-0.151,0.134-0.266,0.236-0.381,0.339c-1.637,1.454-3.426,2.654-5.542,3.301
				c-1.189,0.364-2.402,0.5-3.638,0.318c-2.152-0.317-3.428-1.588-3.762-3.737c-0.01-0.065-0.022-0.131-0.046-0.266
				c-0.193,0.174-0.349,0.316-0.508,0.456c-1.526,1.347-3.186,2.48-5.125,3.151c-1.501,0.52-3.033,0.725-4.599,0.321
				c-1.807-0.467-2.805-1.673-3.153-3.474c-0.214-1.108-0.036-2.189,0.16-3.277c0.78-4.321,1.547-8.644,2.322-12.966
				c0.764-4.266,1.53-8.531,2.296-12.796c0.12-0.666,0.247-1.33,0.359-1.997c0.032-0.191,0.037-0.389,0.027-0.583
				c-0.024-0.484-0.289-0.785-0.768-0.876c-0.719-0.136-1.39,0.092-2.049,0.318c-1.427,0.489-2.747,1.207-4.045,1.965
				c-0.101,0.059-0.197,0.198-0.218,0.313c-0.722,4.017-1.434,8.036-2.147,12.054c-0.722,4.064-1.443,8.127-2.166,12.191
				c-0.494,2.777-0.989,5.553-1.484,8.329c-0.018,0.099-0.043,0.197-0.065,0.3c-2.422,0-4.819,0-7.268,0
				c0.088-0.515,0.169-1.017,0.258-1.517c0.913-5.112,1.824-10.225,2.742-15.337c1.017-5.664,2.038-11.328,3.064-16.991
				c0.233-1.285-0.262-1.861-1.543-1.608c-0.857,0.169-1.704,0.462-2.506,0.814c-0.973,0.428-1.897,0.969-2.832,1.479
				c-0.117,0.064-0.228,0.228-0.252,0.361c-1.182,6.66-2.354,13.322-3.527,19.983c-0.736,4.178-1.472,8.355-2.208,12.532
				c-0.018,0.101-0.045,0.201-0.082,0.36c-2.418,0-4.846,0-7.273,0C348.634,143.633,348.634,143.564,348.634,143.495z"/>
			<path class="st1" d="M399.566,113.766c-1.956-0.002-3.189-1.636-2.69-3.564c0.415-1.603,1.842-2.854,3.484-3.057
				c1.962-0.241,3.448,1.377,3.091,3.368C403.134,112.288,401.367,113.768,399.566,113.766z"/>
		</g>
	</g>
	<path class="st1" d="M398.18,181.945c-10.479,0-20.753-1.767-30.535-5.252c-9.454-3.368-18.244-8.261-26.126-14.544
		c-15.768-12.569-27.048-30.221-31.763-49.706c-0.204-0.843,0.314-1.692,1.157-1.896c0.844-0.203,1.692,0.315,1.896,1.157
		c4.551,18.811,15.443,35.853,30.668,47.989c15.685,12.503,34.601,19.111,54.704,19.111c20.174,0,39.877-7.009,55.479-19.736
		c15.386-12.551,26.165-30.084,30.353-49.371c0.184-0.847,1.02-1.385,1.868-1.201c0.848,0.184,1.386,1.02,1.202,1.868
		c-4.338,19.979-15.502,38.14-31.437,51.138C439.483,174.685,419.075,181.945,398.18,181.945z"/>
	<path class="st1" d="M324.037,42.569c-0.302,0-0.608-0.087-0.878-0.269c-0.719-0.486-0.908-1.462-0.422-2.18
		C339.703,14.998,367.906,0,398.18,0c27.779,0,53.678,12.452,71.058,34.163c0.542,0.677,0.432,1.666-0.245,2.207
		c-0.677,0.543-1.665,0.432-2.207-0.244C450.005,15.163,424.999,3.141,398.18,3.141c-29.228,0-56.458,14.481-72.84,38.736
		C325.037,42.326,324.541,42.569,324.037,42.569z"/>
</g>
<g>
	<g>
		<g>
			<path class="st2" d="M593.36,90.988c0.086-1.275,0.18-2.549,0.257-3.825c0.361-6.033,1.147-12,2.818-17.823
				c1.451-5.054,3.514-9.809,6.975-13.855c0.212-0.248,0.516-0.45,0.636-0.734c0.134-0.317,0.218-0.741,0.111-1.044
				c-0.074-0.211-0.495-0.382-0.781-0.418c-0.522-0.066-1.058-0.019-1.65-0.019c0.21-1.346,0.398-2.607,0.618-3.862
				c0.021-0.123,0.23-0.262,0.376-0.301c0.196-0.053,0.416-0.015,0.626-0.016c4.808-0.035,9.622,0.21,14.405-0.629
				c1.973-0.346,3.959-0.081,5.775,0.884c2.729,1.45,4.461,4.754,3.989,7.869c-0.624,4.117-1.36,8.217-2.064,12.322
				c-1.017,5.94-2.051,11.877-3.071,17.816c-0.196,1.143,0.266,1.698,1.404,1.519c0.86-0.135,1.712-0.431,2.52-0.771
				c0.919-0.386,1.769-0.934,2.679-1.345c0.59-0.266,0.768-0.694,0.87-1.287c1.032-6.055,2.089-12.106,3.138-18.158
				c0.036-0.206,0.073-0.414,0.081-0.622c0.028-0.741-0.187-0.971-0.92-0.994c-0.256-0.008-0.513-0.002-0.769-0.002
				c-0.254,0-0.508,0-0.87,0c0.245-1.391,0.479-2.721,0.717-4.071c3.647,0,7.227,0,10.869,0c-0.089,0.573-0.173,1.108-0.276,1.773
				c3.141-1.99,6.522-2.509,10.121-2.518c-0.345,1.994-0.68,3.928-1.009,5.829c-1.466,0.128-2.883,0.202-4.286,0.386
				c-1.86,0.243-3.65,0.73-5.19,1.885c-0.464,0.348-0.751,0.756-0.854,1.364c-1.295,7.639-2.617,15.273-3.934,22.908
				c-0.011,0.065-0.05,0.125-0.089,0.218c-2.693,0-5.385,0-8.122,0c0.197-1.168,0.389-2.307,0.617-3.66
				c-0.327,0.278-0.507,0.432-0.687,0.584c-2,1.685-4.175,3.08-6.778,3.571c-1.099,0.207-2.281,0.255-3.384,0.094
				c-2.403-0.349-3.891-1.965-4.018-4.39c-0.07-1.329,0.121-2.688,0.323-4.013c0.386-2.529,0.867-5.044,1.304-7.566
				c0.035-0.2,0.032-0.406,0.055-0.728c-1.627,0.118-3.204,0.193-4.773,0.355c-2.737,0.283-5.428,0.794-8.021,1.76
				c-0.485,0.181-0.692,0.42-0.717,0.936c-0.202,4.046-0.426,8.09-0.64,12.135c-0.016,0.295-0.002,0.592-0.002,0.958
				c-2.848,0-5.614,0-8.379,0C593.36,92.665,593.36,91.826,593.36,90.988z M616.818,71.801c0.051-0.168,0.106-0.298,0.129-0.434
				c0.906-5.274,1.813-10.547,2.708-15.823c0.222-1.311-0.357-2.089-1.68-2.287c-0.365-0.055-0.746-0.065-1.114-0.035
				c-2,0.164-3.602,1.174-5.052,2.462c-1.872,1.663-3.244,3.705-4.386,5.913c-1.666,3.222-2.754,6.643-3.565,10.204
				C608.192,71.801,612.474,71.801,616.818,71.801z"/>
			<path class="st2" d="M727.496,46.726c-0.285,1.663-0.566,3.307-0.849,4.95c-1.325,7.682-2.649,15.364-3.977,23.045
				c-0.714,4.127-1.434,8.253-2.153,12.38c-0.222,1.275,0.195,1.763,1.479,1.649c0.482-0.043,0.98-0.135,1.423-0.32
				c1.307-0.546,2.59-1.152,3.885-1.728c0.32-0.142,0.419-0.304,0.33-0.697c-1.98-8.668,0.262-16.08,6.813-22.084
				c2.377-2.179,5.267-3.305,8.585-3.005c1.668,0.151,3.153,0.765,4.494,1.752c0.148,0.109,0.297,0.216,0.535,0.39
				c0.253-1.449,0.498-2.828,0.734-4.208c0.366-2.133,0.728-4.266,1.088-6.4c0.042-0.252,0.074-0.508,0.081-0.763
				c0.016-0.538-0.238-0.828-0.798-0.822c-0.557,0.006-1.113,0.001-1.764,0.001c0.245-1.42,0.481-2.779,0.719-4.158
				c3.641,0,7.245,0,10.9,0c-0.399,2.327-0.788,4.617-1.183,6.906c-1.33,7.705-2.66,15.409-3.992,23.113
				c-0.583,3.37-1.164,6.741-1.764,10.109c-0.332,1.862,0.251,2.518,2.041,1.882c1.804-0.641,3.493-1.608,5.225-2.446
				c0.348-0.169,0.665-0.402,1.076-0.654c-0.177,1.565-0.336,2.926-1.603,4.02c-2.122,1.832-4.306,3.519-7.065,4.204
				c-1.112,0.276-2.303,0.357-3.452,0.325c-1.719-0.047-2.724-0.732-4.018-2.404c-6.045,4.32-12.374,2.742-15.55-2.917
				c-0.216,0.175-0.425,0.338-0.628,0.507c-2.362,1.965-4.881,3.657-7.883,4.499c-1.481,0.416-2.979,0.54-4.482,0.135
				c-2.166-0.583-3.548-2.298-3.519-4.706c0.019-1.568,0.326-3.14,0.584-4.697c0.601-3.627,1.25-7.246,1.878-10.868
				c0.012-0.067,0.001-0.138,0.001-0.277c-0.135,0.085-0.247,0.133-0.333,0.211c-1.285,1.166-2.691,2.139-4.28,2.858
				c-0.244,0.11-0.466,0.505-0.504,0.795c-0.594,4.419-2.341,8.314-5.304,11.638c-2.568,2.881-5.66,4.913-9.571,5.419
				c-4.42,0.573-7.929-1.035-10.571-4.594c-0.135-0.182-0.262-0.369-0.38-0.536c-1.06,0.852-2.055,1.73-3.129,2.5
				c-1.979,1.419-4.16,2.359-6.625,2.552c-2.398,0.188-4.411-0.776-5.309-2.599c-0.675-1.371-0.73-2.823-0.475-4.3
				c1.128-6.535,2.263-13.069,3.39-19.604c0.206-1.197-0.365-1.792-1.581-1.612c-2.047,0.302-3.797,1.344-5.592,2.281
				c-0.569,0.297-0.821,0.676-0.931,1.326c-1.317,7.801-2.673,15.596-4.02,23.392c-0.015,0.089-0.045,0.175-0.077,0.299
				c-2.704,0-5.396,0-8.149,0c0.339-1.981,0.671-3.945,1.013-5.907c1.185-6.809,2.374-13.616,3.558-20.425
				c0.188-1.081-0.047-1.358-1.124-1.365c-0.437-0.003-0.874,0-1.398,0c0.249-1.43,0.483-2.772,0.719-4.125
				c3.659,0,7.258,0,10.879,0c-0.096,0.618-0.184,1.187-0.265,1.708c1.56-0.591,3.071-1.238,4.63-1.735
				c1.897-0.604,3.863-0.864,5.859-0.706c2.971,0.235,4.774,2.084,4.737,5.068c-0.019,1.522-0.341,3.046-0.596,4.557
				c-0.932,5.506-1.895,11.008-2.842,16.511c-0.043,0.252-0.073,0.509-0.073,0.764c0,0.721,0.344,1.119,1.061,1.08
				c0.595-0.032,1.214-0.128,1.765-0.343c1.143-0.446,2.248-0.99,3.356-1.489c-0.29-1.134-0.615-2.151-0.804-3.193
				c-0.761-4.194-0.084-8.217,1.681-12.049c1.914-4.154,4.739-7.534,8.921-9.564c3.913-1.899,7.856-2.054,11.646,0.36
				c2.543,1.619,4.133,4.008,4.987,6.858c0.447,1.489,0.892,2.467,3.211,1.423c1.07-0.482,2.042-1.198,3.015-1.87
				c0.243-0.168,0.401-0.564,0.457-0.88c0.939-5.34,1.856-10.683,2.778-16.026c0.163-0.943-0.084-1.242-1.038-1.248
				c-0.463-0.003-0.925,0-1.49,0c0.24-1.412,0.468-2.752,0.704-4.136C720.226,46.726,723.822,46.726,727.496,46.726z
				 M735.372,79.178c0.071,2.746,0.466,5.323,2.069,7.562c1.256,1.756,3.126,2.52,4.965,2.099c0.828-0.19,1.31-0.499,1.473-1.495
				c1.116-6.819,2.329-13.622,3.491-20.433c0.039-0.229-0.05-0.577-0.212-0.728c-0.894-0.83-1.975-1.218-3.196-1.129
				c-2.115,0.154-3.631,1.365-4.877,2.937C736.473,71.283,735.504,75.134,735.372,79.178z M690.106,81.65
				c0,0.605-0.044,1.213,0.008,1.814c0.139,1.604,0.366,3.197,1.255,4.594c0.878,1.38,2.222,1.711,3.51,0.713
				c0.829-0.642,1.613-1.445,2.154-2.336c2.953-4.86,4.032-10.195,3.743-15.831c-0.078-1.517-0.356-3.007-1.135-4.347
				c-0.936-1.611-2.348-1.942-3.785-0.774c-0.762,0.619-1.46,1.389-1.984,2.218C691.188,71.953,690.232,76.699,690.106,81.65z"/>
			<path class="st2" d="M778.686,78.592c-1.558-1.897-3.061-3.702-4.534-5.532c-0.715-0.888-1.408-1.797-2.051-2.737
				c-1.636-2.39-1.031-5.462,1.337-7.148c1.982-1.411,4.228-2.027,6.602-2.212c4.685-0.365,9.29,0.302,13.874,1.175
				c0.088,0.017,0.17,0.061,0.306,0.112c-0.358,1.901-0.712,3.786-1.043,5.541c-2.497-0.642-4.91-1.322-7.353-1.862
				c-1.054-0.233-2.174-0.262-3.259-0.227c-1.453,0.047-2.051,0.972-1.416,2.278c0.554,1.14,1.272,2.221,2.046,3.23
				c3.299,4.307,6.648,8.576,9.972,12.863c2.012,2.595,1.334,6.108-1.518,7.729c-2.133,1.213-4.48,1.802-6.88,2.183
				c-3.337,0.53-6.676,0.636-9.983-0.205c-1.975-0.503-3.767-1.341-5.031-3.044c-1.365-1.839-1.912-5.677,0.79-7.915
				c1.748-1.448,3.725-2.447,5.792-3.309C777.084,79.201,777.845,78.921,778.686,78.592z M781.419,82.15
				c-1.197,0.737-2.407,1.316-3.416,2.139c-1.882,1.536-1.684,3.564,0.36,4.879c1.903,1.225,3.958,1.189,6.044,0.656
				c1.24-0.317,1.584-1.137,0.87-2.205C784.08,85.825,782.795,84.09,781.419,82.15z"/>
			<path class="st2" d="M768.57,46.739c-0.207,4.761-1.045,9.165-4.225,12.834c-0.643-0.483-1.235-0.894-1.781-1.359
				c-0.148-0.127-0.25-0.434-0.216-0.631c0.594-3.463,1.208-6.922,1.838-10.378c0.031-0.172,0.242-0.441,0.374-0.444
				C765.86,46.726,767.161,46.739,768.57,46.739z"/>
		</g>
	</g>
	<g>
		<g>
			<path class="st2" d="M644.297,143.495c0.16-0.842,0.329-1.682,0.479-2.526c0.706-3.973,1.407-7.947,2.11-11.921
				c0.698-3.951,1.395-7.903,2.094-11.854c0.495-2.8,0.989-5.6,1.49-8.398c0.131-0.73-0.09-1.016-0.824-1.02
				c-0.456-0.002-0.911,0-1.405,0c0.202-1.269,0.397-2.487,0.592-3.714c3.245,0,6.456,0,9.711,0
				c-0.083,0.576-0.164,1.136-0.253,1.753c0.206-0.116,0.375-0.217,0.549-0.309c2.546-1.356,5.26-2.076,8.146-2.085
				c0.6-0.002,1.216,0.087,1.799,0.235c1.311,0.331,2.006,0.978,2.799,2.478c0.106-0.054,0.214-0.106,0.32-0.163
				c2.397-1.289,4.929-2.164,7.641-2.473c1.212-0.138,2.431-0.188,3.613,0.211c1.695,0.571,2.534,1.826,2.813,3.536
				c0.184,1.126-0.046,2.215-0.242,3.31c-0.749,4.175-1.495,8.351-2.242,12.526c-0.747,4.176-1.494,8.351-2.238,12.527
				c-0.161,0.903-0.331,1.805-0.464,2.712c-0.127,0.864,0.338,1.373,1.193,1.202c0.813-0.162,1.621-0.415,2.383-0.741
				c0.872-0.373,1.695-0.861,2.526-1.323c0.134-0.074,0.258-0.263,0.286-0.417c0.434-2.415,0.85-4.833,1.271-7.25
				c0.563-3.23,1.127-6.46,1.69-9.69c0.02-0.113,0.038-0.227,0.045-0.341c0.041-0.637-0.165-0.854-0.805-0.855
				c-0.481-0.001-0.961,0-1.486,0c0.216-1.244,0.426-2.458,0.641-3.697c3.233,0,6.461,0,9.718,0
				c-0.156,0.909-0.307,1.801-0.461,2.692c-0.68,3.92-1.359,7.84-2.043,11.758c-0.487,2.79-0.982,5.578-1.473,8.367
				c-0.002,0.011-0.006,0.022-0.008,0.033c-0.188,1.081,0.241,1.601,1.326,1.423c0.769-0.126,1.527-0.404,2.249-0.711
				c0.809-0.345,1.569-0.805,2.356-1.204c0.217-0.11,0.308-0.268,0.348-0.503c0.486-2.848,0.98-5.695,1.472-8.541
				c0.656-3.796,1.313-7.592,1.97-11.387c0.602-3.479,1.205-6.959,1.805-10.438c0.021-0.124,0.027-0.252,0.025-0.377
				c-0.008-0.485-0.211-0.694-0.693-0.699c-0.526-0.006-1.051-0.001-1.602-0.001c0.219-1.257,0.431-2.475,0.645-3.706
				c3.237,0,6.458,0,9.716,0c-0.134,0.784-0.263,1.549-0.395,2.314c-0.631,3.661-1.263,7.321-1.894,10.982
				c-0.653,3.785-1.302,7.57-1.959,11.354c-0.667,3.84-1.343,7.679-2.011,11.52c-0.165,0.948,0.243,1.409,1.209,1.34
				c1.07-0.077,2.046-0.495,3.004-0.935c0.812-0.373,1.606-0.786,2.393-1.208c0.143-0.077,0.284-0.273,0.312-0.434
				c0.832-4.743,1.651-9.488,2.469-14.233c0.838-4.858,1.672-9.717,2.508-14.575c0.078-0.452,0.161-0.903,0.237-1.355
				c0.021-0.124,0.032-0.251,0.03-0.376c-0.007-0.518-0.218-0.734-0.733-0.741c-0.503-0.007-1.006-0.001-1.565-0.001
				c0.218-1.24,0.429-2.44,0.642-3.652c3.243,0,6.465,0,9.72,0c-1.273,7.353-2.543,14.688-3.812,22.023
				c0.023,0.015,0.046,0.03,0.069,0.045c0.5-0.396,1.009-0.782,1.5-1.189c2.293-1.904,4.309-4.057,5.878-6.606
				c0.042-0.068,0.101-0.132,0.124-0.206c0.218-0.69,0.686-0.83,1.382-0.813c2.122,0.053,4.247,0.019,6.37,0.019
				c0.125,0,0.25,0,0.463,0c-0.2,0.656-0.354,1.275-0.575,1.868c-0.725,1.945-1.908,3.598-3.326,5.093
				c-1.309,1.38-2.778,2.571-4.346,3.642c-0.206,0.141-0.25,0.259-0.165,0.501c1.35,3.837,2.688,7.678,4.032,11.517
				c0.493,1.407,1.625,1.983,3.125,1.586c1.337-0.354,2.458-1.111,3.535-1.938c0.417-0.32,0.812-0.67,1.285-1.064
				c-0.099,0.586-0.186,1.104-0.275,1.623c-0.012,0.068-0.037,0.134-0.04,0.202c-0.032,0.634-0.303,1.142-0.727,1.617
				c-1.623,1.819-3.473,3.311-5.833,4.051c-1.424,0.447-2.88,0.617-4.326,0.097c-1.338-0.481-2.281-1.411-2.763-2.746
				c-1.369-3.794-2.709-7.597-4.061-11.397c-0.05-0.14-0.102-0.278-0.166-0.453c-0.717,0.307-1.422,0.602-2.117,0.918
				c-0.089,0.04-0.163,0.188-0.182,0.296c-0.723,4.215-1.44,8.431-2.157,12.646c-0.021,0.123-0.051,0.244-0.079,0.378
				c-2.426,0-4.844,0-7.278,0c0.185-1.079,0.367-2.139,0.564-3.287c-0.214,0.166-0.363,0.284-0.515,0.399
				c-1.757,1.327-3.609,2.481-5.735,3.134c-1.188,0.365-2.397,0.52-3.635,0.337c-2.147-0.318-3.395-1.547-3.764-3.697
				c-0.011-0.065-0.022-0.131-0.043-0.262c-0.151,0.134-0.266,0.236-0.381,0.339c-1.637,1.454-3.426,2.654-5.542,3.301
				c-1.189,0.364-2.401,0.5-3.638,0.318c-2.152-0.317-3.428-1.588-3.762-3.737c-0.01-0.065-0.022-0.131-0.046-0.266
				c-0.193,0.174-0.349,0.316-0.508,0.456c-1.526,1.347-3.186,2.48-5.125,3.151c-1.501,0.52-3.033,0.725-4.599,0.321
				c-1.807-0.467-2.805-1.673-3.153-3.474c-0.214-1.108-0.036-2.189,0.16-3.277c0.78-4.321,1.547-8.644,2.322-12.966
				c0.764-4.266,1.53-8.531,2.296-12.796c0.12-0.666,0.247-1.33,0.359-1.997c0.032-0.191,0.037-0.389,0.027-0.583
				c-0.024-0.484-0.289-0.785-0.768-0.876c-0.719-0.136-1.39,0.092-2.049,0.318c-1.427,0.489-2.747,1.207-4.045,1.965
				c-0.101,0.059-0.197,0.198-0.218,0.313c-0.722,4.017-1.434,8.036-2.147,12.054c-0.722,4.064-1.443,8.127-2.166,12.191
				c-0.494,2.777-0.989,5.553-1.484,8.329c-0.018,0.099-0.043,0.197-0.065,0.3c-2.422,0-4.819,0-7.268,0
				c0.088-0.515,0.169-1.017,0.258-1.517c0.913-5.112,1.824-10.225,2.742-15.337c1.017-5.664,2.038-11.328,3.064-16.991
				c0.233-1.285-0.262-1.861-1.543-1.608c-0.857,0.169-1.704,0.462-2.506,0.814c-0.973,0.428-1.897,0.969-2.832,1.479
				c-0.117,0.064-0.228,0.228-0.252,0.361c-1.182,6.66-2.354,13.322-3.527,19.983c-0.736,4.178-1.472,8.355-2.208,12.532
				c-0.018,0.101-0.045,0.201-0.082,0.36c-2.418,0-4.846,0-7.273,0C644.297,143.633,644.297,143.564,644.297,143.495z"/>
			<path class="st2" d="M695.229,113.766c-1.956-0.002-3.189-1.636-2.69-3.564c0.415-1.603,1.842-2.854,3.484-3.057
				c1.962-0.241,3.448,1.377,3.091,3.368C698.797,112.288,697.029,113.768,695.229,113.766z"/>
		</g>
	</g>
	<path class="st2" d="M693.842,181.945c-10.479,0-20.753-1.767-30.535-5.252c-9.454-3.368-18.244-8.261-26.126-14.544
		c-15.768-12.569-27.048-30.221-31.763-49.706c-0.204-0.843,0.314-1.692,1.157-1.896c0.844-0.203,1.692,0.315,1.896,1.157
		c4.552,18.811,15.443,35.853,30.668,47.989c15.685,12.503,34.601,19.111,54.704,19.111c20.174,0,39.877-7.009,55.479-19.736
		c15.386-12.551,26.165-30.084,30.353-49.371c0.184-0.847,1.02-1.385,1.868-1.201c0.848,0.184,1.386,1.02,1.201,1.868
		c-4.338,19.979-15.502,38.14-31.437,51.138C735.146,174.685,714.738,181.945,693.842,181.945z"/>
	<path class="st2" d="M619.7,42.569c-0.302,0-0.608-0.087-0.878-0.269c-0.719-0.486-0.908-1.462-0.422-2.18
		C635.366,14.998,663.569,0,693.842,0c27.779,0,53.678,12.452,71.058,34.163c0.542,0.677,0.432,1.666-0.245,2.207
		c-0.677,0.543-1.665,0.432-2.207-0.244c-16.781-20.962-41.786-32.985-68.606-32.985c-29.228,0-56.458,14.481-72.84,38.736
		C620.699,42.326,620.204,42.569,619.7,42.569z"/>
</g>
<g>
	<g>
		<g>
			<path class="st3" d="M147.725,312.33c0.086-1.275,0.18-2.549,0.257-3.825c0.361-6.033,1.147-12,2.818-17.823
				c1.451-5.054,3.514-9.809,6.975-13.855c0.212-0.248,0.516-0.45,0.636-0.734c0.134-0.317,0.218-0.741,0.111-1.044
				c-0.074-0.211-0.495-0.382-0.781-0.418c-0.522-0.066-1.058-0.019-1.65-0.019c0.21-1.346,0.398-2.607,0.618-3.862
				c0.022-0.123,0.23-0.262,0.376-0.301c0.196-0.053,0.416-0.014,0.626-0.016c4.808-0.035,9.622,0.21,14.405-0.629
				c1.973-0.346,3.959-0.081,5.775,0.884c2.729,1.45,4.461,4.754,3.989,7.869c-0.624,4.117-1.36,8.217-2.064,12.322
				c-1.017,5.94-2.051,11.877-3.071,17.816c-0.196,1.143,0.266,1.698,1.404,1.519c0.86-0.135,1.712-0.431,2.52-0.77
				c0.919-0.386,1.769-0.934,2.679-1.345c0.59-0.266,0.768-0.694,0.87-1.287c1.032-6.055,2.089-12.106,3.138-18.158
				c0.036-0.206,0.073-0.414,0.081-0.622c0.028-0.741-0.187-0.971-0.92-0.994c-0.256-0.008-0.512-0.002-0.769-0.002
				c-0.254,0-0.508,0-0.87,0c0.245-1.391,0.479-2.721,0.717-4.071c3.647,0,7.227,0,10.869,0c-0.089,0.573-0.173,1.108-0.276,1.773
				c3.141-1.99,6.522-2.509,10.121-2.518c-0.345,1.994-0.68,3.928-1.009,5.829c-1.466,0.128-2.883,0.202-4.286,0.386
				c-1.86,0.243-3.65,0.73-5.19,1.885c-0.464,0.348-0.751,0.756-0.854,1.364c-1.295,7.639-2.617,15.273-3.934,22.908
				c-0.011,0.065-0.05,0.125-0.089,0.218c-2.692,0-5.385,0-8.122,0c0.197-1.168,0.389-2.307,0.617-3.66
				c-0.327,0.278-0.507,0.432-0.687,0.584c-2,1.685-4.175,3.08-6.778,3.571c-1.099,0.207-2.281,0.255-3.384,0.094
				c-2.403-0.349-3.891-1.965-4.018-4.39c-0.07-1.329,0.121-2.688,0.323-4.013c0.386-2.529,0.867-5.044,1.304-7.566
				c0.035-0.2,0.032-0.406,0.055-0.728c-1.627,0.118-3.204,0.193-4.773,0.355c-2.737,0.283-5.428,0.794-8.022,1.76
				c-0.485,0.181-0.692,0.42-0.717,0.936c-0.202,4.046-0.426,8.09-0.64,12.135c-0.016,0.295-0.002,0.592-0.002,0.958
				c-2.848,0-5.614,0-8.379,0C147.725,314.007,147.725,313.168,147.725,312.33z M171.182,293.143
				c0.051-0.168,0.106-0.298,0.129-0.434c0.906-5.274,1.813-10.547,2.708-15.823c0.222-1.311-0.357-2.089-1.68-2.287
				c-0.365-0.055-0.746-0.065-1.114-0.035c-2,0.164-3.602,1.174-5.052,2.462c-1.872,1.663-3.244,3.705-4.386,5.913
				c-1.666,3.222-2.754,6.643-3.565,10.204C162.557,293.143,166.839,293.143,171.182,293.143z"/>
			<path class="st3" d="M281.861,268.068c-0.285,1.663-0.566,3.307-0.849,4.95c-1.325,7.682-2.649,15.364-3.977,23.045
				c-0.714,4.127-1.434,8.253-2.153,12.38c-0.222,1.275,0.194,1.763,1.479,1.649c0.482-0.043,0.98-0.135,1.423-0.32
				c1.307-0.546,2.59-1.152,3.885-1.728c0.32-0.142,0.419-0.304,0.33-0.697c-1.98-8.668,0.262-16.08,6.813-22.084
				c2.377-2.179,5.267-3.305,8.585-3.005c1.668,0.151,3.153,0.765,4.494,1.752c0.148,0.109,0.297,0.216,0.535,0.39
				c0.253-1.449,0.498-2.828,0.734-4.208c0.366-2.133,0.728-4.266,1.088-6.4c0.042-0.252,0.074-0.508,0.081-0.763
				c0.016-0.538-0.238-0.828-0.798-0.822c-0.557,0.006-1.113,0.001-1.764,0.001c0.246-1.42,0.481-2.779,0.719-4.158
				c3.641,0,7.245,0,10.9,0c-0.399,2.327-0.788,4.617-1.183,6.906c-1.33,7.705-2.66,15.409-3.992,23.113
				c-0.583,3.37-1.164,6.741-1.764,10.109c-0.332,1.862,0.251,2.518,2.041,1.882c1.804-0.641,3.493-1.608,5.225-2.446
				c0.348-0.169,0.665-0.402,1.077-0.654c-0.177,1.565-0.336,2.926-1.603,4.02c-2.122,1.832-4.306,3.519-7.066,4.204
				c-1.112,0.276-2.303,0.357-3.452,0.325c-1.719-0.047-2.724-0.732-4.018-2.404c-6.045,4.32-12.374,2.742-15.55-2.917
				c-0.216,0.175-0.425,0.338-0.628,0.508c-2.362,1.965-4.881,3.657-7.883,4.499c-1.481,0.416-2.979,0.54-4.482,0.135
				c-2.166-0.583-3.548-2.298-3.519-4.706c0.019-1.568,0.326-3.14,0.584-4.697c0.601-3.627,1.25-7.246,1.878-10.868
				c0.012-0.067,0.001-0.138,0.001-0.277c-0.135,0.085-0.247,0.133-0.332,0.211c-1.285,1.166-2.691,2.139-4.28,2.858
				c-0.244,0.11-0.466,0.505-0.504,0.795c-0.594,4.419-2.341,8.314-5.304,11.638c-2.568,2.881-5.66,4.913-9.571,5.419
				c-4.42,0.573-7.929-1.035-10.571-4.594c-0.135-0.182-0.262-0.369-0.381-0.536c-1.06,0.852-2.055,1.73-3.129,2.5
				c-1.979,1.419-4.16,2.359-6.625,2.552c-2.398,0.188-4.411-0.776-5.309-2.599c-0.675-1.371-0.73-2.823-0.475-4.3
				c1.128-6.535,2.263-13.069,3.39-19.604c0.206-1.197-0.365-1.792-1.581-1.612c-2.047,0.302-3.797,1.344-5.592,2.281
				c-0.569,0.297-0.821,0.676-0.931,1.326c-1.317,7.801-2.673,15.596-4.02,23.392c-0.015,0.089-0.045,0.175-0.077,0.299
				c-2.704,0-5.396,0-8.149,0c0.339-1.981,0.671-3.945,1.013-5.907c1.185-6.809,2.374-13.616,3.558-20.425
				c0.188-1.081-0.047-1.358-1.124-1.365c-0.437-0.003-0.874,0-1.398,0c0.249-1.43,0.483-2.772,0.719-4.125
				c3.659,0,7.258,0,10.879,0c-0.096,0.618-0.184,1.187-0.265,1.708c1.56-0.591,3.071-1.238,4.63-1.735
				c1.897-0.604,3.863-0.864,5.86-0.706c2.971,0.235,4.774,2.084,4.737,5.068c-0.019,1.521-0.34,3.046-0.596,4.557
				c-0.932,5.506-1.895,11.008-2.842,16.511c-0.043,0.252-0.073,0.509-0.073,0.764c0,0.721,0.344,1.119,1.061,1.08
				c0.595-0.032,1.214-0.128,1.765-0.343c1.143-0.446,2.248-0.99,3.356-1.489c-0.29-1.134-0.615-2.151-0.804-3.193
				c-0.761-4.194-0.084-8.217,1.681-12.049c1.914-4.154,4.739-7.534,8.921-9.564c3.913-1.899,7.856-2.054,11.646,0.36
				c2.543,1.619,4.133,4.008,4.987,6.858c0.447,1.489,0.892,2.467,3.211,1.423c1.07-0.482,2.042-1.198,3.015-1.87
				c0.243-0.168,0.401-0.564,0.457-0.88c0.939-5.34,1.856-10.683,2.778-16.026c0.163-0.943-0.084-1.242-1.038-1.248
				c-0.463-0.003-0.925,0-1.49,0c0.24-1.412,0.468-2.752,0.704-4.136C274.591,268.068,278.187,268.068,281.861,268.068z
				 M289.737,300.52c0.071,2.746,0.466,5.323,2.069,7.562c1.256,1.756,3.126,2.52,4.965,2.099c0.828-0.19,1.31-0.499,1.473-1.495
				c1.116-6.819,2.329-13.622,3.491-20.433c0.039-0.229-0.05-0.577-0.212-0.728c-0.894-0.83-1.975-1.218-3.196-1.129
				c-2.115,0.154-3.631,1.365-4.877,2.937C290.838,292.625,289.869,296.476,289.737,300.52z M244.471,302.992
				c0,0.605-0.044,1.213,0.008,1.814c0.139,1.604,0.366,3.197,1.255,4.594c0.878,1.38,2.222,1.711,3.51,0.713
				c0.829-0.642,1.613-1.445,2.154-2.336c2.953-4.86,4.032-10.195,3.743-15.831c-0.078-1.516-0.356-3.007-1.135-4.347
				c-0.936-1.611-2.348-1.942-3.785-0.774c-0.762,0.619-1.46,1.389-1.984,2.218C245.553,293.295,244.597,298.041,244.471,302.992z"
				/>
			<path class="st3" d="M333.051,299.934c-1.558-1.897-3.061-3.702-4.534-5.532c-0.715-0.888-1.408-1.797-2.051-2.737
				c-1.636-2.39-1.031-5.462,1.337-7.148c1.982-1.411,4.228-2.027,6.602-2.212c4.685-0.365,9.29,0.302,13.874,1.175
				c0.088,0.017,0.17,0.061,0.306,0.112c-0.358,1.901-0.712,3.786-1.043,5.541c-2.497-0.642-4.91-1.322-7.353-1.862
				c-1.053-0.233-2.174-0.262-3.259-0.227c-1.453,0.047-2.051,0.972-1.416,2.278c0.554,1.14,1.272,2.221,2.046,3.23
				c3.299,4.307,6.648,8.576,9.972,12.863c2.012,2.595,1.334,6.108-1.518,7.729c-2.133,1.213-4.48,1.802-6.88,2.183
				c-3.337,0.53-6.676,0.636-9.983-0.205c-1.975-0.503-3.767-1.341-5.031-3.044c-1.365-1.839-1.912-5.677,0.79-7.915
				c1.748-1.448,3.725-2.447,5.792-3.309C331.449,300.542,332.21,300.263,333.051,299.934z M335.784,303.492
				c-1.197,0.737-2.407,1.316-3.416,2.139c-1.882,1.536-1.684,3.564,0.36,4.879c1.903,1.225,3.958,1.189,6.044,0.656
				c1.24-0.317,1.584-1.137,0.87-2.205C338.445,307.167,337.16,305.432,335.784,303.492z"/>
			<path class="st3" d="M322.935,268.081c-0.207,4.761-1.045,9.165-4.225,12.834c-0.643-0.483-1.235-0.894-1.781-1.359
				c-0.148-0.127-0.25-0.434-0.216-0.631c0.594-3.463,1.208-6.922,1.838-10.378c0.031-0.172,0.242-0.441,0.374-0.444
				C320.225,268.067,321.525,268.081,322.935,268.081z"/>
		</g>
	</g>
	<g>
		<g>
			<path class="st3" d="M198.662,364.837c0.16-0.842,0.329-1.682,0.479-2.526c0.706-3.973,1.407-7.947,2.11-11.921
				c0.698-3.951,1.395-7.903,2.094-11.854c0.495-2.8,0.989-5.6,1.49-8.398c0.131-0.73-0.09-1.016-0.824-1.02
				c-0.456-0.002-0.911,0-1.405,0c0.202-1.269,0.397-2.487,0.592-3.714c3.245,0,6.456,0,9.711,0
				c-0.083,0.576-0.164,1.136-0.253,1.753c0.206-0.116,0.375-0.217,0.549-0.309c2.546-1.356,5.26-2.076,8.146-2.085
				c0.6-0.002,1.216,0.087,1.799,0.235c1.311,0.331,2.006,0.978,2.799,2.478c0.106-0.054,0.214-0.106,0.32-0.163
				c2.397-1.289,4.929-2.164,7.641-2.473c1.212-0.138,2.431-0.188,3.613,0.211c1.695,0.571,2.534,1.826,2.813,3.536
				c0.184,1.126-0.046,2.215-0.242,3.31c-0.749,4.175-1.495,8.351-2.242,12.526c-0.747,4.176-1.494,8.351-2.238,12.527
				c-0.161,0.903-0.331,1.805-0.464,2.711c-0.127,0.864,0.338,1.373,1.193,1.202c0.813-0.162,1.621-0.415,2.383-0.741
				c0.872-0.373,1.695-0.861,2.526-1.323c0.134-0.074,0.258-0.263,0.286-0.417c0.434-2.415,0.85-4.833,1.271-7.25
				c0.563-3.23,1.127-6.46,1.69-9.69c0.02-0.113,0.038-0.227,0.045-0.341c0.04-0.637-0.165-0.854-0.805-0.855
				c-0.481-0.001-0.962,0-1.486,0c0.216-1.245,0.426-2.458,0.641-3.697c3.233,0,6.461,0,9.718,0
				c-0.156,0.909-0.307,1.801-0.461,2.692c-0.68,3.92-1.359,7.839-2.043,11.758c-0.487,2.79-0.982,5.578-1.473,8.367
				c-0.002,0.011-0.006,0.022-0.008,0.033c-0.188,1.081,0.241,1.601,1.326,1.423c0.769-0.126,1.527-0.404,2.249-0.711
				c0.809-0.345,1.569-0.805,2.356-1.204c0.217-0.11,0.308-0.268,0.348-0.503c0.486-2.848,0.98-5.694,1.472-8.541
				c0.656-3.796,1.313-7.592,1.97-11.387c0.602-3.479,1.205-6.959,1.805-10.439c0.021-0.124,0.027-0.252,0.025-0.377
				c-0.008-0.485-0.211-0.694-0.693-0.699c-0.526-0.006-1.051-0.001-1.602-0.001c0.219-1.257,0.431-2.475,0.645-3.706
				c3.237,0,6.458,0,9.716,0c-0.134,0.784-0.263,1.549-0.395,2.314c-0.631,3.661-1.263,7.321-1.894,10.982
				c-0.653,3.785-1.302,7.57-1.959,11.354c-0.667,3.841-1.343,7.679-2.011,11.52c-0.165,0.948,0.243,1.409,1.209,1.34
				c1.07-0.077,2.046-0.495,3.004-0.935c0.812-0.373,1.606-0.786,2.393-1.208c0.143-0.077,0.284-0.273,0.312-0.434
				c0.832-4.743,1.651-9.488,2.469-14.233c0.838-4.858,1.672-9.717,2.508-14.575c0.078-0.452,0.161-0.903,0.237-1.355
				c0.021-0.124,0.031-0.251,0.03-0.376c-0.007-0.518-0.218-0.734-0.733-0.741c-0.503-0.007-1.006-0.001-1.565-0.001
				c0.218-1.24,0.429-2.44,0.642-3.652c3.243,0,6.465,0,9.72,0c-1.273,7.353-2.543,14.688-3.812,22.023
				c0.023,0.015,0.046,0.03,0.069,0.045c0.501-0.396,1.009-0.782,1.5-1.189c2.293-1.904,4.309-4.057,5.878-6.606
				c0.042-0.068,0.101-0.132,0.124-0.206c0.218-0.69,0.686-0.83,1.382-0.813c2.122,0.053,4.247,0.019,6.37,0.019
				c0.125,0,0.25,0,0.463,0c-0.2,0.656-0.354,1.275-0.575,1.868c-0.725,1.945-1.908,3.598-3.326,5.093
				c-1.309,1.38-2.778,2.571-4.346,3.642c-0.206,0.141-0.25,0.259-0.165,0.501c1.35,3.837,2.688,7.678,4.032,11.517
				c0.493,1.407,1.625,1.983,3.125,1.586c1.337-0.354,2.457-1.111,3.535-1.938c0.417-0.32,0.812-0.67,1.285-1.064
				c-0.099,0.586-0.186,1.104-0.275,1.623c-0.012,0.068-0.037,0.134-0.04,0.202c-0.032,0.634-0.303,1.142-0.727,1.617
				c-1.623,1.819-3.473,3.31-5.833,4.051c-1.424,0.447-2.88,0.617-4.326,0.097c-1.338-0.481-2.281-1.411-2.763-2.746
				c-1.369-3.794-2.709-7.598-4.061-11.397c-0.05-0.14-0.102-0.278-0.166-0.453c-0.717,0.307-1.422,0.602-2.117,0.918
				c-0.089,0.04-0.163,0.188-0.182,0.296c-0.723,4.215-1.44,8.431-2.157,12.646c-0.021,0.123-0.051,0.244-0.079,0.378
				c-2.426,0-4.844,0-7.278,0c0.185-1.079,0.367-2.139,0.564-3.287c-0.214,0.166-0.363,0.284-0.515,0.399
				c-1.757,1.327-3.609,2.481-5.735,3.134c-1.188,0.365-2.397,0.52-3.635,0.337c-2.147-0.318-3.395-1.547-3.764-3.697
				c-0.011-0.065-0.022-0.131-0.043-0.262c-0.151,0.134-0.266,0.236-0.381,0.339c-1.637,1.454-3.426,2.654-5.542,3.301
				c-1.189,0.364-2.402,0.5-3.638,0.318c-2.152-0.317-3.428-1.588-3.762-3.737c-0.01-0.065-0.022-0.131-0.046-0.266
				c-0.193,0.174-0.349,0.316-0.508,0.456c-1.526,1.347-3.186,2.48-5.125,3.151c-1.501,0.52-3.033,0.725-4.599,0.321
				c-1.807-0.467-2.805-1.673-3.153-3.474c-0.214-1.108-0.036-2.189,0.16-3.277c0.78-4.321,1.547-8.644,2.322-12.966
				c0.764-4.266,1.53-8.531,2.296-12.796c0.12-0.666,0.247-1.33,0.359-1.997c0.032-0.191,0.037-0.389,0.027-0.583
				c-0.024-0.484-0.289-0.785-0.768-0.876c-0.719-0.136-1.39,0.092-2.049,0.318c-1.427,0.489-2.747,1.207-4.045,1.965
				c-0.101,0.059-0.197,0.198-0.218,0.313c-0.722,4.017-1.434,8.036-2.147,12.054c-0.722,4.064-1.443,8.127-2.166,12.191
				c-0.494,2.777-0.989,5.553-1.484,8.329c-0.018,0.099-0.043,0.197-0.065,0.3c-2.422,0-4.819,0-7.268,0
				c0.088-0.515,0.169-1.017,0.258-1.517c0.913-5.112,1.824-10.225,2.742-15.337c1.017-5.664,2.038-11.328,3.064-16.991
				c0.233-1.285-0.262-1.861-1.543-1.608c-0.857,0.169-1.704,0.462-2.506,0.814c-0.973,0.428-1.897,0.969-2.832,1.479
				c-0.117,0.064-0.228,0.228-0.252,0.361c-1.182,6.66-2.354,13.322-3.527,19.983c-0.736,4.178-1.472,8.355-2.209,12.532
				c-0.018,0.101-0.045,0.201-0.082,0.36c-2.418,0-4.846,0-7.273,0C198.662,364.975,198.662,364.906,198.662,364.837z"/>
			<path class="st3" d="M249.594,335.108c-1.956-0.002-3.189-1.636-2.69-3.564c0.415-1.603,1.842-2.854,3.484-3.057
				c1.962-0.241,3.448,1.377,3.091,3.368C253.162,333.63,251.394,335.11,249.594,335.108z"/>
		</g>
	</g>
	<path class="st3" d="M248.207,403.287c-10.479,0-20.753-1.767-30.535-5.252c-9.454-3.368-18.244-8.261-26.126-14.544
		c-15.768-12.569-27.048-30.221-31.763-49.706c-0.204-0.843,0.314-1.692,1.157-1.896c0.844-0.203,1.692,0.315,1.896,1.157
		c4.551,18.811,15.443,35.853,30.668,47.989c15.685,12.503,34.601,19.111,54.704,19.111c20.174,0,39.877-7.009,55.479-19.737
		c15.386-12.551,26.165-30.084,30.353-49.371c0.184-0.847,1.02-1.385,1.868-1.201c0.848,0.184,1.386,1.02,1.202,1.868
		c-4.338,19.979-15.502,38.14-31.437,51.138C289.511,396.027,269.103,403.287,248.207,403.287z"/>
	<path class="st3" d="M174.065,263.91c-0.302,0-0.608-0.087-0.878-0.269c-0.719-0.486-0.908-1.462-0.422-2.18
		c16.966-25.121,45.169-40.119,75.442-40.119c27.779,0,53.678,12.452,71.058,34.163c0.542,0.677,0.432,1.666-0.245,2.207
		c-0.677,0.543-1.665,0.432-2.207-0.244c-16.78-20.962-41.786-32.985-68.606-32.985c-29.228,0-56.458,14.481-72.84,38.736
		C175.064,263.668,174.569,263.91,174.065,263.91z"/>
</g>
<g>
	<g>
		<g>
			<path class="st4" d="M451.637,312.33c0.086-1.275,0.18-2.549,0.257-3.825c0.361-6.033,1.147-12,2.818-17.823
				c1.451-5.054,3.514-9.809,6.975-13.855c0.212-0.248,0.516-0.45,0.636-0.734c0.134-0.317,0.218-0.741,0.111-1.044
				c-0.074-0.211-0.495-0.382-0.781-0.418c-0.522-0.066-1.058-0.019-1.65-0.019c0.21-1.346,0.398-2.607,0.618-3.862
				c0.022-0.123,0.23-0.262,0.376-0.301c0.196-0.053,0.416-0.014,0.626-0.016c4.808-0.035,9.622,0.21,14.405-0.629
				c1.973-0.346,3.959-0.081,5.775,0.884c2.729,1.45,4.461,4.754,3.989,7.869c-0.624,4.117-1.361,8.217-2.064,12.322
				c-1.017,5.94-2.051,11.877-3.071,17.816c-0.196,1.143,0.266,1.698,1.404,1.519c0.86-0.135,1.712-0.431,2.52-0.77
				c0.919-0.386,1.769-0.934,2.679-1.345c0.59-0.266,0.768-0.694,0.87-1.287c1.032-6.055,2.089-12.106,3.138-18.158
				c0.036-0.206,0.073-0.414,0.081-0.622c0.028-0.741-0.187-0.971-0.92-0.994c-0.256-0.008-0.512-0.002-0.769-0.002
				c-0.254,0-0.508,0-0.87,0c0.245-1.391,0.479-2.721,0.717-4.071c3.647,0,7.227,0,10.868,0c-0.089,0.573-0.173,1.108-0.276,1.773
				c3.141-1.99,6.522-2.509,10.121-2.518c-0.345,1.994-0.68,3.928-1.009,5.829c-1.466,0.128-2.883,0.202-4.286,0.386
				c-1.86,0.243-3.65,0.73-5.19,1.885c-0.464,0.348-0.751,0.756-0.854,1.364c-1.295,7.639-2.617,15.273-3.934,22.908
				c-0.011,0.065-0.05,0.125-0.089,0.218c-2.692,0-5.385,0-8.122,0c0.197-1.168,0.389-2.307,0.617-3.66
				c-0.327,0.278-0.507,0.432-0.687,0.584c-2,1.685-4.175,3.08-6.778,3.571c-1.099,0.207-2.281,0.255-3.384,0.094
				c-2.403-0.349-3.891-1.965-4.018-4.39c-0.07-1.329,0.121-2.688,0.323-4.013c0.386-2.529,0.867-5.044,1.304-7.566
				c0.035-0.2,0.032-0.406,0.055-0.728c-1.627,0.118-3.204,0.193-4.773,0.355c-2.737,0.283-5.428,0.794-8.022,1.76
				c-0.485,0.181-0.692,0.42-0.717,0.936c-0.202,4.046-0.426,8.09-0.64,12.135c-0.016,0.295-0.002,0.592-0.002,0.958
				c-2.848,0-5.614,0-8.379,0C451.637,314.007,451.637,313.168,451.637,312.33z M475.094,293.143
				c0.051-0.168,0.106-0.298,0.129-0.434c0.906-5.274,1.813-10.547,2.708-15.823c0.222-1.311-0.357-2.089-1.68-2.287
				c-0.365-0.055-0.746-0.065-1.114-0.035c-2,0.164-3.602,1.174-5.052,2.462c-1.872,1.663-3.244,3.705-4.386,5.913
				c-1.666,3.222-2.754,6.643-3.565,10.204C466.469,293.143,470.751,293.143,475.094,293.143z"/>
			<path class="st4" d="M585.772,268.068c-0.285,1.663-0.566,3.307-0.849,4.95c-1.325,7.682-2.649,15.364-3.977,23.045
				c-0.714,4.127-1.434,8.253-2.153,12.38c-0.222,1.275,0.195,1.763,1.479,1.649c0.482-0.043,0.98-0.135,1.423-0.32
				c1.307-0.546,2.59-1.152,3.885-1.728c0.32-0.142,0.419-0.304,0.33-0.697c-1.98-8.668,0.262-16.08,6.813-22.084
				c2.377-2.179,5.267-3.305,8.585-3.005c1.668,0.151,3.153,0.765,4.494,1.752c0.148,0.109,0.297,0.216,0.535,0.39
				c0.253-1.449,0.498-2.828,0.734-4.208c0.366-2.133,0.728-4.266,1.088-6.4c0.042-0.252,0.074-0.508,0.081-0.763
				c0.016-0.538-0.238-0.828-0.798-0.822c-0.557,0.006-1.113,0.001-1.764,0.001c0.246-1.42,0.481-2.779,0.719-4.158
				c3.641,0,7.245,0,10.9,0c-0.399,2.327-0.788,4.617-1.183,6.906c-1.33,7.705-2.66,15.409-3.992,23.113
				c-0.583,3.37-1.164,6.741-1.764,10.109c-0.332,1.862,0.251,2.518,2.041,1.882c1.804-0.641,3.493-1.608,5.225-2.446
				c0.348-0.169,0.665-0.402,1.077-0.654c-0.177,1.565-0.336,2.926-1.604,4.02c-2.122,1.832-4.306,3.519-7.065,4.204
				c-1.112,0.276-2.303,0.357-3.452,0.325c-1.719-0.047-2.724-0.732-4.018-2.404c-6.045,4.32-12.374,2.742-15.55-2.917
				c-0.216,0.175-0.425,0.338-0.628,0.508c-2.362,1.965-4.881,3.657-7.883,4.499c-1.481,0.416-2.979,0.54-4.482,0.135
				c-2.167-0.583-3.548-2.298-3.519-4.706c0.019-1.568,0.326-3.14,0.584-4.697c0.601-3.627,1.25-7.246,1.878-10.868
				c0.012-0.067,0.001-0.138,0.001-0.277c-0.135,0.085-0.247,0.133-0.333,0.211c-1.285,1.166-2.691,2.139-4.28,2.858
				c-0.244,0.11-0.466,0.505-0.504,0.795c-0.594,4.419-2.341,8.314-5.304,11.638c-2.568,2.881-5.66,4.913-9.571,5.419
				c-4.42,0.573-7.929-1.035-10.571-4.594c-0.135-0.182-0.262-0.369-0.38-0.536c-1.06,0.852-2.055,1.73-3.129,2.5
				c-1.979,1.419-4.16,2.359-6.625,2.552c-2.398,0.188-4.411-0.776-5.309-2.599c-0.675-1.371-0.73-2.823-0.475-4.3
				c1.128-6.535,2.263-13.069,3.39-19.604c0.206-1.197-0.365-1.792-1.581-1.612c-2.047,0.302-3.797,1.344-5.592,2.281
				c-0.569,0.297-0.821,0.676-0.931,1.326c-1.317,7.801-2.673,15.596-4.02,23.392c-0.015,0.089-0.045,0.175-0.077,0.299
				c-2.704,0-5.396,0-8.149,0c0.339-1.981,0.671-3.945,1.013-5.907c1.185-6.809,2.374-13.616,3.558-20.425
				c0.188-1.081-0.047-1.358-1.124-1.365c-0.437-0.003-0.874,0-1.398,0c0.249-1.43,0.483-2.772,0.719-4.125
				c3.659,0,7.258,0,10.879,0c-0.096,0.618-0.184,1.187-0.265,1.708c1.56-0.591,3.071-1.238,4.63-1.735
				c1.897-0.604,3.863-0.864,5.859-0.706c2.971,0.235,4.774,2.084,4.737,5.068c-0.019,1.521-0.341,3.046-0.596,4.557
				c-0.932,5.506-1.895,11.008-2.842,16.511c-0.043,0.252-0.073,0.509-0.073,0.764c0,0.721,0.344,1.119,1.061,1.08
				c0.595-0.032,1.214-0.128,1.765-0.343c1.143-0.446,2.248-0.99,3.356-1.489c-0.29-1.134-0.615-2.151-0.804-3.193
				c-0.761-4.194-0.084-8.217,1.681-12.049c1.914-4.154,4.739-7.534,8.921-9.564c3.913-1.899,7.856-2.054,11.646,0.36
				c2.543,1.619,4.133,4.008,4.987,6.858c0.447,1.489,0.892,2.467,3.211,1.423c1.07-0.482,2.042-1.198,3.015-1.87
				c0.243-0.168,0.401-0.564,0.457-0.88c0.939-5.34,1.856-10.683,2.778-16.026c0.163-0.943-0.084-1.242-1.038-1.248
				c-0.463-0.003-0.925,0-1.49,0c0.24-1.412,0.468-2.752,0.704-4.136C578.502,268.068,582.098,268.068,585.772,268.068z
				 M593.648,300.52c0.071,2.746,0.466,5.323,2.069,7.562c1.256,1.756,3.126,2.52,4.965,2.099c0.828-0.19,1.31-0.499,1.473-1.495
				c1.116-6.819,2.329-13.622,3.491-20.433c0.039-0.229-0.05-0.577-0.212-0.728c-0.894-0.83-1.975-1.218-3.196-1.129
				c-2.115,0.154-3.631,1.365-4.877,2.937C594.749,292.625,593.781,296.476,593.648,300.52z M548.382,302.992
				c0,0.605-0.044,1.213,0.008,1.814c0.139,1.604,0.366,3.197,1.255,4.594c0.878,1.38,2.222,1.711,3.51,0.713
				c0.829-0.642,1.613-1.445,2.154-2.336c2.953-4.86,4.032-10.195,3.743-15.831c-0.078-1.516-0.356-3.007-1.135-4.347
				c-0.936-1.611-2.348-1.942-3.785-0.774c-0.762,0.619-1.46,1.389-1.984,2.218C549.464,293.295,548.508,298.041,548.382,302.992z"
				/>
			<path class="st4" d="M636.963,299.934c-1.558-1.897-3.061-3.702-4.534-5.532c-0.715-0.888-1.408-1.797-2.051-2.737
				c-1.636-2.39-1.031-5.462,1.337-7.148c1.982-1.411,4.228-2.027,6.602-2.212c4.685-0.365,9.29,0.302,13.874,1.175
				c0.088,0.017,0.17,0.061,0.306,0.112c-0.358,1.901-0.712,3.786-1.043,5.541c-2.497-0.642-4.91-1.322-7.353-1.862
				c-1.054-0.233-2.174-0.262-3.259-0.227c-1.453,0.047-2.051,0.972-1.416,2.278c0.554,1.14,1.272,2.221,2.046,3.23
				c3.299,4.307,6.648,8.576,9.972,12.863c2.012,2.595,1.334,6.108-1.518,7.729c-2.133,1.213-4.48,1.802-6.88,2.183
				c-3.337,0.53-6.676,0.636-9.983-0.205c-1.975-0.503-3.767-1.341-5.031-3.044c-1.365-1.839-1.912-5.677,0.79-7.915
				c1.748-1.448,3.725-2.447,5.792-3.309C635.361,300.542,636.121,300.263,636.963,299.934z M639.695,303.492
				c-1.197,0.737-2.407,1.316-3.416,2.139c-1.882,1.536-1.684,3.564,0.36,4.879c1.903,1.225,3.958,1.189,6.044,0.656
				c1.24-0.317,1.584-1.137,0.87-2.205C642.356,307.167,641.071,305.432,639.695,303.492z"/>
			<path class="st4" d="M626.847,268.081c-0.207,4.761-1.045,9.165-4.225,12.834c-0.643-0.483-1.235-0.894-1.781-1.359
				c-0.148-0.127-0.25-0.434-0.216-0.631c0.594-3.463,1.208-6.922,1.838-10.378c0.031-0.172,0.242-0.441,0.374-0.444
				C624.136,268.067,625.437,268.081,626.847,268.081z"/>
		</g>
	</g>
	<g>
		<g>
			<path class="st4" d="M502.573,364.837c0.16-0.842,0.329-1.682,0.479-2.526c0.706-3.973,1.407-7.947,2.11-11.921
				c0.698-3.951,1.395-7.903,2.094-11.854c0.495-2.8,0.989-5.6,1.49-8.398c0.131-0.73-0.09-1.016-0.824-1.02
				c-0.456-0.002-0.911,0-1.405,0c0.202-1.269,0.397-2.487,0.592-3.714c3.245,0,6.456,0,9.711,0
				c-0.083,0.576-0.164,1.136-0.253,1.753c0.206-0.116,0.375-0.217,0.549-0.309c2.546-1.356,5.26-2.076,8.146-2.085
				c0.6-0.002,1.216,0.087,1.799,0.235c1.311,0.331,2.006,0.978,2.799,2.478c0.106-0.054,0.214-0.106,0.32-0.163
				c2.397-1.289,4.929-2.164,7.641-2.473c1.212-0.138,2.431-0.188,3.613,0.211c1.695,0.571,2.534,1.826,2.813,3.536
				c0.184,1.126-0.046,2.215-0.242,3.31c-0.749,4.175-1.495,8.351-2.242,12.526c-0.747,4.176-1.494,8.351-2.238,12.527
				c-0.161,0.903-0.331,1.805-0.464,2.711c-0.127,0.864,0.338,1.373,1.193,1.202c0.813-0.162,1.621-0.415,2.383-0.741
				c0.872-0.373,1.695-0.861,2.526-1.323c0.134-0.074,0.258-0.263,0.286-0.417c0.434-2.415,0.85-4.833,1.271-7.25
				c0.563-3.23,1.127-6.46,1.69-9.69c0.02-0.113,0.038-0.227,0.045-0.341c0.041-0.637-0.165-0.854-0.805-0.855
				c-0.481-0.001-0.962,0-1.486,0c0.216-1.245,0.426-2.458,0.641-3.697c3.233,0,6.461,0,9.718,0
				c-0.156,0.909-0.307,1.801-0.461,2.692c-0.68,3.92-1.359,7.839-2.043,11.758c-0.487,2.79-0.982,5.578-1.473,8.367
				c-0.002,0.011-0.006,0.022-0.008,0.033c-0.188,1.081,0.241,1.601,1.326,1.423c0.769-0.126,1.527-0.404,2.249-0.711
				c0.809-0.345,1.569-0.805,2.356-1.204c0.217-0.11,0.308-0.268,0.348-0.503c0.486-2.848,0.98-5.694,1.472-8.541
				c0.656-3.796,1.313-7.592,1.97-11.387c0.602-3.479,1.205-6.959,1.805-10.439c0.021-0.124,0.027-0.252,0.025-0.377
				c-0.008-0.485-0.211-0.694-0.693-0.699c-0.526-0.006-1.051-0.001-1.602-0.001c0.219-1.257,0.431-2.475,0.645-3.706
				c3.237,0,6.458,0,9.716,0c-0.134,0.784-0.263,1.549-0.395,2.314c-0.631,3.661-1.263,7.321-1.894,10.982
				c-0.653,3.785-1.302,7.57-1.959,11.354c-0.667,3.841-1.343,7.679-2.011,11.52c-0.165,0.948,0.243,1.409,1.21,1.34
				c1.07-0.077,2.046-0.495,3.004-0.935c0.812-0.373,1.606-0.786,2.393-1.208c0.143-0.077,0.284-0.273,0.312-0.434
				c0.832-4.743,1.651-9.488,2.469-14.233c0.838-4.858,1.672-9.717,2.508-14.575c0.078-0.452,0.161-0.903,0.236-1.355
				c0.021-0.124,0.032-0.251,0.03-0.376c-0.007-0.518-0.218-0.734-0.733-0.741c-0.503-0.007-1.006-0.001-1.565-0.001
				c0.218-1.24,0.429-2.44,0.642-3.652c3.243,0,6.465,0,9.72,0c-1.273,7.353-2.543,14.688-3.812,22.023
				c0.023,0.015,0.046,0.03,0.069,0.045c0.501-0.396,1.009-0.782,1.5-1.189c2.293-1.904,4.309-4.057,5.878-6.606
				c0.042-0.068,0.101-0.132,0.124-0.206c0.218-0.69,0.686-0.83,1.382-0.813c2.122,0.053,4.247,0.019,6.37,0.019
				c0.125,0,0.25,0,0.463,0c-0.2,0.656-0.354,1.275-0.575,1.868c-0.725,1.945-1.908,3.598-3.326,5.093
				c-1.309,1.38-2.778,2.571-4.346,3.642c-0.206,0.141-0.25,0.259-0.165,0.501c1.35,3.837,2.688,7.678,4.032,11.517
				c0.493,1.407,1.625,1.983,3.125,1.586c1.337-0.354,2.457-1.111,3.535-1.938c0.417-0.32,0.812-0.67,1.285-1.064
				c-0.099,0.586-0.186,1.104-0.275,1.623c-0.012,0.068-0.037,0.134-0.04,0.202c-0.032,0.634-0.303,1.142-0.727,1.617
				c-1.623,1.819-3.473,3.31-5.833,4.051c-1.424,0.447-2.88,0.617-4.326,0.097c-1.338-0.481-2.281-1.411-2.763-2.746
				c-1.369-3.794-2.709-7.598-4.061-11.397c-0.05-0.14-0.102-0.278-0.166-0.453c-0.717,0.307-1.422,0.602-2.117,0.918
				c-0.089,0.04-0.163,0.188-0.182,0.296c-0.723,4.215-1.44,8.431-2.157,12.646c-0.021,0.123-0.051,0.244-0.079,0.378
				c-2.426,0-4.844,0-7.278,0c0.185-1.079,0.367-2.139,0.564-3.287c-0.214,0.166-0.363,0.284-0.515,0.399
				c-1.757,1.327-3.609,2.481-5.735,3.134c-1.188,0.365-2.397,0.52-3.635,0.337c-2.147-0.318-3.395-1.547-3.764-3.697
				c-0.011-0.065-0.022-0.131-0.043-0.262c-0.151,0.134-0.266,0.236-0.381,0.339c-1.637,1.454-3.426,2.654-5.542,3.301
				c-1.189,0.364-2.401,0.5-3.638,0.318c-2.152-0.317-3.428-1.588-3.762-3.737c-0.01-0.065-0.022-0.131-0.046-0.266
				c-0.193,0.174-0.349,0.316-0.508,0.456c-1.526,1.347-3.186,2.48-5.125,3.151c-1.501,0.52-3.033,0.725-4.599,0.321
				c-1.807-0.467-2.805-1.673-3.153-3.474c-0.214-1.108-0.036-2.189,0.16-3.277c0.78-4.321,1.547-8.644,2.322-12.966
				c0.764-4.266,1.53-8.531,2.296-12.796c0.12-0.666,0.247-1.33,0.359-1.997c0.032-0.191,0.037-0.389,0.027-0.583
				c-0.024-0.484-0.289-0.785-0.768-0.876c-0.719-0.136-1.39,0.092-2.049,0.318c-1.427,0.489-2.747,1.207-4.045,1.965
				c-0.101,0.059-0.197,0.198-0.218,0.313c-0.722,4.017-1.434,8.036-2.147,12.054c-0.722,4.064-1.443,8.127-2.166,12.191
				c-0.494,2.777-0.989,5.553-1.484,8.329c-0.018,0.099-0.043,0.197-0.065,0.3c-2.422,0-4.819,0-7.268,0
				c0.088-0.515,0.169-1.017,0.258-1.517c0.913-5.112,1.824-10.225,2.742-15.337c1.017-5.664,2.038-11.328,3.064-16.991
				c0.233-1.285-0.262-1.861-1.543-1.608c-0.857,0.169-1.704,0.462-2.506,0.814c-0.973,0.428-1.897,0.969-2.832,1.479
				c-0.117,0.064-0.228,0.228-0.252,0.361c-1.182,6.66-2.354,13.322-3.527,19.983c-0.736,4.178-1.472,8.355-2.209,12.532
				c-0.018,0.101-0.045,0.201-0.082,0.36c-2.418,0-4.846,0-7.273,0C502.573,364.975,502.573,364.906,502.573,364.837z"/>
			<path class="st4" d="M553.505,335.108c-1.956-0.002-3.189-1.636-2.69-3.564c0.415-1.603,1.842-2.854,3.484-3.057
				c1.962-0.241,3.448,1.377,3.091,3.368C557.073,333.63,555.306,335.11,553.505,335.108z"/>
		</g>
	</g>
	<path class="st4" d="M552.118,403.287c-10.479,0-20.753-1.767-30.535-5.252c-9.454-3.368-18.244-8.261-26.126-14.544
		c-15.768-12.569-27.048-30.221-31.763-49.706c-0.204-0.843,0.314-1.692,1.157-1.896c0.844-0.203,1.692,0.315,1.896,1.157
		c4.551,18.811,15.443,35.853,30.668,47.989c15.685,12.503,34.601,19.111,54.704,19.111c20.174,0,39.877-7.009,55.479-19.737
		c15.386-12.551,26.165-30.084,30.353-49.371c0.184-0.847,1.02-1.385,1.868-1.201c0.848,0.184,1.386,1.02,1.202,1.868
		c-4.338,19.979-15.502,38.14-31.437,51.138C593.422,396.027,573.014,403.287,552.118,403.287z"/>
	<path class="st4" d="M477.976,263.91c-0.302,0-0.608-0.087-0.878-0.269c-0.719-0.486-0.908-1.462-0.422-2.18
		c16.966-25.121,45.169-40.119,75.442-40.119c27.779,0,53.678,12.452,71.058,34.163c0.542,0.677,0.432,1.666-0.245,2.207
		c-0.677,0.543-1.665,0.432-2.207-0.244c-16.781-20.962-41.786-32.985-68.606-32.985c-29.228,0-56.458,14.481-72.84,38.736
		C478.976,263.668,478.48,263.91,477.976,263.91z"/>
</g>
</svg>