<!-- Generator: Adobe Illustrator 23.0.1, SVG Export Plug-In  -->
<svg version="1.1" xmlns="http://www.w3.org/2000/svg" xmlns:xlink="http://www.w3.org/1999/xlink" x="0px" y="0px"
	 width="294.526px" height="46.181px" viewBox="0 0 294.526 46.181" style="enable-background:new 0 0 294.526 46.181;"
	 xml:space="preserve">
<style type="text/css">
	.st0{fill:#CE763A;}
	.st1{fill:#B95C1C;}
	.st2{fill:#773F2C;}
	.st3{fill:#622A16;}
	.st4{fill:#E2B385;}
	.st5{fill:#CD945C;}
	.st6{fill:#663A26;}
</style>
<defs>
</defs>
<g>
	<g>
		<path class="st0" d="M9.082,6.102c-0.69,1.157-1.684,2.52-2.431,3.503c-0.343,0.386-0.681,0.823-1.013,1.3
			c-0.016,0.02-0.025,0.031-0.025,0.031h0.003c-2.365,3.417-4.384,9.056-5.311,15.683c-1.552,11.047,2.957,19.579,10.212,19.562
			V2.692C10.518,2.692,10.323,4.02,9.082,6.102z"/>
		<path class="st1" d="M20.73,26.619c-0.926-6.628-2.946-12.266-5.311-15.683h0.003c0,0-0.009-0.011-0.025-0.031
			c-0.332-0.477-0.67-0.914-1.013-1.3c-0.748-0.984-1.741-2.346-2.431-3.503c-1.241-2.082-1.436-3.409-1.436-3.409v43.489
			C17.773,46.198,22.282,37.666,20.73,26.619z"/>
		<g>
			<g>
				<rect x="9.934" y="28.67" class="st2" width="1.166" height="5.287"/>
			</g>
			<g>
				<rect x="2.488" y="23.958" class="st2" width="1.166" height="5.287"/>
			</g>
			<g>
				<rect x="17.381" y="23.958" class="st2" width="1.166" height="5.287"/>
			</g>
			<g>
				<rect x="9.934" y="9.364" class="st2" width="1.166" height="5.287"/>
			</g>
			<g>
				<rect x="9.934" y="19.017" class="st2" width="1.166" height="5.287"/>
			</g>
			<g>
				<g>
					
						<rect x="3.535" y="15.268" transform="matrix(0.3334 -0.9428 0.9428 0.3334 -10.8158 16.406)" class="st2" width="5.318" height="1.166"/>
				</g>
				<g>
					
						<rect x="14.259" y="13.192" transform="matrix(0.9428 -0.3333 0.3333 0.9428 -4.4351 5.854)" class="st2" width="1.166" height="5.318"/>
				</g>
			</g>
			<g>
				<g>
					
						<rect x="14.105" y="37.557" transform="matrix(0.3334 -0.9428 0.9428 0.3334 -24.7831 41.2297)" class="st2" width="5.318" height="1.166"/>
				</g>
				<g>
					
						<rect x="3.689" y="35.481" transform="matrix(0.9428 -0.3333 0.3333 0.9428 -12.4694 3.6053)" class="st2" width="1.166" height="5.318"/>
				</g>
			</g>
			<g>
				<g>
					<rect x="6.031" y="20.593" class="st2" width="1.166" height="5.287"/>
				</g>
				<g>
					<rect x="13.838" y="20.593" class="st2" width="1.166" height="5.287"/>
				</g>
			</g>
			<g>
				<rect x="9.934" y="38.323" class="st2" width="1.166" height="5.287"/>
			</g>
			<g>
				<g>
					<rect x="6.031" y="30.686" class="st2" width="1.166" height="5.287"/>
				</g>
				<g>
					<rect x="13.838" y="30.686" class="st2" width="1.166" height="5.287"/>
				</g>
			</g>
		</g>
	</g>
	<g>
		<path class="st1" d="M56.214,25.577c-0.045-0.47-0.097-0.943-0.164-1.423c-0.926-6.628-2.946-12.266-5.311-15.683h0.003
			c0,0-0.009-0.011-0.025-0.031c-0.332-0.477-0.67-0.914-1.013-1.3c-0.748-0.984-1.741-2.346-2.431-3.503
			c-1.241-2.082-1.436-3.409-1.436-3.409v25.35H56.214z"/>
		<path class="st0" d="M45.838,0.227c0,0-0.194,1.327-1.436,3.409c-0.69,1.157-1.684,2.52-2.431,3.503
			c-0.343,0.386-0.681,0.823-1.013,1.3c-0.016,0.02-0.025,0.031-0.025,0.031h0.003c-2.365,3.417-4.384,9.056-5.311,15.683
			c-0.067,0.48-0.119,0.953-0.164,1.423h10.376V0.227z"/>
		<g>
			<g>
				<rect x="37.808" y="21.493" class="st2" width="1.166" height="4.085"/>
			</g>
			<g>
				<rect x="52.702" y="21.493" class="st3" width="1.166" height="4.085"/>
			</g>
			<g>
				<rect x="45.255" y="6.899" class="st2" width="1.166" height="5.287"/>
			</g>
			<g>
				<rect x="45.255" y="16.552" class="st2" width="1.166" height="5.287"/>
			</g>
			<g>
				<g>
					
						<rect x="38.855" y="12.803" transform="matrix(0.3333 -0.9428 0.9428 0.3333 15.0547 48.0633)" class="st2" width="5.318" height="1.166"/>
				</g>
				<g>
					
						<rect x="49.579" y="10.727" transform="matrix(0.9428 -0.3333 0.3333 0.9428 -1.5932 17.4869)" class="st2" width="1.166" height="5.318"/>
				</g>
			</g>
			<g>
				<g>
					<rect x="41.351" y="18.127" class="st2" width="1.166" height="5.287"/>
				</g>
				<g>
					<rect x="49.158" y="18.127" class="st2" width="1.166" height="5.287"/>
				</g>
			</g>
		</g>
		<path class="st4" d="M35.462,25.577h-2.727c-0.037,0.413-0.07,0.827-0.093,1.243c-0.606,11.208,5.338,19.364,13.196,19.361v-2.465
			V25.577H35.462z"/>
		<path class="st5" d="M59.034,26.821c-0.023-0.416-0.056-0.83-0.093-1.243h-2.727H45.838v18.139v2.465
			C53.696,46.185,59.64,38.029,59.034,26.821z"/>
		<g>
			<g>
				<path class="st6" d="M36.567,29.742c-0.999,0-0.999,1.549,0,1.549C37.566,31.291,37.566,29.742,36.567,29.742z"/>
			</g>
			<g>
				<path class="st6" d="M38.706,35.574c-0.999,0-0.999,1.549,0,1.549C39.704,37.123,39.704,35.574,38.706,35.574z"/>
			</g>
			<g>
				<path class="st6" d="M42.788,40.239c-0.999,0-0.999,1.549,0,1.549C43.787,41.788,43.787,40.239,42.788,40.239z"/>
			</g>
			<g>
				<path class="st6" d="M49.202,41.016c-0.999,0-0.999,1.549,0,1.549C50.201,42.565,50.201,41.016,49.202,41.016z"/>
			</g>
			<g>
				<path class="st6" d="M53.479,35.379c-0.999,0-0.999,1.549,0,1.549C54.478,36.928,54.478,35.379,53.479,35.379z"/>
			</g>
			<g>
				<path class="st6" d="M54.451,28.576c-0.999,0-0.999,1.549,0,1.549C55.45,30.125,55.45,28.576,54.451,28.576z"/>
			</g>
			<g>
				<path class="st6" d="M42.788,28.77c-0.999,0-0.999,1.549,0,1.549C43.787,30.319,43.787,28.77,42.788,28.77z"/>
			</g>
			<g>
				<path class="st6" d="M45.509,35.185c-0.999,0-0.999,1.549,0,1.549C46.508,36.734,46.508,35.185,45.509,35.185z"/>
			</g>
			<g>
				<path class="st6" d="M48.425,30.908c-0.999,0-0.999,1.549,0,1.549C49.424,32.457,49.424,30.908,48.425,30.908z"/>
			</g>
		</g>
	</g>
</g>
<g>
	<path class="st4" d="M121.213,4.911c0-0.615,0.013-1.146-0.003-1.676c-0.022-0.718,0.296-1.216,0.948-1.485
		c1.365-0.562,2.776-0.691,4.193-0.266c0.962,0.289,1.26,0.725,1.231,1.715c-0.169,5.703-0.34,11.406-0.542,17.107
		c-0.139,3.906-0.332,7.811-0.494,11.716c-0.061,1.455-0.122,2.911-0.144,4.368c-0.007,0.459-0.198,0.727-0.611,0.727
		c-1.206,0.001-2.414-0.023-3.617-0.098c-0.527-0.033-0.743-0.385-0.749-0.957c-0.084-8.328-0.198-16.656-0.276-24.984
		c-0.005-0.546-0.158-0.783-0.649-1.012c-1.03-0.48-2.054-0.998-3.002-1.62c-4.213-2.76-8.561-2.354-12.82-0.345
		c-5.422,2.558-8.08,7.174-8.89,12.965c-0.34,2.427-0.277,4.849,0.462,7.205c0.236,0.753,0.586,1.496,1.014,2.16
		c1.887,2.926,5.399,3.385,8.04,1.116c1.875-1.611,2.805-3.638,3.212-6.079c0.44-2.639,1.123-5.253,1.908-7.814
		c0.593-1.935,3.258-3.464,5.281-3.331c0.738,0.048,0.957,0.356,0.882,1.175c-0.23,2.538-0.478,5.074-0.667,7.615
		c-0.232,3.128,0.241,6.195,0.919,9.238c0.411,1.845-0.008,2.929-1.67,3.819c-0.796,0.427-1.696,0.718-2.583,0.902
		c-1.32,0.274-2.123-0.186-2.693-1.418c-0.241-0.523-0.367-1.099-0.543-1.651c-0.103-0.321-0.203-0.642-0.305-0.966
		c-1.204,0.97-2.333,1.965-3.549,2.842c-2.928,2.113-6.196,2.926-9.775,2.309c-3.707-0.64-6.511-3.542-7.358-7.628
		c-0.929-4.479-0.17-8.761,1.843-12.788c3.655-7.307,9.538-11.896,17.469-13.841C111.233,3.061,117.347,3.227,121.213,4.911z"/>
	<path class="st4" d="M241.021,16.616c0.876-2.272,1.627-4.45,2.551-6.551c1.071-2.436,2.292-4.805,3.453-7.202
		c0.084-0.174,0.197-0.334,0.304-0.496c0.985-1.484,2.858-1.372,3.645,0.257c0.17,0.352,0.218,0.888,0.08,1.246
		c-2.261,5.891-2.232,11.972-1.486,18.095c0.472,3.876,1.765,7.493,3.944,10.757c0.335,0.502,0.395,0.95,0.212,1.488
		c-0.437,1.286-1.104,2.427-2.117,3.344c-0.738,0.668-1.181,0.682-1.979,0.099c-1.211-0.884-2.008-2.093-2.638-3.421
		c-1.485-3.129-2.145-6.476-2.528-9.886c-0.198-1.76-0.318-3.528-0.475-5.293c-0.009-0.106-0.04-0.21-0.203-0.32
		c-0.311,1.554-0.624,3.108-0.933,4.663c-0.632,3.185-1.232,6.376-1.917,9.55c-0.137,0.634-0.516,1.258-0.92,1.782
		c-0.55,0.714-1.335,0.616-1.902-0.079c-0.623-0.764-0.684-1.675-0.805-2.591c-0.57-4.327-1.158-8.652-1.751-12.977
		c-0.058-0.422-0.193-0.834-0.289-1.233c-0.433,2.355-0.775,4.717-1.315,7.034c-0.784,3.361-1.818,6.649-3.918,9.472
		c-1.118,1.503-2.419,2.807-4.358,3.186c-0.514,0.1-1.112,0.199-1.572,0.03c-0.519-0.191-1.167-0.601-1.331-1.066
		c-0.291-0.829-0.002-1.729,0.749-2.275c1.037-0.753,2.121-1.45,3.236-2.082c1.072-0.608,1.849-1.444,2.488-2.482
		c2.242-3.643,2.908-7.664,2.931-11.85c0.011-2.162,0.162-4.335-0.013-6.482c-0.152-1.869-0.667-3.709-1.031-5.56
		c-0.136-0.689-0.292-1.375-0.448-2.059c-0.204-0.891,0.047-1.633,0.727-2.228C232.4,0.619,233.479-0.02,234.862,0
		c0.778,0.011,1.203,0.373,1.421,1.091c1.533,5.05,3.074,10.098,4.613,15.147C240.923,16.33,240.956,16.421,241.021,16.616z"/>
	<path class="st4" d="M137.173,19.674c0.624-0.929,1.13-1.755,1.711-2.525c0.528-0.7,1.26-1.13,2.15-1.231
		c1.954-0.221,3.238,0.841,3.577,2.95c0.057,0.357,0.103,0.715,0.179,1.243c0.38-0.602,0.672-1.092,0.991-1.563
		c0.367-0.541,0.705-1.114,1.147-1.589c1.715-1.841,4.626-1.33,5.732,1.033c0.31,0.662,0.542,1.44,0.531,2.16
		c-0.087,5.386-0.248,10.771-0.371,16.157c-0.011,0.504-0.166,0.768-0.702,0.776c-1.235,0.019-2.472,0.126-3.702,0.071
		c-1.024-0.046-1.191-0.3-1.17-1.326c0.089-4.392,0.19-8.785,0.286-13.177c0.007-0.34,0.048-0.686-0.002-1.018
		c-0.046-0.312-0.166-0.854-0.297-0.867c-0.343-0.034-0.877,0.053-1.034,0.291c-0.457,0.692-0.955,1.448-1.096,2.24
		c-0.317,1.784-0.521,3.601-0.601,5.411c-0.105,2.4-0.045,4.806-0.06,7.21c-0.007,1.078-0.119,1.232-1.19,1.258
		c-0.966,0.024-1.936-0.021-2.9-0.088c-0.633-0.044-0.866-0.415-0.858-1.085c0.057-4.588,0.075-9.177,0.097-13.766
		c0.002-0.5-0.051-1-0.078-1.505c-0.94-0.119-1.477,0.371-1.707,1.054c-0.385,1.139-0.805,2.317-0.88,3.499
		c-0.202,3.194-0.231,6.399-0.324,9.6c-0.016,0.534,0.028,1.073-0.034,1.6c-0.024,0.203-0.259,0.54-0.408,0.546
		c-1.251,0.048-2.505,0.066-3.755,0.024c-0.537-0.018-0.75-0.401-0.75-0.962c-0.009-6.143-0.039-12.285-0.058-18.428
		c-0.003-1.026,0.273-1.398,1.243-1.691c1.162-0.35,2.303-0.248,3.411,0.229c0.642,0.276,0.983,0.735,0.931,1.477
		C137.138,18.304,137.173,18.929,137.173,19.674z"/>
	<path class="st4" d="M283.351,20.568c0.443-0.632,0.821-1.325,1.345-1.881c0.859-0.911,1.733-1.846,2.748-2.563
		c1.161-0.819,2.491-0.889,3.758-0.076c0.569,0.365,0.898,0.895,0.91,1.569c0.05,2.821-0.859,5.238-3.094,7.051
		c-0.322,0.262-0.415,0.483-0.274,0.853c1.01,2.66,2.259,5.192,3.958,7.49c0.547,0.739,1.1,1.481,1.569,2.269
		c0.505,0.848,0.256,1.543-0.702,1.688c-1.283,0.194-2.621,0.353-3.891,0.187c-0.739-0.097-1.512-0.748-2.061-1.342
		c-1.633-1.771-2.529-3.998-3.546-6.143c-0.242-0.511-0.509-1.011-0.921-1.479c-0.171,1.286-0.345,2.572-0.512,3.858
		c-0.203,1.563-0.381,3.13-0.622,4.686c-0.036,0.234-0.351,0.598-0.548,0.605c-1.081,0.041-2.17,0.039-3.244-0.068
		c-0.24-0.024-0.44-0.523-0.638-0.817c-0.045-0.067-0.008-0.19-0.008-0.287c0.026-8.036,0.041-16.071,0.084-24.107
		c0.016-2.937,0.119-5.874,0.14-8.812c0.006-0.766,0.305-1.265,0.989-1.519c1.419-0.526,2.864-0.781,4.298-0.076
		c0.724,0.356,1.078,0.907,1.022,1.812c-0.339,5.45-0.618,10.904-0.915,16.357c-0.013,0.231-0.002,0.464-0.002,0.696
		C283.246,20.537,283.298,20.553,283.351,20.568z M284.067,25.293c0.734-0.514,1.355-0.886,1.903-1.346
		c0.925-0.775,1.514-1.763,1.548-3.002c0.008-0.292-0.058-0.768-0.227-0.84c-0.252-0.107-0.629,0.05-0.943,0.133
		c-0.129,0.034-0.247,0.155-0.343,0.261C284.824,21.806,284.326,23.391,284.067,25.293z"/>
	<path class="st4" d="M205.528,35.472c-0.811,0.748-1.835,1.41-3.115,1.579c-2.012,0.265-3.617-0.487-4.882-2.006
		c-1.872-2.249-2.694-4.822-2.406-7.763c0.217-2.214,0.592-4.373,1.671-6.348c1.725-3.156,4.425-4.779,7.989-5.018
		c0.194-0.013,0.387-0.026,0.58-0.048c0.043-0.005,0.083-0.044,0.196-0.109c0-0.487-0.005-1.015,0.001-1.543
		c0.037-3.714,0.084-7.427,0.108-11.141c0.006-0.901,0.573-1.328,1.295-1.544c1.38-0.413,2.779-0.416,4.13,0.152
		c0.931,0.392,1.155,0.856,1.108,1.886c-0.284,6.257-0.567,12.513-0.83,18.771c-0.167,3.978-0.297,7.958-0.449,11.937
		c-0.01,0.265-0.073,0.528-0.098,0.794c-0.205,2.11-1.336,2.509-3.372,2.065C206.752,36.981,206.214,36.092,205.528,35.472z
		 M205.565,25.828c-0.009,0-0.018,0-0.026,0c0-2.33,0.011-4.661-0.015-6.991c-0.003-0.263-0.146-0.656-0.345-0.764
		c-0.801-0.433-2.321-0.104-2.849,0.664c-0.387,0.564-0.751,1.227-0.854,1.889c-0.539,3.454-0.565,6.92,0.316,10.323
		c0.24,0.926,0.805,1.805,1.374,2.596c0.387,0.538,1.117,0.751,1.784,0.487c0.654-0.258,0.615-0.917,0.616-1.504
		C205.566,30.295,205.565,28.061,205.565,25.828z"/>
	<path class="st4" d="M182.644,19.704c0.544-0.822,0.94-1.524,1.436-2.147c1.394-1.748,4.555-2.274,6.279-1.066
		c1.128,0.791,1.746,1.928,1.758,3.274c0.019,2.037-0.083,4.077-0.177,6.113c-0.16,3.469-0.374,6.935-0.515,10.404
		c-0.026,0.631-0.25,0.901-0.827,0.908c-1.065,0.012-2.135,0.049-3.196-0.022c-0.991-0.067-1.143-0.3-1.129-1.284
		c0.061-4.25,0.132-8.5,0.174-12.751c0.006-0.598-0.061-1.215-0.214-1.792c-0.186-0.703-0.675-0.89-1.27-0.47
		c-0.397,0.28-0.83,0.693-0.961,1.132c-0.464,1.547-0.973,3.111-1.156,4.704c-0.367,3.205-0.545,6.432-0.763,9.652
		c-0.037,0.554-0.178,0.901-0.762,0.898c-1.159-0.006-2.319-0.007-3.476-0.074c-0.517-0.03-0.752-0.359-0.751-0.945
		c0.008-6.194-0.015-12.388-0.025-18.582c-0.002-1.02,0.275-1.393,1.251-1.684c1.137-0.339,2.255-0.243,3.346,0.209
		c0.673,0.279,1.042,0.737,0.986,1.515C182.608,18.314,182.644,18.937,182.644,19.704z"/>
	<path class="st4" d="M173.903,25.252c-0.019,2.021-0.268,4-0.911,5.934c-1.305,3.931-4.544,6.161-8.925,6.033
		c-3.264-0.095-5.298-2.01-6.737-4.696c-1.494-2.788-1.395-5.73-0.651-8.705c0.686-2.74,2.084-4.988,4.494-6.543
		c2.446-1.579,7.159-2.189,9.767,0.161c1.962,1.768,2.781,4.025,2.958,6.579C173.927,24.425,173.903,24.84,173.903,25.252z
		 M168.12,28.707c-0.141-2.055-0.187-3.439-0.343-4.811c-0.168-1.469-0.431-2.93-1.308-4.185c-0.767-1.097-2.273-1.207-3.094-0.14
		c-0.443,0.575-0.793,1.293-0.954,1.999c-0.535,2.343-0.353,4.728-0.225,7.102c0.084,1.556,0.326,3.082,1.067,4.488
		c0.502,0.952,1.223,1.579,2.352,1.521c1.138-0.058,1.691-0.877,1.886-1.832C167.824,31.271,167.984,29.658,168.12,28.707z"/>
	<path class="st4" d="M273.241,19.705c-0.223,5.529-0.45,11.059-0.66,16.588c-0.017,0.439-0.084,0.821-0.587,0.817
		c-1.252-0.01-2.504-0.049-3.753-0.128c-0.436-0.028-0.627-0.344-0.629-0.819c-0.065-10.972-0.141-21.944-0.222-32.916
		c-0.005-0.714,0.283-1.216,0.936-1.492c1.339-0.566,2.728-0.682,4.123-0.299c1.051,0.289,1.342,0.738,1.315,1.873
		c-0.131,5.46-0.278,10.919-0.419,16.378C273.309,19.707,273.275,19.706,273.241,19.705z"/>
	<path class="st4" d="M262.211,26.921c-0.108,3.129-0.229,6.258-0.31,9.388c-0.014,0.56-0.242,0.839-0.747,0.846
		c-1.016,0.014-2.033,0-3.047-0.054c-0.738-0.04-1.068-0.435-1.078-1.231c-0.06-4.636-0.171-9.27-0.253-13.906
		c-0.025-1.432,0.011-2.865-0.024-4.296c-0.018-0.745,0.35-1.124,1.011-1.295c1.272-0.33,2.547-0.304,3.809,0.035
		c0.841,0.226,1.057,0.611,1.019,1.491c-0.132,3.007-0.247,6.014-0.368,9.022C262.219,26.921,262.215,26.921,262.211,26.921z"/>
	<path class="st4" d="M259.903,6.962c1.32-0.109,2.283,0.512,2.628,1.777c0.158,0.578,0.252,1.192,0.256,1.79
		c0.012,1.73-1.024,2.82-2.685,2.902c-1.851,0.092-2.846-0.717-3.02-2.556c-0.058-0.615-0.008-1.268,0.137-1.869
		C257.565,7.57,258.234,7.099,259.903,6.962z"/>
</g>
</svg>