<svg id="Layer_1" data-name="Layer 1" xmlns="http://www.w3.org/2000/svg" viewBox="0 0 152.63 20.14"><defs><style>.cls-1{fill:#d1d3d4;}</style></defs><g id="U4tUNV.tif"><path class="cls-1" d="M524.14,423.55a8.16,8.16,0,0,1-6.58,2.41c-4.41-.17-8.83,0-13.25-.09a5.69,5.69,0,0,1-1.91-.82c.65-.38,1.3-1.07,2-1.09,3.92-.1,7.85,0,11.78-.06a10.57,10.57,0,0,0,3.5-.24c.91-.33,1.56-1.34,2.33-2-.84-.75-1.64-2.09-2.51-2.14-4-.24-8-.09-12.07-.13a10.17,10.17,0,0,1-2.88-.37c-2.1-.65-3.37-2.15-3.16-4.38a4,4,0,0,1,4.08-3.91c4.51-.17,9-.09,13.55,0,.53,0,1.06.55,1.58.85-.58.36-1.14,1-1.73,1-3.14.11-6.28,0-9.42.06a9.23,9.23,0,0,0-3.21.19,11.9,11.9,0,0,0-2.69,2.07c.94.76,1.85,2.11,2.84,2.17,3.91.26,7.85.18,11.77.09,2.56-.06,4.61.69,6,2.9Z" transform="translate(-371.59 -410.52)"/><path class="cls-1" d="M473.48,430.62c-.31-2.15,1.23-1.75,2.44-1.75h48.22c.29,1.47-.29,1.81-1.77,1.81C506.08,430.59,489.78,430.62,473.48,430.62Z" transform="translate(-371.59 -410.52)"/><path class="cls-1" d="M372.16,430.62c.59-.52,1.17-1.48,1.76-1.48q23.18-.12,46.36,0c.65,0,1.3,1,2,1.48Z" transform="translate(-371.59 -410.52)"/><path class="cls-1" d="M394.44,425.45a14.25,14.25,0,0,1-2.55.49c-4.51,0-9,.07-13.52,0s-6.83-2.81-6.77-8c.06-4.65,2.51-7.28,6.88-7.31s8.82,0,13.23,0a24.11,24.11,0,0,1,2.67.31l.12,1a10.58,10.58,0,0,1-2.6.72c-4.41.07-8.82,0-13.23,0-3.61.05-4.9,1.66-4.87,5.78,0,3.79,1.42,5.4,4.94,5.46,4.21.07,8.43,0,12.64,0a26.59,26.59,0,0,1,3,.35Z" transform="translate(-371.59 -410.52)"/><path class="cls-1" d="M428.73,425.8a119.9,119.9,0,0,1,.16-12.18c.11-1.1,2.15-2.77,3.4-2.86a110.43,110.43,0,0,1,13.21-.06,6,6,0,0,1,5.79,5.63,60.4,60.4,0,0,1,.09,7.92c0,.56-.75,1.09-1.15,1.64-.29-.53-.81-1.06-.83-1.6-.1-2.35,0-4.7-.06-7.05-.05-2.54-1.41-4.14-3.91-4.28a123.87,123.87,0,0,0-12.62-.15c-.81,0-2.09,1.66-2.21,2.67-.31,2.71-.06,5.48-.14,8.22a10.34,10.34,0,0,1-.63,2.35Z" transform="translate(-371.59 -410.52)"/><path class="cls-1" d="M463.08,410.72H484c-.68.9-1,1.57-1.45,1.83a4.09,4.09,0,0,1-1.73.08c-6.62.07-6.62.07-6.62,6.59,0,1.76.07,3.53-.07,5.29,0,.47-.7.9-1.07,1.35-.28-.45-.79-.89-.8-1.34-.08-3.13-.15-6.27,0-9.41.08-1.94-.61-2.66-2.54-2.51a30.45,30.45,0,0,1-5,0,6.5,6.5,0,0,1-2-1Z" transform="translate(-371.59 -410.52)"/><path class="cls-1" d="M410.4,410.6c1.57,0,3.15-.1,4.7,0a6.43,6.43,0,0,1,2,1,6.53,6.53,0,0,1-2.13,1c-2.84.15-5.69,0-8.53.18-4.2.24-5.35,1.52-5.38,5.66,0,2,.06,3.93-.05,5.88,0,.53-.6,1-.92,1.54-.35-.49-1-1-1-1.47a71,71,0,0,1,.13-8.52c.31-3.07,3-5.13,6.46-5.27,1.57-.06,3.14,0,4.71,0Z" transform="translate(-371.59 -410.52)"/><path class="cls-1" d="M490.38,418.31c0,1.95.09,3.9,0,5.84,0,.59-.69,1.15-1.06,1.72-.33-.5-.93-1-.94-1.51q-.11-6.13,0-12.27c0-.48.67-.95,1-1.42.34.5.94,1,1,1.51C490.45,414.22,490.38,416.27,490.38,418.31Z" transform="translate(-371.59 -410.52)"/><path class="cls-1" d="M423.92,418.34c0,1.95.08,3.9-.05,5.84,0,.58-.7,1.12-1.07,1.68-.33-.51-.93-1-.94-1.54-.08-4-.09-8,0-12,0-.57.71-1.12,1.1-1.68.32.61.89,1.21.93,1.83C424,414.44,423.92,416.4,423.92,418.34Z" transform="translate(-371.59 -410.52)"/><path class="cls-1" d="M458.08,418.19c0,1.95.08,3.9,0,5.84,0,.63-.6,1.23-.92,1.84-.38-.56-1.09-1.11-1.1-1.68-.09-4-.08-8,0-12,0-.52.61-1,.94-1.54.37.56,1,1.09,1.07,1.67C458.17,414.28,458.08,416.24,458.08,418.19Z" transform="translate(-371.59 -410.52)"/></g></svg>