<!-- Generator: Adobe Illustrator 23.0.1, SVG Export Plug-In  -->
<svg version="1.1" xmlns="http://www.w3.org/2000/svg" xmlns:xlink="http://www.w3.org/1999/xlink" x="0px" y="0px"
	 width="344.017px" height="48.863px" viewBox="0 0 344.017 48.863" style="enable-background:new 0 0 344.017 48.863;"
	 xml:space="preserve">
<style type="text/css">
	.st0{fill:#D87544;}
	.st1{fill:#CC5723;}
	.st2{fill:#8E3D1C;}
	.st3{fill:#893224;}
	.st4{fill:#742315;}
	.st5{fill:#C88F71;}
	.st6{fill:#B3704C;}
</style>
<defs>
</defs>
<g>
	<g>
		<path class="st0" d="M16.554,8.712c-1.257,1.108-3.069,2.414-4.431,3.356c-0.626,0.37-1.242,0.788-1.847,1.245
			c-0.029,0.019-0.045,0.03-0.045,0.03h0.006c-4.31,3.273-7.991,8.674-9.68,15.022c-2.829,10.581,5.39,18.754,18.614,18.738V5.446
			C19.171,5.446,18.817,6.717,16.554,8.712z"/>
		<path class="st1" d="M28.105,13.342h0.006c0,0-0.016-0.01-0.045-0.029c-0.605-0.457-1.221-0.875-1.847-1.245
			c-1.363-0.942-3.174-2.247-4.431-3.356c-2.262-1.994-2.617-3.266-2.617-3.266v41.656c13.224,0.016,21.444-8.157,18.614-18.738
			C36.097,22.016,32.416,16.615,28.105,13.342z"/>
		<g>
			<g>
				<g>
					<rect x="18.389" y="26.019" class="st2" width="1.56" height="5.064"/>
				</g>
				<g>
					<rect x="5.105" y="26.608" class="st2" width="1.56" height="5.064"/>
				</g>
				<g>
					<rect x="31.678" y="26.608" class="st2" width="1.56" height="5.064"/>
				</g>
			</g>
			<g>
				<rect x="18.391" y="14.215" class="st2" width="1.56" height="5.064"/>
			</g>
			<g>
				<g>
					
						<rect x="6.932" y="18.319" transform="matrix(0.558 -0.8298 0.8298 0.558 -11.5058 16.5955)" class="st2" width="5.788" height="1.56"/>
				</g>
				<g>
					
						<rect x="27.737" y="16.205" transform="matrix(0.8297 -0.5583 0.5583 0.8297 -5.8045 19.173)" class="st2" width="1.56" height="5.788"/>
				</g>
			</g>
			<g>
				<g>
					
						<rect x="28.25" y="38.619" transform="matrix(0.558 -0.8298 0.8298 0.558 -18.9296 43.2596)" class="st2" width="5.788" height="1.56"/>
				</g>
				<g>
					
						<rect x="6.418" y="36.505" transform="matrix(0.8297 -0.5582 0.5582 0.8297 -20.7675 10.7282)" class="st2" width="1.56" height="5.788"/>
				</g>
			</g>
			<g>
				<g>
					<rect x="12.151" y="22.719" class="st2" width="1.56" height="5.064"/>
				</g>
				<g>
					<rect x="24.631" y="22.719" class="st2" width="1.56" height="5.064"/>
				</g>
			</g>
			<g>
				<rect x="18.391" y="37.607" class="st2" width="1.56" height="5.064"/>
			</g>
			<g>
				<g>
					<rect x="12.151" y="33.436" class="st2" width="1.56" height="5.064"/>
				</g>
				<g>
					<rect x="24.631" y="33.436" class="st2" width="1.56" height="5.064"/>
				</g>
			</g>
		</g>
	</g>
	<g>
		<g>
			<path class="st1" d="M89.203,16.496c-1.689-2.616-3.72-4.838-5.916-6.506h0.006c0,0-0.016-0.01-0.045-0.029
				c-0.605-0.457-1.221-0.875-1.847-1.245c-1.363-0.942-3.174-2.247-4.431-3.356c-2.225-1.961-2.604-3.22-2.616-3.262v34.283
				L89.203,16.496z"/>
			<path class="st0" d="M74.355,36.381V2.098c0-0.001-0.001-0.004-0.001-0.004s-0.354,1.272-2.617,3.266
				c-1.257,1.108-3.069,2.414-4.431,3.356c-0.626,0.37-1.242,0.788-1.847,1.245c-0.029,0.019-0.045,0.03-0.045,0.03h0.006
				c-2.196,1.667-4.226,3.889-5.915,6.505l14.848,19.89L74.355,36.381z"/>
			<path class="st3" d="M74.352,36.385l-14.848-19.89l-2.814-3.77c-2.998,3.377-5.073,7.608-5.702,12.321
				c-1.173,8.764,4.438,16.814,13.445,20.272c0.738-0.943,1.707-1.771,2.845-2.442c1.954-1.153,4.409-1.841,7.074-1.841
				c0.001,0,0.002,0,0.003,0v-4.653L74.352,36.385z"/>
			<path class="st4" d="M97.721,25.046c-0.629-4.713-2.709-8.944-5.702-12.321l-2.816,3.771L74.355,36.381v4.653
				c2.668,0,5.121,0.689,7.075,1.841c1.138,0.671,2.107,1.499,2.847,2.442C93.283,41.86,98.894,33.81,97.721,25.046z"/>
			<g>
				<g>
					<g>
						<rect x="73.572" y="23.256" class="st2" width="1.56" height="5.064"/>
					</g>
				</g>
				<g>
					<rect x="73.573" y="10.862" class="st2" width="1.56" height="5.064"/>
				</g>
				<g>
					<g>
						
							<rect x="62.114" y="14.966" transform="matrix(0.558 -0.8298 0.8298 0.558 15.6657 60.9052)" class="st2" width="5.788" height="1.56"/>
					</g>
					<g>
						
							<rect x="82.919" y="12.852" transform="matrix(0.8297 -0.5582 0.5582 0.8297 5.4645 49.404)" class="st2" width="1.56" height="5.788"/>
					</g>
				</g>
				<g>
					<g>
						<rect x="67.334" y="19.367" class="st2" width="1.56" height="5.064"/>
					</g>
					<g>
						<rect x="79.813" y="19.367" class="st2" width="1.56" height="5.064"/>
					</g>
				</g>
			</g>
		</g>
		<g>
			<path class="st5" d="M74.352,41.034c-2.665,0-5.121,0.688-7.074,1.841c-1.138,0.671-2.106,1.499-2.845,2.442
				c2.976,1.145,6.32,1.784,9.919,1.784c0.001,0,0.002,0,0.003,0v-6.067C74.354,41.034,74.353,41.034,74.352,41.034z"/>
			<path class="st6" d="M81.429,42.876c-1.953-1.152-4.407-1.841-7.075-1.841v6.067c3.598,0,6.947-0.64,9.922-1.784
				C83.536,44.375,82.567,43.547,81.429,42.876z"/>
		</g>
	</g>
</g>
<g>
	<path class="st3" d="M161.461,0c0.405,0.212,0.438,0.476,0.254,0.904c-1.628,3.785-2.287,7.788-2.452,11.866
		c-0.15,3.692-0.135,7.391-0.187,11.087c-0.005,0.321-0.032,0.672,0.084,0.954c0.081,0.198,0.41,0.453,0.592,0.427
		c2.132-0.305,2.497,0.683,2.2,2.714c-0.078,0.534-0.403,0.754-0.915,0.789c-0.342,0.024-0.681,0.088-1.216,0.16
		c0.369,1.462,0.651,2.885,1.095,4.257c0.475,1.467,1.162,2.842,2.366,3.893c0.14,0.122,0.197,0.44,0.163,0.644
		c-0.301,1.776-2.671,4.037-4.433,4.284c-0.79,0.111-1.439-0.189-1.742-0.86c-0.648-1.433-1.37-2.877-1.712-4.395
		c-0.619-2.747-0.983-5.551-1.475-8.46c-0.256-0.033-0.68-0.089-1.17-0.152c-0.133,1.722-0.265,3.349-0.382,4.978
		c-0.175,2.428-0.402,4.843-1.457,7.09c-0.569,1.211-1.284,2.341-2.497,2.959c-1.561,0.796-3.229,0.682-4.84,0.137
		c-0.937-0.317-1.152-1.151-0.655-2.064c2.376-4.366,3.624-9.029,3.76-14c0.015-0.554-0.151-0.846-0.629-1.098
		c-1.556-0.82-3.115-1.645-4.33-2.968c-0.641-0.698-0.998-1.479-0.74-2.439c0.321-1.195,1.221-1.656,2.338-1.125
		c0.665,0.316,1.256,0.787,1.887,1.176c0.327,0.201,0.67,0.375,1.052,0.587c0-1.341,0.077-2.572-0.017-3.789
		c-0.174-2.258-0.647-4.463-1.66-6.509c-0.304-0.615-0.686-1.216-1.137-1.732c-2.233-2.557-5.487-2.467-7.608,0.185
		c-1.435,1.795-2.102,3.903-2.466,6.131c-0.445,2.725-0.301,5.406,0.853,7.938c0.422,0.925,1.055,1.797,1.755,2.539
		c0.844,0.894,1.981,1.062,3.164,0.679c1.514-0.49,2.213-0.25,2.482,0.868c0.357,1.488-0.39,2.78-1.747,3.022
		c-3.14,0.56-5.653-0.569-7.325-3.332c-1.759-2.907-2.283-6.113-2.048-9.437c0.237-3.355,1.132-6.541,3.064-9.351
		c1.392-2.024,3.086-3.718,5.612-4.229c3.401-0.687,6.129,0.523,8.309,3.12c2.033,2.423,3.041,5.323,3.656,8.351
		c0.522,2.57,0.858,5.178,1.242,7.775c0.137,0.929,0.859,0.687,1.49,0.901c0.03-0.421,0.066-0.757,0.075-1.094
		c0.105-4.121,0.394-8.23,1.27-12.263c0.514-2.365,1.221-4.691,1.93-7.008c0.257-0.839,0.684-1.662,1.196-2.375
		c0.474-0.66,1.166-1.164,1.763-1.737C160.667,0,161.064,0,161.461,0z"/>
	<path class="st3" d="M295.091,21.733c0.787-2.044,1.47-4.063,2.335-6c1.048-2.346,2.191-4.655,3.408-6.918
		c0.729-1.354,1.736-1.415,2.894-0.374c0.596,0.536,0.757,1.151,0.473,1.934c-2.396,6.597-2.137,13.279-0.536,19.978
		c0.527,2.205,1.532,4.232,2.795,6.116c0.322,0.48,0.463,0.951,0.179,1.45c-0.545,0.959-1.046,1.964-1.732,2.816
		c-0.736,0.914-1.31,0.87-2.203,0.111c-1.512-1.283-2.295-3.015-2.946-4.824c-1.083-3.011-1.477-6.153-1.762-9.316
		c-0.086-0.958-0.169-1.916-0.421-2.891c-0.257,1.279-0.521,2.556-0.769,3.836c-0.557,2.867-1.077,5.741-1.68,8.598
		c-0.144,0.681-0.47,1.364-0.863,1.943c-0.577,0.848-1.31,0.771-1.931-0.034c-0.71-0.921-0.581-2.024-0.732-3.062
		c-0.554-3.823-1.082-7.65-1.626-11.475c-0.034-0.241-0.119-0.474-0.198-0.784c-0.297,1.809-0.526,3.55-0.878,5.266
		c-0.589,2.868-1.404,5.671-2.818,8.26c-0.742,1.358-1.645,2.59-2.886,3.551c-0.915,0.708-1.952,1.173-3.083,1.081
		c-0.592-0.048-1.366-0.412-1.665-0.883c-0.406-0.639-0.126-1.474,0.445-2.032c0.456-0.445,0.965-0.9,1.538-1.15
		c3.916-1.711,5.351-5.161,6.043-8.949c0.446-2.442,0.354-4.981,0.519-7.475c0.212-3.202-0.254-6.312-1.129-9.391
		c-0.664-2.336,0.023-3.515,2.33-4.311c0.324-0.112,0.672-0.19,1.014-0.21c0.905-0.054,1.266,0.194,1.533,1.065
		c1.398,4.563,2.785,9.13,4.178,13.694C294.951,21.464,295.014,21.566,295.091,21.733z"/>
	<path class="st3" d="M333.629,25.644c0.279-0.399,0.445-0.626,0.6-0.862c0.877-1.336,1.85-2.584,3.242-3.43
		c1.067-0.649,2.182-0.783,3.32-0.189c0.643,0.336,1.001,0.886,1.009,1.617c0.029,2.512-0.787,4.675-2.748,6.309
		c-0.379,0.316-0.461,0.563-0.285,0.994c0.995,2.435,2.101,4.804,3.743,6.891c0.503,0.639,0.946,1.335,1.339,2.048
		c0.34,0.618,0.161,1.194-0.489,1.282c-1.334,0.18-2.742,0.431-4.022,0.171c-0.833-0.169-1.684-1.065-2.191-1.852
		c-1.054-1.636-1.886-3.416-2.806-5.138c-0.205-0.383-0.397-0.773-0.731-1.125c-0.309,2.37-0.629,4.738-0.923,7.11
		c-0.157,1.268-0.135,1.296-1.4,1.369c-0.639,0.037-1.288,0-1.925-0.073c-0.551-0.063-0.854-0.363-0.849-1
		c0.078-10.047,0.141-20.094,0.196-30.142c0.004-0.709,0.288-1.198,0.939-1.446c1.208-0.46,2.447-0.673,3.687-0.162
		c0.973,0.401,1.192,0.802,1.134,1.831c-0.277,4.952-0.559,9.904-0.837,14.856C333.618,24.94,333.629,25.178,333.629,25.644z
		 M334.452,29.757c0.746-0.559,1.392-0.971,1.951-1.478c0.78-0.708,1.228-1.604,1.202-2.693c-0.017-0.691-0.324-0.885-0.943-0.559
		c-0.213,0.112-0.417,0.276-0.571,0.461C335.11,26.665,334.667,28.055,334.452,29.757z"/>
	<path class="st3" d="M232.534,24.699c0.353-0.585,0.6-1.001,0.854-1.413c1.234-2,3.163-2.407,5.167-2.08
		c1.522,0.248,2.715,1.912,2.689,3.752c-0.035,2.453-0.197,4.905-0.315,7.357c-0.12,2.502-0.27,5.002-0.366,7.505
		c-0.019,0.504-0.198,0.759-0.666,0.759c-1.086,0.002-2.172-0.014-3.257-0.063c-0.615-0.028-0.799-0.409-0.786-1.015
		c0.083-3.918,0.141-7.837,0.191-11.756c0.006-0.466-0.041-0.943-0.139-1.399c-0.207-0.96-0.878-1.186-1.526-0.45
		c-0.443,0.503-0.845,1.149-0.983,1.792c-0.382,1.787-0.697,3.597-0.888,5.413c-0.239,2.267-0.335,4.549-0.475,6.825
		c-0.025,0.402-0.129,0.698-0.571,0.706c-1.036,0.019-2.074,0.047-3.108,0.006c-0.594-0.024-0.891-0.359-0.891-1.027
		c0.008-5.631-0.008-11.262-0.036-16.893c-0.004-0.755,0.307-1.211,1.005-1.455c1.165-0.408,2.292-0.28,3.393,0.217
		c0.502,0.227,0.732,0.628,0.712,1.191C232.517,23.277,232.534,23.884,232.534,24.699z"/>
	<path class="st3" d="M253.009,37.269c-0.257,0.42-0.519,0.837-0.77,1.26c-1.144,1.924-3.18,2.423-5.169,2.029
		c-1.567-0.31-2.683-1.921-2.654-3.856c0.035-2.427,0.205-4.853,0.323-7.279c0.12-2.451,0.274-4.901,0.353-7.353
		c0.02-0.608,0.24-0.879,0.793-0.882c1.012-0.004,2.026,0.016,3.037,0.056c0.674,0.026,0.904,0.393,0.888,1.08
		c-0.089,3.892-0.147,7.784-0.189,11.677c-0.006,0.562,0.066,1.141,0.209,1.684c0.167,0.633,0.61,0.836,1.125,0.452
		c0.45-0.336,0.939-0.838,1.065-1.351c0.462-1.891,0.897-3.803,1.124-5.733c0.278-2.36,0.35-4.744,0.478-7.12
		c0.028-0.518,0.194-0.799,0.727-0.8c0.986-0.002,1.974-0.034,2.959,0.011c0.624,0.029,0.939,0.366,0.936,1.07
		c-0.022,5.604-0.011,11.208-0.014,16.812c-0.001,0.926-0.271,1.277-1.165,1.558c-1.014,0.319-2.012,0.207-2.982-0.167
		c-0.664-0.256-1.026-0.724-0.956-1.493c0.049-0.535,0.009-1.078,0.009-1.618C253.093,37.294,253.051,37.281,253.009,37.269z"/>
	<path class="st3" d="M182.27,31.31c-0.538-1.363-0.5-2.556-0.167-3.74c1.327-4.717,6.637-6.94,10.091-6.318
		c3.479,0.627,5.544,3.927,4.597,7.355c-0.282,1.021-0.716,2-1.029,3.013c-0.076,0.246-0.034,0.606,0.097,0.828
		c1.328,2.237,2.446,4.536,2.377,7.229c-0.127,4.983-4.32,9.122-9.301,9.185c-4.011,0.05-6.451-3.153-5.282-6.986
		c0.587-1.923,1.644-3.559,3.375-4.65c0.551-0.347,1.215-0.529,1.847-0.721c0.187-0.057,0.443,0.113,0.667,0.18
		c-0.082,0.211-0.119,0.459-0.254,0.628c-1.033,1.295-2.18,2.51-3.106,3.876c-1.18,1.74-0.799,4.116,0.711,5.572
		c1.722,1.661,4.305,1.072,5.369-1.253c1.361-2.974,0.929-5.786-0.855-8.446c-0.413-0.617-0.872-1.203-1.252-1.724
		c0.755-1.263,1.593-2.435,2.193-3.719c1.028-2.2,0.217-4.668-1.792-5.903c-1.38-0.848-2.995-0.778-4.317,0.189
		c-1.641,1.201-2.816,2.769-3.626,4.623C182.528,30.727,182.44,30.924,182.27,31.31z"/>
	<path class="st3" d="M174.717,38.867c-3.258,3.192-8.011,1.502-9.346-2.84c-0.935-3.038-0.244-6.046,1.064-8.879
		c0.94-2.036,2.5-3.494,4.595-4.326c0.57-0.227,1.181-0.383,1.787-0.481c1.237-0.2,2.467-0.311,3.681-0.759
		c0.766-0.283,1.75-0.073,2.618,0.049c0.592,0.084,0.852,0.545,0.829,1.21c-0.154,4.562-0.279,9.125-0.405,13.688
		c-0.027,0.99-0.006,1.982-0.029,2.972c-0.018,0.765-0.492,1.042-1.2,1.152c-1.274,0.198-2.286-0.174-3.066-1.201
		C175.099,39.259,174.919,39.089,174.717,38.867z M174.583,30.775c-0.007,0-0.013,0-0.02,0c0-1.933-0.02-3.866,0.012-5.799
		c0.01-0.591-0.251-0.782-0.773-0.841c-1.557-0.178-2.696,0.536-2.908,2.269c-0.259,2.124-0.253,4.288-0.247,6.435
		c0.003,0.872,0.194,1.789,0.513,2.601c0.287,0.729,0.772,1.451,1.355,1.966c0.344,0.303,1.107,0.365,1.571,0.208
		c0.276-0.093,0.462-0.817,0.474-1.263C174.613,34.493,174.583,32.634,174.583,30.775z"/>
	<path class="st3" d="M324.577,24.589c-0.209,5.004-0.431,10.008-0.611,15.013c-0.024,0.656-0.232,0.993-0.876,0.975
		c-1.009-0.028-2.02-0.068-3.025-0.153c-0.449-0.038-0.64-0.335-0.643-0.826c-0.05-9.993-0.112-19.985-0.187-29.978
		c-0.006-0.757,0.312-1.211,0.99-1.471c1.117-0.428,2.265-0.539,3.426-0.268c1.095,0.255,1.448,0.716,1.419,1.839
		c-0.129,4.957-0.276,9.914-0.417,14.871C324.627,24.591,324.602,24.59,324.577,24.589z"/>
	<path class="st3" d="M223.331,24.596c-0.209,5.004-0.431,10.008-0.61,15.013c-0.024,0.663-0.246,0.987-0.883,0.97
		c-1.009-0.027-2.02-0.071-3.025-0.155c-0.454-0.038-0.629-0.345-0.639-0.83c-0.056-2.826-0.205-5.651-0.214-8.477
		c-0.021-7.043,0.012-14.086,0.033-21.129c0.004-1.382,0.398-1.893,1.768-2.073c0.871-0.115,1.785-0.146,2.648-0.01
		c1.101,0.174,1.445,0.697,1.416,1.824c-0.13,4.957-0.276,9.914-0.417,14.871C223.381,24.597,223.356,24.596,223.331,24.596z"/>
	<path class="st3" d="M205.583,31.344c0.037,2.214,0.197,3.881,1.21,5.337c1.315,1.892,3.36,2.257,5.221,0.925
		c0.362-0.259,0.677-0.633,1.077-0.779c0.363-0.131,0.881-0.156,1.207,0.012c0.472,0.244,0.375,0.781,0.143,1.189
		c-0.18,0.315-0.417,0.64-0.71,0.841c-2.257,1.552-4.691,2.555-7.506,2.241c-2.471-0.276-4.255-1.544-5.015-3.92
		c-1.113-3.482-1.311-7.022,0.162-10.463c1.34-3.131,3.623-5.124,7.141-5.527c2.302-0.264,3.884,0.437,5.022,2.471
		c1.273,2.275,1.565,4.579-0.011,6.857c-0.638,0.922-1.139,1.188-2.146,0.723c-1.358-0.628-2.643-1.432-3.901-2.25
		c-0.564-0.367-0.262-0.954,0.037-1.388c0.332-0.482,0.678-0.175,1.006,0.065c0.591,0.432,1.243,0.886,1.975,0.539
		c0.723-0.343,0.752-1.153,0.706-1.831c-0.047-0.696-0.152-1.452-0.474-2.051c-0.737-1.371-2.192-1.428-3.152-0.205
		c-0.88,1.121-1.298,2.452-1.556,3.815C205.778,29.231,205.682,30.546,205.583,31.344z"/>
	<path class="st3" d="M262.303,19.679c0.036-0.729,0.021-1.397,0.119-2.047c0.054-0.36,0.209-0.797,0.471-1.018
		c1.106-0.936,3.666-0.897,4.819-0.014c0.396,0.303,0.527,0.611,0.453,1.136c-0.155,1.098-0.192,2.213-0.28,3.346
		c0.664,0.18,1.258,0.334,1.848,0.502c0.644,0.182,0.909,0.689,0.722,1.388c-0.17,0.636-0.628,0.775-1.212,0.666
		c-0.46-0.086-0.919-0.178-1.434-0.279c-0.051,1.111-0.1,2.17-0.148,3.229c-0.197,4.36-0.409,8.719-0.573,13.079
		c-0.024,0.65-0.278,0.919-0.86,0.919c-0.889,0-1.779-0.03-2.667-0.076c-0.616-0.032-0.882-0.346-0.894-1.008
		c-0.101-5.554-0.233-11.108-0.355-16.662c-0.005-0.222-0.001-0.445-0.001-0.742c-0.531-0.125-1.076-0.189-1.564-0.388
		c-0.439-0.179-0.941-0.428-1.18-0.798c-0.165-0.255-0.049-0.861,0.164-1.142c0.205-0.271,0.694-0.445,1.059-0.446
		C261.263,19.321,261.737,19.534,262.303,19.679z"/>
	<path class="st3" d="M314.435,31.278c-0.104,2.798-0.223,5.595-0.298,8.394c-0.016,0.581-0.198,0.919-0.786,0.899
		c-1.03-0.036-2.063-0.082-3.085-0.207c-0.199-0.024-0.499-0.422-0.504-0.652c-0.122-5.698-0.207-11.396-0.308-17.094
		c-0.01-0.542,0.273-0.842,0.733-0.983c1.264-0.387,2.538-0.376,3.798,0.019c0.547,0.172,0.851,0.524,0.82,1.159
		c-0.136,2.821-0.244,5.644-0.363,8.466C314.439,31.278,314.437,31.278,314.435,31.278z"/>
	<path class="st3" d="M309.682,15.982c0.061-0.39,0.086-0.79,0.191-1.168c0.38-1.379,1.218-1.924,2.802-1.859
		c1.182,0.049,1.903,0.729,2.16,2.053c0.061,0.315,0.113,0.637,0.125,0.957c0.083,2.225-1.659,3.498-3.766,2.76
		C310.202,18.378,309.685,17.42,309.682,15.982z"/>
</g>
</svg>