<svg id="Layer_1" data-name="Layer 1" xmlns="http://www.w3.org/2000/svg" viewBox="0 0 79.7 94.5"><defs><style>.cls-1{fill:#d1d3d4;}</style></defs><g id="AnRouq.tif"><path class="cls-1" d="M342.4,102.13a25.81,25.81,0,0,1,0,3.72c-1,7.62-5.23,13-11.68,16.87a13.35,13.35,0,0,1-8.06,1.7,22.9,22.9,0,0,1,0-3.34c1.25-8.42,5.92-14.22,13.73-17.49a39,39,0,0,1,4.81-1.34,1.15,1.15,0,0,0,.22-.11Z" transform="translate(-282.81 -102.13)"/><path class="cls-1" d="M359.9,134c-7.32,4.46-11.08,10.83-10.47,19.46s5.45,14.27,13.09,18c-.9,2.12-1.72,4.29-2.71,6.37A55,55,0,0,1,350,192a13.79,13.79,0,0,1-7.2,4.28,13,13,0,0,1-6.73-.54c-1.86-.59-3.67-1.32-5.52-1.94a20.21,20.21,0,0,0-13.75.55,62.55,62.55,0,0,1-6.24,2c-3.43.87-6.44-.23-9.15-2.32a40,40,0,0,1-7.53-8.36,57.84,57.84,0,0,1-10.26-24.21c-1.16-6.42-1.22-12.84.85-19.12a24.82,24.82,0,0,1,13.38-15.48,22.1,22.1,0,0,1,9.23-2.09,24.66,24.66,0,0,1,8.09,1.7q3.44,1.16,6.9,2.28a4.24,4.24,0,0,0,2.72-.09c2.91-1,5.81-2,8.72-2.91a22.48,22.48,0,0,1,7.14-1.23,27.29,27.29,0,0,1,8.83,1.59,21,21,0,0,1,10.23,7.61Z" transform="translate(-282.81 -102.13)"/></g></svg>