<svg id="Layer_1" data-name="Layer 1" xmlns="http://www.w3.org/2000/svg" viewBox="0 0 172.23 44.67"><defs><style>.cls-1{fill:#d1d3d4;}</style></defs><g id="yIesxe.tif"><path class="cls-1" d="M590.41,181.71h-30c-.26,0-.69.16-.55-.46h3.49V139.7h-7.58v.71c0,10.78,0,21.56,0,32.34a8.28,8.28,0,0,1-3.2,6.67,12.32,12.32,0,0,1-6.14,2.62,23.37,23.37,0,0,1-4.77.23,16.24,16.24,0,0,1-8.29-2.67,9.75,9.75,0,0,1-4.37-6.75,11,11,0,0,1-.13-1.7q0-15.36,0-30.73v-.74h-4.08l-.12-.15.35-.34H539.8c.25.41.05.48-.3.47h-3.64v.73q0,16.38,0,32.75a6.44,6.44,0,0,0,1.62,4.16,10.5,10.5,0,0,0,6.75,3.66,9.54,9.54,0,0,0,8.71-2.86,7.3,7.3,0,0,0,2.08-4.47c.07-.82.12-1.65.12-2.48q0-15.36,0-30.73v-.77h-4.71l-.11-.17a1.76,1.76,0,0,1,.34-.3.86.86,0,0,1,.35,0h38.49v15.33h-.12c-.1-.69-.2-1.39-.3-2.08a21.62,21.62,0,0,0-1.65-6,13.27,13.27,0,0,0-2.6-3.85A9.68,9.68,0,0,0,580,140c-3.14-.69-6.33-.28-9.52-.4V159.4c2,.24,4.1.42,6-.5a5.63,5.63,0,0,0,2.88-3.37,11.5,11.5,0,0,0,.72-3.71,1.78,1.78,0,0,1,.15-.48l.14,0V168.7c-.14-.13-.28-.2-.29-.28a13.36,13.36,0,0,0-1.69-5.06A6.07,6.07,0,0,0,573,160c-.84,0-1.68,0-2.55,0v21.21H571c2.22,0,4.45,0,6.67,0a10.62,10.62,0,0,0,5.09-1.52,16.53,16.53,0,0,0,3-2.19,13,13,0,0,0,3-4.54,15.3,15.3,0,0,0,1.08-4.94c0-.74.14-1.48.24-2.21,0-.11.15-.21.23-.31Z" transform="translate(-418.18 -138.24)"/><path class="cls-1" d="M467.37,182.9c-.75-.16-1.5-.29-2.24-.48a17.1,17.1,0,0,1-6.33-3.26,20.85,20.85,0,0,1-6-8,20.49,20.49,0,0,1-1.84-6.41,43.57,43.57,0,0,1-.34-5.11,24.68,24.68,0,0,1,1.86-8.92,21.51,21.51,0,0,1,5.67-8.1,16.53,16.53,0,0,1,8.19-4.08,14.47,14.47,0,0,1,8.75,1.11,18.16,18.16,0,0,1,4.57,3,21.93,21.93,0,0,1,6.45,10.58,28.41,28.41,0,0,1,1,5.39,25.46,25.46,0,0,1-1.33,10.56,22.17,22.17,0,0,1-4,7.18,19.14,19.14,0,0,1-6.62,5.14,12.76,12.76,0,0,1-4.47,1.24.74.74,0,0,0-.24.12ZM458,160.63l.12,0c.06.78.1,1.57.17,2.35.11,1.31.16,2.63.38,3.91a37.8,37.8,0,0,0,1.9,7.55,15.52,15.52,0,0,0,3.62,5.95,6.59,6.59,0,0,0,5.12,1.91,7,7,0,0,0,5.14-2.94,17.82,17.82,0,0,0,2.93-5.73,33.21,33.21,0,0,0,1.52-6.51c.22-1.78.46-3.57.58-5.36a26.14,26.14,0,0,0-.11-3.43,38.75,38.75,0,0,0-.37-4,37.74,37.74,0,0,0-2-7.77A16.51,16.51,0,0,0,474,141.3a6.66,6.66,0,0,0-5.79-2.37,6.84,6.84,0,0,0-4.29,2.17,14.39,14.39,0,0,0-3,5,31.28,31.28,0,0,0-1.92,7.24C458.6,155.77,458.32,158.2,458,160.63Z" transform="translate(-418.18 -138.24)"/><path class="cls-1" d="M509.66,138.24c2,.63,3.94,1.34,6,1.87a4,4,0,0,0,3.28-.79c.46-.31.92-.6,1.46-.95v15.13c-.17-.19-.3-.27-.32-.37a26,26,0,0,0-2.66-7.43,16.21,16.21,0,0,0-4.86-5.72,6.85,6.85,0,0,0-8.41,0,8.47,8.47,0,0,0-2.31,2.8,23.11,23.11,0,0,0-2.5,7.72c-.23,1.54-.5,3.09-.58,4.64-.15,3-.32,6-.22,8.94a39.09,39.09,0,0,0,2.22,12.43,11,11,0,0,0,2.25,3.92,6.24,6.24,0,0,0,3.72,1.78,9.22,9.22,0,0,0,5.87-1.09,6.59,6.59,0,0,0,3.43-3.61,3.62,3.62,0,0,0,.22-1.07c0-3.87,0-7.74,0-11.61,0-.1,0-.19,0-.36h-3.45a2,2,0,0,1-.48-.13l0-.18h14.12l0,.18a1.9,1.9,0,0,1-.47.13c-.93,0-1.86,0-2.87,0v17.23l-.14,0c-.11-.14-.23-.27-.33-.41a4.32,4.32,0,0,0-5.14-1.73,31.27,31.27,0,0,0-3.09,1.36,15,15,0,0,1-7.77,1.59,14.12,14.12,0,0,1-8-3.27,19.6,19.6,0,0,1-5.13-6.7,27.57,27.57,0,0,1-2.26-7.07,28.07,28.07,0,0,1-.3-6.78,25.75,25.75,0,0,1,1.86-8.09,21.48,21.48,0,0,1,3.68-6.19,17.91,17.91,0,0,1,7.46-5.35c1-.35,2-.57,3-.85Z" transform="translate(-418.18 -138.24)"/><path class="cls-1" d="M418.18,139.19h14.59c.26,0,.66-.12.48.45H429.6L441,170.75l9.59-31.09h-3.69l-.12-.13c.11-.11.23-.32.34-.32,2.62,0,5.23,0,7.84,0,.17.42,0,.48-.34.47-.93,0-1.87,0-2.8,0a.53.53,0,0,0-.61.45q-1.59,5.11-3.2,10.21-1.76,5.57-3.52,11.15c-.87,2.76-1.72,5.52-2.58,8.27q-1.67,5.33-3.36,10.65a13,13,0,0,1-.71,1.92c-.52-1.43-1-2.86-1.55-4.28l-4.29-11.68-4.53-12.4q-2.44-6.66-4.87-13.33c-.34-.94-.33-.94-1.31-.94h-3Z" transform="translate(-418.18 -138.24)"/></g></svg>