<svg id="Layer_1" data-name="Layer 1" xmlns="http://www.w3.org/2000/svg" viewBox="0 0 264.22 104.08"><defs><style>.cls-1{fill:#d1d3d4;}</style></defs><g id="ReV5uf.tif"><path class="cls-1" d="M458.68,358.59h.81c-.06-.17-.14-.2-.22-.22a75.17,75.17,0,0,1-7.3-1.86c-8-2.87-13.87-8.09-17-16.08a33.16,33.16,0,0,1-1.49-19.84c2.19-9.76,7.76-16.94,16.88-21.2a32.69,32.69,0,0,1,15.2-2.84,47.66,47.66,0,0,1,10.24,1.32c9,2.29,15.39,7.56,18.88,16.22a48.38,48.38,0,0,1,3.08,18.23,2.43,2.43,0,0,1-.09.44H454.2c.22,1.11.34,2.17.63,3.18,1,3.6,3.07,6.37,6.73,7.67a13.48,13.48,0,0,0,7.79.26,9.74,9.74,0,0,0,5.55-3.19,1.19,1.19,0,0,1,1.05-.48h19.77c.22,0,.44,0,.72,0l-.13.38a25.41,25.41,0,0,1-5.17,8.49,29.86,29.86,0,0,1-15.58,8.72c-1,.24-2,.43-3.05.64v.15m-68.34-.05v-.94q0-51.13,0-102.25c0-.28,0-.55,0-.83h22.7c0,.37,0,.74,0,1.11q0,50.93,0,101.86c0,1.28-.09,1.1,1.13,1.1m-54,0v-1q0-51,0-102c0-.34.06-.68.1-1h22.56c0,.18,0,.37,0,.55q0,51.37,0,102.74v.73m-66.31,0c-1.85-.43-3.67-.77-5.43-1.29a29.19,29.19,0,0,1-15.52-10.33c-4.19-5.51-5.81-11.86-5.93-18.66a31.43,31.43,0,0,1,1.24-9.47c2.76-9.37,8.53-16.1,17.59-19.89a33,33,0,0,1,14.06-2.34,48.79,48.79,0,0,1,9.7,1.18,28,28,0,0,1,12.78,6.52,28.93,28.93,0,0,1,8.16,14.42A51.91,51.91,0,0,1,368.44,329c.07,1.22,0,2.44,0,3.75H325c.22,1.12.35,2.16.63,3.15,1,3.63,3.09,6.41,6.78,7.7a13.48,13.48,0,0,0,7.8.22,9.76,9.76,0,0,0,5.5-3.16,1.27,1.27,0,0,1,1.12-.51q9.82,0,19.63,0h.79a3.14,3.14,0,0,1-.08.33,25.77,25.77,0,0,1-5.53,8.91,30,30,0,0,1-15.24,8.37c-1,.24-2,.43-3.06.64v.1m-67.5-31.42a24.17,24.17,0,0,0-1-7.29c-1.92-6.18-6.88-7.86-12-6.42-3.15.89-4.85,3.31-5.76,6.28a28.67,28.67,0,0,0-.35,14.75,10.58,10.58,0,0,0,3.13,5.84A9.11,9.11,0,0,0,274.26,337C275.53,334,275.82,330.84,275.82,327.12ZM454.43,321h20.79c.39,0,.82.1.77-.56a9.82,9.82,0,0,0-3.4-7c-2.56-2.19-5.57-2.59-8.81-2.19C458.38,311.92,455.15,315.71,454.43,321Zm-129.2,0h20.86c.42,0,.73,0,.68-.58a9.62,9.62,0,0,0-6-8.55,11.78,11.78,0,0,0-6.35-.58C329.24,312,325.91,315.63,325.23,321Zm-58,37.59c.18,0,.37,0,.55,0a17.33,17.33,0,0,1-11.61-7.69l-.16.13c0,.2-.06.39-.06.59,0,2.11,0,4.22,0,6.33,0,.55.17.71.71.71H233.49c.2,0,.4,0,.67,0v-.93q0-51.13,0-102.26c0-.28,0-.56,0-.83h22.7c0,.12,0,.23,0,.35q0,24.54,0,49.08a3.63,3.63,0,0,0,.07.51c.12,0,.17-.06.2-.09a2.87,2.87,0,0,0,.22-.27,18.28,18.28,0,0,1,10.18-6.84,24.43,24.43,0,0,1,9.5-.54,22.78,22.78,0,0,1,9.93,3.45,23.38,23.38,0,0,1,9.29,12.55A44.72,44.72,0,0,1,298,333.56a35.56,35.56,0,0,1-4.48,13.25c-3.27,5.6-7.81,9.65-14.22,11.35l-1.05.27,0,.08" transform="translate(-233.49 -254.51)"/></g></svg>