<!-- Generator: Adobe Illustrator 23.0.1, SVG Export Plug-In  -->
<svg version="1.1" xmlns="http://www.w3.org/2000/svg" xmlns:xlink="http://www.w3.org/1999/xlink" x="0px" y="0px"
	 width="313.77px" height="43.972px" viewBox="0 0 313.77 43.972" style="enable-background:new 0 0 313.77 43.972;"
	 xml:space="preserve">
<style type="text/css">
	.st0{fill:#A3C645;}
	.st1{fill:#8BB125;}
	.st2{fill:#EAB467;}
	.st3{fill:#FFD394;}
</style>
<defs>
</defs>
<g>
	<g>
		<path class="st0" d="M12.348,3.089C8.064,3.909,2.982,14.746,0.633,22.566c-2.378,7.57,2.139,16.647,10.266,17.387
			c0.708,0.065,1.385,0.093,2.035,0.092V3.04C12.738,3.036,12.543,3.046,12.348,3.089z"/>
		<path class="st1" d="M22.597,24.667C21.269,13.305,17.055,3.122,12.934,3.04v37.006C20.299,40.031,23.905,35.696,22.597,24.667z"
			/>
	</g>
	<g>
		<path class="st1" d="M54.536,10.194c-2.072-6.333-4.975-10.606-7.77-9.994c-0.068,0.013-0.137,0.036-0.206,0.054v27.518
			L54.536,10.194z"/>
		<path class="st0" d="M46.56,0.254c-2.63,0.693-5.535,5.034-7.915,10.073l7.915,17.444V0.254z"/>
		<path class="st2" d="M56.957,4.857l-2.421,5.337L46.56,27.771v9.37v2.904c8.134,0,14.728-9.222,14.728-20.599
			C61.288,13.746,59.632,8.587,56.957,4.857z"/>
		<path class="st3" d="M38.645,10.327l-2.482-5.47c-2.675,3.73-4.331,8.888-4.331,14.589c0,11.376,6.594,20.599,14.728,20.599
			v-2.904v-9.37L38.645,10.327z"/>
	</g>
</g>
<g>
	<path class="st3" d="M88.535,20.659c0.682-1.691,1.193-3.478,2.076-5.057c3.187-5.697,8.094-9.197,14.381-10.816
		c0.126-0.033,0.258-0.045,0.385-0.076c0.178-0.043,0.354-0.094,0.621-0.166c0-0.493,0.017-1.012-0.004-1.529
		c-0.028-0.662,0.255-1.203,0.865-1.336c1.056-0.23,2.161-0.49,3.218-0.406c1.465,0.117,1.944,0.893,1.828,2.358
		c-0.014,0.181-0.026,0.363-0.037,0.52c1.591,0.37,3.19,0.64,4.726,1.118c3.696,1.149,6.82,3.125,8.596,6.717
		c2.72,5.502,0.082,12.114-5.653,14.35c-1.384,0.539-2.809,0.831-4.295,0.754c-0.945-0.049-1.292-0.351-1.357-1.09
		c-0.067-0.76,0.294-1.31,1.146-1.418c1.704-0.216,2.539-1.346,3.079-2.778c1.913-5.07-0.291-10.276-5.252-12.467
		c-0.356-0.157-0.716-0.303-1.166-0.493c-0.055,0.773-0.121,1.486-0.156,2.201c-0.336,6.988-0.667,23.338-1.001,30.326
		c-0.021,0.445-0.064,0.888-0.088,1.333c-0.064,1.174-0.061,1.205-1.261,1.26c-0.674,0.031-1.359-0.019-2.028-0.114
		c-0.585-0.082-0.849-0.443-0.854-1.096c-0.055-7.26-0.141-23.881-0.215-31.142c-0.011-1.096-0.002-2.192-0.002-3.376
		c-1.54,0.069-2.905,0.367-4.21,0.895c-5.058,2.043-8.072,5.887-9.578,11.016c-0.551,1.877-2.369,2.456-3.765,1.142
		C88.535,21.078,88.535,20.868,88.535,20.659z"/>
	<path class="st3" d="M266.227,17.617c-0.347,1.766-0.693,3.531-1.042,5.296c-0.522,2.641-1.02,5.288-1.592,7.919
		c-0.129,0.592-0.449,1.178-0.808,1.676c-0.56,0.775-1.288,0.709-1.889-0.021c-0.63-0.766-0.624-1.691-0.748-2.592
		c-0.572-4.148-1.15-8.295-1.731-12.441c-0.032-0.227-0.113-0.447-0.203-0.79c-0.314,1.906-0.542,3.698-0.913,5.459
		c-0.677,3.208-1.582,6.347-3.317,9.176c-0.787,1.284-1.696,2.499-3.043,3.219c-0.76,0.406-1.645,0.633-2.501,0.791
		c-0.787,0.145-1.783-0.373-1.928-0.922c-0.214-0.811-0.034-1.598,0.6-2.16c0.564-0.5,1.174-1.014,1.857-1.299
		c2.917-1.217,4.194-3.721,5.214-6.441c0.714-1.905,1.026-3.895,1.082-5.92c0.067-2.437,0.077-4.875,0.121-7.312
		c0.043-2.369-0.745-4.586-1.263-6.849c-0.566-2.468,1.195-4.53,3.774-4.399c0.669,0.034,1.086,0.314,1.278,0.943
		c1.438,4.724,2.875,9.449,4.314,14.173c0.037,0.122,0.097,0.236,0.179,0.431c0.787-2.046,1.488-4.038,2.315-5.975
		c0.872-2.041,1.858-4.034,2.812-6.039c0.213-0.447,0.484-0.869,0.754-1.285c0.916-1.408,2.675-1.319,3.434,0.199
		c0.157,0.314,0.221,0.794,0.099,1.111c-2.133,5.55-2.104,11.285-1.415,17.052c0.43,3.601,1.617,6.975,3.653,10.006
		c0.363,0.54,0.512,1.057,0.198,1.593c-0.601,1.028-1.182,2.09-1.939,2.999c-0.638,0.765-1.097,0.697-1.894,0.091
		c-1.8-1.369-2.753-3.327-3.298-5.401c-0.702-2.671-1.146-5.414-1.61-8.142c-0.232-1.363-0.263-2.761-0.384-4.143
		C266.338,17.618,266.282,17.618,266.227,17.617z"/>
	<path class="st3" d="M303.24,19.339c0.481-0.675,0.926-1.38,1.452-2.018c0.987-1.199,2.038-2.344,3.657-2.684
		c1.967-0.413,3.301,0.772,3.134,2.748c-0.199,2.348-1.061,4.345-2.95,5.848c-0.168,0.134-0.244,0.582-0.158,0.806
		c0.963,2.494,2.109,4.893,3.756,7.028c0.526,0.682,1.018,1.4,1.438,2.15c0.407,0.728,0.191,1.161-0.591,1.462
		c-2.643,1.017-4.928,0.375-6.423-1.999c-1.013-1.609-1.809-3.355-2.7-5.04c-0.215-0.407-0.425-0.817-0.739-1.42
		c-0.341,2.587-0.668,4.942-0.956,7.301c-0.197,1.613-0.173,1.616-1.767,1.669c-2.379,0.079-2.521-0.052-2.514-2.414
		c0.025-8.124,0.049-16.248,0.085-24.372c0.008-1.756,0.092-3.511,0.085-5.266c-0.003-0.8,0.308-1.375,1.052-1.534
		c0.984-0.21,2.015-0.431,3.001-0.348c1.417,0.119,1.914,0.938,1.831,2.339c-0.244,4.133-0.458,8.267-0.683,12.401
		c-0.06,1.094-0.115,2.189-0.173,3.284C303.131,19.299,303.185,19.319,303.24,19.339z M304.003,23.473
		c0.065,0.051,0.13,0.102,0.196,0.153c0.648-0.514,1.343-0.979,1.931-1.554c0.715-0.698,1.087-1.588,1.055-2.614
		c-0.021-0.67-0.277-0.837-0.894-0.557c-0.209,0.095-0.427,0.222-0.574,0.392C304.671,20.496,304.179,21.924,304.003,23.473z"/>
	<path class="st3" d="M199.273,18.473c0.36-0.553,0.706-1.174,1.137-1.729c1.13-1.452,3.443-2.107,5.197-1.514
		c1.498,0.506,2.512,2.097,2.472,4.086c-0.096,4.795-0.233,9.59-0.372,14.385c-0.034,1.171-0.104,1.228-1.266,1.269
		c-0.863,0.03-1.731,0.047-2.592-0.013c-0.954-0.067-1.113-0.299-1.107-1.223c0.025-3.853,0.057-7.707,0.056-11.56
		c0-0.647-0.111-1.301-0.235-1.939c-0.133-0.686-0.656-0.895-1.153-0.485c-0.54,0.445-1.156,1.02-1.325,1.65
		c-0.487,1.809-0.887,3.66-1.094,5.52c-0.249,2.236-0.312,4.497-0.356,6.749c-0.017,0.881-0.327,1.25-1.167,1.234
		c-0.861-0.017-1.723-0.015-2.582-0.069c-0.643-0.041-0.935-0.381-0.931-1.085c0.071-10.196,0.125-20.393,0.161-30.589
		c0.003-0.863,0.34-1.494,1.142-1.642c1.091-0.201,2.231-0.365,3.324-0.264c1.233,0.115,1.439,0.653,1.346,2.037
		c-0.24,3.608-0.464,7.217-0.644,10.828C199.213,15.572,199.273,17.032,199.273,18.473z"/>
	<path class="st3" d="M168.62,33.126c-1.835,1.716-3.87,2.252-6.069,1.211c-2.226-1.054-3.594-2.92-3.845-5.38
		c-0.272-2.668,0.143-5.292,1.322-7.726c1.588-3.278,4.26-4.981,7.888-5.255c0.686-0.052,1.383-0.246,2.028-0.498
		c1.031-0.402,2.051-0.383,3.08-0.106c0.642,0.172,0.974,0.56,0.954,1.314c-0.145,5.423-0.243,10.847-0.377,16.27
		c-0.017,0.682,0.13,1.57-0.713,1.832c-0.93,0.289-1.965,0.512-2.837-0.223C169.554,34.147,169.129,33.644,168.62,33.126z
		 M168.468,24.852c-0.008,0-0.016,0-0.023,0c0-1.99-0.024-3.98,0.014-5.969c0.012-0.63-0.258-0.825-0.812-0.884
		c-1.552-0.166-2.639,0.556-2.961,2.248c-0.583,3.061-0.599,6.145,0.18,9.18c0.265,1.03,0.74,2.037,1.89,2.441
		c1.158,0.407,1.703,0.027,1.709-1.203C168.475,28.727,168.468,26.79,168.468,24.852z"/>
	<path class="st3" d="M237.251,23.713c-0.084,2.059-0.334,4.069-1.099,5.998c-1.327,3.342-3.947,5.149-7.721,5.235
		c-3.468,0.079-5.543-1.92-6.988-4.801c-2.023-4.035-0.602-11.273,3.73-13.894c2.069-1.252,4.319-1.695,6.63-1.153
		c3.159,0.741,4.624,3.114,5.211,6.12C237.173,22.034,237.176,22.881,237.251,23.713z M231.788,25.632
		c-0.036-0.004-0.072-0.008-0.108-0.012c-0.059-0.94-0.07-1.886-0.187-2.819c-0.188-1.503-0.385-3.018-1.288-4.309
		c-0.53-0.758-1.085-0.936-1.973-0.697c-1.086,0.292-1.533,1.159-1.745,2.119c-0.64,2.9-0.506,5.83-0.051,8.733
		c0.153,0.98,0.587,1.937,1.015,2.847c0.362,0.77,1.102,1.087,1.958,1.053c0.845-0.033,1.314-0.571,1.621-1.283
		c0.144-0.334,0.303-0.682,0.34-1.036C231.532,28.699,231.652,27.165,231.788,25.632z"/>
	<path class="st3" d="M293.826,18.439c-0.214,5.21-0.436,10.42-0.628,15.632c-0.02,0.543-0.224,0.782-0.728,0.782
		c-0.99,0.001-1.982,0.009-2.97-0.038c-0.674-0.032-0.985-0.397-0.994-1.127c-0.029-2.28-0.175-4.558-0.181-6.838
		c-0.023-7.81-0.008-15.621-0.002-23.431c0.001-1.312,0.243-1.729,1.525-1.976c0.981-0.189,2.028-0.223,3.021-0.111
		c1.091,0.124,1.464,0.682,1.438,1.786c-0.12,5.108-0.258,10.216-0.389,15.324C293.887,18.441,293.856,18.44,293.826,18.439z"/>
	<path class="st3" d="M149.371,13.413c0.052-0.813,0.062-1.549,0.163-2.272c0.043-0.306,0.208-0.668,0.438-0.862
		c1.134-0.959,3.891-0.944,5.003,0.04c0.243,0.215,0.413,0.656,0.404,0.987c-0.033,1.174-0.159,2.345-0.253,3.574
		c0.648,0.164,1.253,0.306,1.851,0.472c0.691,0.191,0.952,0.656,0.797,1.38c-0.147,0.685-0.614,0.861-1.238,0.76
		c-0.463-0.075-0.922-0.173-1.469-0.277c-0.036,0.411-0.084,0.792-0.1,1.174c-0.228,5.236-0.459,10.472-0.666,15.709
		c-0.019,0.491-0.18,0.757-0.665,0.755c-1.042-0.005-2.086,0.005-3.125-0.067c-0.598-0.042-0.762-0.487-0.772-1.069
		c-0.096-5.66-0.225-11.32-0.315-16.98c-0.01-0.609-0.068-0.97-0.801-1.016c-0.505-0.032-1.02-0.239-1.486-0.462
		c-0.58-0.277-0.864-0.757-0.6-1.425c0.256-0.648,0.696-0.955,1.412-0.767C148.4,13.185,148.856,13.288,149.371,13.413z"/>
	<path class="st3" d="M176.986,26.188c0.112-3.291,0.852-6.303,3.245-8.704c1.954-1.961,4.363-2.725,7.087-2.488
		c2.116,0.184,3.47,2.077,2.994,4.126c-0.069,0.297-0.178,0.638-0.386,0.837c-0.258,0.247-0.637,0.366-0.964,0.54
		c-0.144-0.302-0.381-0.594-0.415-0.909c-0.149-1.362-0.484-1.913-1.426-2.166c-1.19-0.32-2.046-0.003-2.764,1.089
		c-1.107,1.685-1.566,3.61-1.711,5.567c-0.121,1.628-0.115,3.308,0.154,4.911c0.367,2.193,1.871,3.496,3.804,3.711
		c0.954,0.106,1.822-0.101,2.555-0.745c0.314-0.276,0.597-0.588,0.908-0.867c0.375-0.336,0.799-0.415,1.202-0.074
		c0.42,0.356,0.49,0.837,0.148,1.256c-0.36,0.441-0.773,0.863-1.236,1.189c-2.019,1.419-4.214,2.314-6.749,2.034
		c-2.931-0.324-5.187-2.249-5.84-5.122C177.279,29.002,177.181,27.584,176.986,26.188z"/>
	<path class="st3" d="M137.102,28.29c0.079,0.849,0.093,1.428,0.196,1.99c0.093,0.507,0.227,1.022,0.439,1.49
		c0.544,1.199,1.593,1.749,2.557,1.401c1.044-0.376,1.677-1.76,1.31-2.947c-0.121-0.392-0.313-0.777-0.54-1.121
		c-0.865-1.31-1.756-2.602-2.639-3.9c-1.008-1.482-1.226-2.976-0.575-4.741c0.628-1.702,0.884-3.541,1.322-5.4
		c0.21,0,0.536,0,0.954,0c0.133,0.582,0.254,1.214,0.423,1.833c0.495,1.811,1.404,3.419,2.425,4.982
		c0.883,1.353,1.803,2.704,2.491,4.157c0.922,1.948,0.728,4.011-0.096,5.946c-1.114,2.615-4.882,4.007-7.498,2.881
		c-2.308-0.993-3.16-3.761-1.727-5.656C136.365,28.913,136.678,28.689,137.102,28.29z"/>
	<path class="st3" d="M132.918,25.301c-0.109,2.932-0.229,5.864-0.316,8.797c-0.015,0.49-0.174,0.76-0.66,0.755
		c-1.041-0.01-2.083-0.013-3.12-0.084c-0.492-0.034-0.759-0.355-0.766-0.909c-0.072-5.79-0.157-11.579-0.25-17.369
		c-0.01-0.601,0.282-0.923,0.818-1.083c1.294-0.386,2.583-0.347,3.864,0.059c0.622,0.197,0.805,0.635,0.776,1.274
		c-0.131,2.853-0.226,5.707-0.335,8.561C132.924,25.301,132.921,25.301,132.918,25.301z"/>
	<path class="st3" d="M216.914,25.345c-0.108,2.906-0.231,5.812-0.313,8.719c-0.015,0.528-0.188,0.804-0.705,0.799
		c-1.015-0.01-2.032-0.014-3.043-0.084c-0.531-0.037-0.796-0.376-0.803-0.961c-0.07-5.763-0.154-11.527-0.249-17.29
		c-0.011-0.639,0.295-0.974,0.86-1.135c1.241-0.353,2.48-0.324,3.716,0.038c0.641,0.188,0.918,0.578,0.885,1.276
		c-0.134,2.879-0.229,5.759-0.338,8.639C216.92,25.345,216.917,25.345,216.914,25.345z"/>
	<path class="st3" d="M283.454,25.276c-0.109,2.932-0.233,5.864-0.315,8.797c-0.015,0.537-0.207,0.796-0.715,0.791
		c-1.015-0.01-2.032-0.016-3.044-0.089c-0.536-0.038-0.787-0.389-0.794-0.97c-0.069-5.764-0.155-11.527-0.247-17.29
		c-0.009-0.591,0.25-0.933,0.796-1.099c1.293-0.394,2.581-0.356,3.863,0.042c0.617,0.191,0.83,0.61,0.8,1.257
		c-0.131,2.853-0.226,5.707-0.335,8.561C283.461,25.277,283.457,25.277,283.454,25.276z"/>
	<path class="st3" d="M278.573,9.742c-0.01-2.216,1.142-3.393,3.167-3.223c0.808,0.068,1.471,0.423,1.815,1.175
		c0.469,1.025,0.604,2.109,0.268,3.202c-0.39,1.268-1.586,1.912-3.061,1.693C279.315,12.373,278.58,11.418,278.573,9.742z"/>
	<path class="st3" d="M212.035,9.752c-0.016-2.215,1.133-3.396,3.156-3.234c0.808,0.065,1.473,0.417,1.821,1.166
		c0.476,1.023,0.606,2.108,0.276,3.202c-0.384,1.27-1.58,1.918-3.054,1.703C212.784,12.379,212.047,11.428,212.035,9.752z"/>
	<path class="st3" d="M130.876,6.51c1.228-0.017,2.032,0.554,2.354,1.754c0.14,0.523,0.23,1.08,0.221,1.619
		c-0.034,2.21-2.132,3.483-4.09,2.422c-0.508-0.275-0.997-0.916-1.127-1.475c-0.182-0.78-0.143-1.666,0.026-2.46
		C128.535,7.074,129.409,6.531,130.876,6.51z"/>
</g>
</svg>