<!-- Generator: Adobe Illustrator 23.0.1, SVG Export Plug-In  -->
<svg version="1.1" xmlns="http://www.w3.org/2000/svg" xmlns:xlink="http://www.w3.org/1999/xlink" x="0px" y="0px"
	 width="308.732px" height="57.468px" viewBox="0 0 308.732 57.468" style="enable-background:new 0 0 308.732 57.468;"
	 xml:space="preserve">
<style type="text/css">
	.st0{fill:#A63C3C;}
	.st1{fill:#912020;}
	.st2{fill:#EAC39D;}
	.st3{fill:#D5A371;}
</style>
<defs>
</defs>
<g>
	<g>
		<path class="st0" d="M9.658,22.128c0,0-0.358,1.297-2.64,3.331H7.03c-2.778,1.727-5.339,6.407-6.636,14.187
			C-1.346,49.8,2.837,57.652,9.658,57.464l0,0V22.128L9.658,22.128z"/>
		<path class="st1" d="M18.921,39.646c-1.296-7.78-3.857-12.46-6.636-14.187h0.013c-2.282-2.033-2.64-3.33-2.64-3.331v35.336
			C16.478,57.652,20.661,49.8,18.921,39.646z"/>
	</g>
	<g>
		<path class="st2" d="M40.814,52.976c-5.064-1.898-5.791-8.912-1.483-15.848c1.56-2.538,3.121-4.467,4.604-5.846v-4.798
			c-1.443,1.373-2.818,2.231-4.053,2.613l0.015,0.006c-2.818,1.102-3.596,2.183-3.596,2.183s0.114-1.327-1.304-4l0.027,0.01
			c-1.36-2.241-1.732-6.386-0.41-12.268c1.432-6.513,5.261-10.759,9.322-11.05V0.01c-6.184,0.218-11.53,5.902-13.374,14.288
			c-2.016,8.972-0.637,15.594,3.666,18.125l-0.006,0.01c0,0,0.194,0.108,0.234,0.13c0.326,0.195,0.892,0.605,1.01,1.162
			c0.236,1.109-0.194,2.166-0.194,2.166l0.009-0.005c-2.688,4.932-3.436,10.037-2.024,14.184c1.05,3.084,3.252,5.405,6.207,6.547
			c1.323,0.565,2.703,0.852,4.105,0.852c0.123,0,0.244-0.006,0.366-0.01v-3.969C42.9,53.588,41.847,53.429,40.814,52.976z"/>
		<path class="st3" d="M53.928,25.227h0.03c0,0-0.362-0.219-0.445-0.266c-0.417-0.288-0.997-0.801-1.13-1.499
			c-0.212-1.109,0.499-2.416,0.499-2.416l-0.002-0.002c2.453-4.764,3.097-9.649,1.736-13.645c-1.05-3.084-3.252-5.405-6.207-6.547
			C47.085,0.287,45.705,0,44.303,0h-0.001c-0.123,0-0.244,0.006-0.366,0.01v3.967c1.007-0.072,2.028,0.095,3.03,0.535
			c5.161,1.934,5.902,9.083,1.511,16.152c-1.537,2.5-3.075,4.425-4.541,5.819v4.798c1.362-1.265,2.659-2.067,3.829-2.429
			l-0.015-0.006c2.765-1.082,3.529-2.142,3.529-2.142s-0.112,1.302,1.28,3.924l-0.027-0.01c1.334,2.199,1.7,6.266,0.403,12.037
			c-1.388,6.311-5.069,10.454-8.999,10.831v3.969c6.184-0.217,11.531-5.901,13.374-14.288C59.28,34.4,58.005,27.88,53.928,25.227z"
			/>
		<path class="st1" d="M48.477,20.664c4.391-7.069,3.65-14.217-1.511-16.152c-1.003-0.44-2.023-0.607-3.03-0.535v22.506
			C45.402,25.089,46.94,23.164,48.477,20.664z"/>
		<path class="st0" d="M34.613,15.028c-1.322,5.882-0.949,10.027,0.41,12.268l-0.027-0.01c1.419,2.673,1.304,4,1.304,4
			s0.778-1.081,3.596-2.183l-0.015-0.006c1.236-0.382,2.61-1.241,4.053-2.613V3.978C39.874,4.269,36.045,8.515,34.613,15.028z"/>
		<path class="st1" d="M52.935,42.658c1.297-5.771,0.931-9.839-0.403-12.037l0.027,0.01c-1.392-2.623-1.28-3.924-1.28-3.924
			s-0.763,1.06-3.529,2.142l0.015,0.006c-1.17,0.362-2.467,1.163-3.829,2.429v22.207C47.866,53.111,51.547,48.969,52.935,42.658z"/>
		<path class="st0" d="M39.332,37.128c-4.309,6.936-3.582,13.95,1.483,15.848c1.033,0.453,2.086,0.612,3.121,0.513V31.282
			C42.452,32.66,40.892,34.59,39.332,37.128z"/>
	</g>
</g>
<g>
	<g>
		<path class="st2" d="M106.054,10.352c0.088,0.044,0.172,0.1,0.264,0.129c1.706,0.535,2.063,1.058,1.925,2.827
			c-0.014,0.174-0.019,0.348-0.03,0.55c1.394,0.284,2.795,0.507,4.162,0.86c3.861,0.997,7.267,2.752,9.812,5.953
			c4.354,5.477,2.969,13.698-2.96,17.458c-2.216,1.405-4.604,2.157-7.243,1.986c-1.017-0.066-1.357-0.355-1.427-1.095
			c-0.091-0.966,0.277-1.656,1.208-1.752c2.26-0.234,3.199-1.808,3.787-3.651c2.125-6.66-1.462-12.351-7.578-14.371
			c-0.073,1.364-0.152,2.709-0.217,4.054c-0.321,6.625-0.637,13.25-0.957,19.875c-0.076,1.575-0.176,9.388-0.235,10.964
			c-0.018,0.486-0.185,0.772-0.686,0.769c-1.066-0.005-2.136,0.024-3.196-0.065c-0.574-0.048-0.843-0.456-0.848-1.111
			c-0.083-9.412-0.193-25.063-0.295-34.475c-0.003-0.245,0-0.489,0-0.787c-2.146,0.156-4.123,0.634-5.974,1.55
			c-5.107,2.526-8.248,6.68-9.792,12.081c-0.462,1.617-1.025,2.249-2.879,2.112c-0.507-0.037-0.985-0.475-1.476-0.728
			c0-0.25,0-0.501,0-0.751c0.048-0.083,0.114-0.161,0.14-0.25c2.717-9.435,9.077-15.133,18.331-17.843
			c1.525-0.446,1.58-0.391,1.567-1.985c-0.008-0.976,0.416-1.57,1.304-1.85c0.587-0.185,1.194-0.306,1.793-0.455
			C105.053,10.352,105.554,10.352,106.054,10.352z"/>
		<path class="st2" d="M196.664,44.997c-0.451,0.741-0.782,1.285-1.114,1.828c-1.428,2.341-4.277,2.731-6.206,2.209
			c-1.648-0.446-2.912-2.177-2.898-4.145c0.019-2.851,0.196-5.701,0.323-8.55c0.133-3,0.308-5.999,0.414-9
			c0.025-0.704,0.197-1.098,0.954-1.088c1.17,0.015,2.345-0.043,3.51,0.041c0.979,0.07,1.121,0.312,1.109,1.295
			c-0.061,4.781-0.129,9.562-0.174,14.344c-0.004,0.467,0.084,0.948,0.212,1.4c0.205,0.722,0.719,0.985,1.3,0.526
			c0.557-0.439,1.143-1.062,1.324-1.714c0.513-1.844,0.974-3.727,1.182-5.625c0.335-3.057,0.454-6.138,0.659-9.209
			c0.068-1.02,0.131-1.154,1.131-1.168c1.191-0.016,2.385,0.058,3.573,0.146c0.525,0.039,0.723,0.403,0.722,0.949
			c-0.014,6.735-0.006,13.47-0.012,20.205c-0.001,1.059-0.485,1.638-1.818,1.755c-0.993,0.087-2.042-0.054-3.018-0.29
			c-0.906-0.219-1.179-0.799-1.173-1.763C196.667,46.506,196.664,45.869,196.664,44.997z"/>
		<path class="st2" d="M172.477,30.404c0.446-0.744,0.758-1.308,1.112-1.845c1.297-1.968,3.966-2.964,6.199-2.246
			c1.791,0.576,2.735,1.968,2.883,3.75c0.14,1.685,0.035,3.397-0.045,5.093c-0.205,4.348-0.472,8.693-0.669,13.041
			c-0.03,0.654-0.268,0.911-0.867,0.913c-1.171,0.004-2.347,0.053-3.513-0.023c-1.032-0.068-1.209-0.342-1.19-1.397
			c0.078-4.328,0.173-8.656,0.229-12.985c0.011-0.843-0.054-1.701-0.212-2.528c-0.171-0.897-0.835-1.144-1.537-0.562
			c-0.442,0.366-0.892,0.886-1.036,1.419c-0.481,1.775-0.982,3.568-1.187,5.387c-0.369,3.278-0.543,6.579-0.762,9.873
			c-0.036,0.543-0.181,0.875-0.747,0.886c-1.172,0.023-2.351,0.11-3.513,0.008c-0.992-0.087-1.092-0.32-1.092-1.331
			c0-4.755,0.007-9.509-0.001-14.264c-0.003-1.852-0.047-3.703-0.057-5.555c-0.006-1.011,0.274-1.392,1.228-1.714
			c1.26-0.426,2.511-0.348,3.732,0.139c0.71,0.284,1.124,0.777,1.058,1.617C172.434,28.776,172.477,29.477,172.477,30.404z"/>
		<path class="st2" d="M155.943,47.101c-2.5,2.393-5.327,2.297-7.221,1.262c-2.357-1.289-3.917-3.309-4.153-5.976
			c-0.33-3.724,0.259-7.347,2.422-10.528c1.825-2.684,4.417-4.128,7.65-4.393c1.023-0.084,2.012-0.204,2.964-0.665
			c1.161-0.563,2.395-0.41,3.586-0.042c0.628,0.194,0.936,0.631,0.917,1.36c-0.171,6.349-0.311,12.7-0.461,19.05
			c-0.039,1.636-0.372,1.917-1.971,2.073c-1.167,0.114-2.04-0.279-2.78-1.122C156.601,47.783,156.285,47.465,155.943,47.101z
			 M155.785,37.551c-0.008,0-0.016,0-0.024,0c0-2.302-0.009-4.603,0.007-6.905c0.003-0.494-0.115-0.806-0.654-0.902
			c-1.769-0.316-3.012,0.361-3.54,2.084c-0.267,0.874-0.431,1.802-0.484,2.715c-0.156,2.697-0.261,5.404,0.476,8.046
			c0.317,1.138,0.753,2.28,1.858,2.879c1.208,0.654,2.395,0.574,2.368-1.312C155.76,41.954,155.785,39.752,155.785,37.551z"/>
		<path class="st2" d="M125.525,39.553c-0.005-4.776,1.174-8.314,4.227-11.042c2.183-1.951,4.841-2.574,7.681-2.205
			c1.769,0.23,2.895,1.51,3.696,3.014c1.391,2.614,1.716,5.254-0.051,7.861c-0.771,1.137-1.31,1.344-2.603,0.959
			c-1.762-0.525-3.181-1.652-4.631-2.712c-0.412-0.302-0.316-1.131,0.099-1.638c0.416-0.508,0.749-0.218,1.144,0.063
			c0.709,0.506,1.468,1.124,2.388,0.665c0.864-0.431,0.896-1.393,0.836-2.184c-0.066-0.865-0.247-1.81-0.681-2.54
			c-0.869-1.461-2.471-1.474-3.551-0.158c-0.977,1.191-1.443,2.613-1.781,4.084c-0.598,2.606-0.846,5.239-0.377,7.887
			c0.319,1.8,1.076,3.391,2.745,4.357c1.333,0.772,2.697,0.884,4.033,0.003c0.604-0.399,1.173-0.851,1.758-1.279
			c0.49-0.358,1-0.49,1.493-0.032c0.484,0.45,0.466,1.048,0.124,1.5c-0.411,0.544-0.924,1.065-1.501,1.42
			c-2.221,1.369-4.61,2.329-7.265,2.238c-3.965-0.137-6.479-2.28-7.261-6.186C125.728,42.04,125.63,40.41,125.525,39.553z"/>
		<path class="st2" d="M207.426,24.462c0.051-0.904,0.061-1.756,0.164-2.597c0.042-0.342,0.203-0.752,0.451-0.973
			c1.332-1.185,4.539-1.129,5.892,0.029c0.39,0.333,0.483,0.685,0.428,1.181c-0.13,1.167-0.186,2.342-0.294,3.511
			c-0.037,0.401,0.098,0.586,0.497,0.667c0.586,0.118,1.164,0.284,1.74,0.447c0.639,0.181,0.906,0.704,0.779,1.485
			c-0.105,0.647-0.488,0.971-1.14,0.93c-0.322-0.02-0.64-0.101-0.96-0.156c-0.318-0.055-0.637-0.111-1.041-0.182
			c-0.042,0.725-0.088,1.412-0.119,2.098c-0.256,5.75-0.519,11.5-0.749,17.252c-0.024,0.589-0.211,0.922-0.788,0.919
			c-1.195-0.007-2.392-0.035-3.585-0.102c-0.593-0.034-0.815-0.408-0.826-1.02c-0.125-6.631-0.284-13.262-0.397-19.894
			c-0.011-0.634-0.174-0.865-0.803-0.949c-0.609-0.081-1.219-0.284-1.784-0.533c-0.762-0.335-0.989-0.935-0.738-1.652
			c0.264-0.754,0.837-1.069,1.664-0.884C206.345,24.157,206.868,24.314,207.426,24.462z"/>
	</g>
	<path class="st2" d="M251.757,27.174c0.933-2.342,1.733-4.587,2.716-6.754c1.14-2.511,2.441-4.954,3.676-7.425
		c0.09-0.179,0.21-0.344,0.324-0.511c1.048-1.53,3.043-1.414,3.881,0.265c0.181,0.363,0.232,0.915,0.085,1.285
		c-2.407,6.073-2.377,12.343-1.582,18.655c0.503,3.996,1.88,7.725,4.2,11.089c0.357,0.518,0.421,0.98,0.226,1.534
		c-0.466,1.326-1.175,2.502-2.254,3.447c-0.786,0.688-1.258,0.703-2.108,0.102c-1.289-0.911-2.138-2.158-2.809-3.527
		c-1.582-3.226-2.284-6.676-2.692-10.192c-0.211-1.814-0.338-3.638-0.506-5.456c-0.01-0.109-0.043-0.217-0.217-0.33
		c-0.331,1.602-0.665,3.204-0.993,4.807c-0.673,3.283-1.312,6.573-2.041,9.845c-0.146,0.654-0.55,1.297-0.98,1.837
		c-0.586,0.736-1.422,0.635-2.025-0.081c-0.664-0.788-0.729-1.727-0.857-2.671c-0.607-4.461-1.233-8.92-1.865-13.378
		c-0.062-0.435-0.206-0.859-0.307-1.271c-0.461,2.427-0.825,4.863-1.401,7.251c-0.835,3.465-1.936,6.854-4.172,9.765
		c-1.191,1.55-2.575,2.894-4.641,3.284c-0.547,0.103-1.184,0.205-1.674,0.031c-0.553-0.197-1.243-0.62-1.417-1.099
		c-0.31-0.855-0.002-1.783,0.798-2.345c1.104-0.776,2.259-1.495,3.445-2.147c1.141-0.627,1.969-1.489,2.649-2.558
		c2.387-3.756,3.097-7.901,3.121-12.216c0.012-2.229,0.172-4.469-0.014-6.682c-0.162-1.927-0.711-3.824-1.098-5.732
		c-0.144-0.711-0.311-1.417-0.478-2.123c-0.217-0.919,0.05-1.684,0.775-2.297c1.053-0.891,2.202-1.55,3.675-1.53
		c0.828,0.012,1.281,0.385,1.513,1.125c1.632,5.207,3.273,10.41,4.912,15.615C251.653,26.879,251.688,26.973,251.757,27.174z"/>
	<path class="st2" d="M296.833,31.248c0.472-0.651,0.874-1.366,1.432-1.939c0.915-0.94,1.845-1.904,2.926-2.642
		c1.236-0.845,2.652-0.916,4.002-0.078c0.606,0.376,0.956,0.923,0.969,1.618c0.053,2.908-0.914,5.4-3.295,7.269
		c-0.343,0.27-0.442,0.498-0.292,0.88c1.075,2.743,2.405,5.353,4.215,7.721c0.582,0.762,1.171,1.527,1.671,2.34
		c0.538,0.875,0.272,1.591-0.748,1.74c-1.367,0.2-2.791,0.364-4.143,0.193c-0.787-0.1-1.61-0.771-2.194-1.384
		c-1.738-1.825-2.693-4.122-3.776-6.333c-0.258-0.527-0.542-1.042-0.981-1.525c-0.182,1.326-0.367,2.651-0.546,3.977
		c-0.216,1.611-0.406,3.226-0.663,4.831c-0.039,0.241-0.374,0.616-0.584,0.624c-1.151,0.042-2.31,0.04-3.454-0.07
		c-0.255-0.025-0.468-0.539-0.68-0.842c-0.048-0.069-0.009-0.196-0.008-0.296c0.028-8.284,0.043-16.568,0.089-24.852
		c0.017-3.028,0.127-6.056,0.149-9.084c0.006-0.79,0.325-1.305,1.053-1.566c1.511-0.543,3.05-0.805,4.577-0.078
		c0.771,0.367,1.148,0.935,1.088,1.868c-0.361,5.619-0.658,11.241-0.975,16.863c-0.013,0.238-0.002,0.478-0.002,0.717
		C296.72,31.216,296.776,31.232,296.833,31.248z M297.594,36.119c0.782-0.53,1.443-0.914,2.026-1.387
		c0.985-0.799,1.613-1.817,1.648-3.095c0.008-0.301-0.062-0.792-0.241-0.866c-0.268-0.111-0.67,0.051-1.004,0.137
		c-0.137,0.035-0.263,0.159-0.365,0.269C298.401,32.525,297.871,34.158,297.594,36.119z"/>
	<path class="st2" d="M286.067,30.359c-0.237,5.7-0.479,11.401-0.703,17.101c-0.018,0.453-0.089,0.847-0.625,0.843
		c-1.333-0.011-2.667-0.05-3.997-0.132c-0.464-0.029-0.667-0.354-0.67-0.844c-0.07-11.311-0.151-22.622-0.237-33.933
		c-0.006-0.736,0.301-1.253,0.997-1.538c1.426-0.584,2.905-0.703,4.39-0.308c1.12,0.297,1.429,0.761,1.4,1.931
		c-0.14,5.628-0.296,11.256-0.446,16.885C286.139,30.361,286.103,30.36,286.067,30.359z"/>
	<path class="st2" d="M274.321,37.797c-0.115,3.226-0.244,6.452-0.33,9.678c-0.015,0.577-0.258,0.865-0.795,0.873
		c-1.081,0.015-2.165,0-3.245-0.056c-0.786-0.041-1.137-0.449-1.148-1.269c-0.064-4.779-0.183-9.557-0.269-14.336
		c-0.027-1.476,0.012-2.953-0.026-4.429c-0.019-0.768,0.373-1.158,1.077-1.335c1.354-0.341,2.712-0.314,4.056,0.037
		c0.895,0.233,1.126,0.63,1.085,1.537c-0.141,3.1-0.263,6.2-0.392,9.301C274.33,37.798,274.325,37.798,274.321,37.797z"/>
	<path class="st2" d="M271.864,17.221c1.406-0.112,2.431,0.528,2.798,1.832c0.168,0.596,0.268,1.229,0.273,1.846
		c0.013,1.784-1.09,2.907-2.859,2.992c-1.971,0.095-3.03-0.739-3.216-2.635c-0.062-0.634-0.008-1.307,0.146-1.927
		C269.374,17.848,270.086,17.363,271.864,17.221z"/>
</g>
</svg>