<?xml version="1.0" encoding="utf-8"?>
<!-- Generator: Adobe Illustrator 20.0.0, SVG Export Plug-In . SVG Version: 6.00 Build 0)  -->
<svg version="1.1" id="Layer_1" xmlns="http://www.w3.org/2000/svg" xmlns:xlink="http://www.w3.org/1999/xlink" x="0px" y="0px"
	 viewBox="0 0 200 200" style="enable-background:new 0 0 200 200;" xml:space="preserve">
<g>
	<path d="M158.2,49.1c-0.8,5.3-5,8.3-8.5,12.2c4.5,0.9,7.8-2.4,11.7-1.8l-0.1-0.1c-1.8,3.9-4.9,6.7-8.1,9.2c-2.5,2-3.5,4.1-3.5,7.4
		c-0.4,57.1-62.8,92.7-112.1,64.2c-0.4-0.2-0.7-0.7-1.7-1.5c6.9-0.3,13.2-0.1,19.2-2c6.1-2,11.9-4.4,17.6-9
		c-11.4-1.8-19.4-7.1-23.8-18c3.6-0.2,6.6-0.3,9.7-0.5c-5.6-2.9-10.6-6-14.2-11c-1-1.4-1.8-2.9-2.6-4.5c-1.5-3.1-3.5-6.9-1.8-9.7
		c1.1-1.8,4.8,1.3,7.5,1.4c0.7,0,1.4,0,2.8,0c-10.7-9.9-13.6-21-7.5-34.3c2.3,2.2,4.3,4.1,6.3,6c12.5,12.1,27.5,18.8,44.7,20.9
		c2.9,0.4,3.5-0.5,3.3-3.3c-0.8-11.7,3.9-20.7,14.4-26c10.2-5.2,20.2-3.8,29,3.6c2.1,1.8,4,1.3,6.2,0.9c4-0.8,7.4-3.7,11.6-3.9
		L158.2,49.1z"/>
</g>
</svg>
