<?xml version="1.0" encoding="utf-8"?>
<!-- Generator: Adobe Illustrator 19.2.1, SVG Export Plug-In . SVG Version: 6.00 Build 0)  -->
<svg version="1.1" id="Layer_1" xmlns="http://www.w3.org/2000/svg" xmlns:xlink="http://www.w3.org/1999/xlink" x="0px" y="0px"
	 viewBox="0 0 100 100" style="enable-background:new 0 0 100 100;" xml:space="preserve">
<style type="text/css">
	.st0{fill:#FFFFFF;}
</style>
<g>
	<path class="st0" d="M78.9,23.1c-0.4,2.4-2.3,3.8-3.9,5.6c2,0.4,3.6-1.1,5.3-0.8l0,0c-0.8,1.8-2.2,3-3.7,4.2
		c-1.2,0.9-1.6,1.9-1.6,3.4c-0.2,25.9-28.5,42.1-50.9,29.2c-0.2-0.1-0.3-0.3-0.8-0.7c3.1-0.1,6,0,8.7-0.9c2.8-0.9,5.4-2,8-4.1
		c-5.2-0.8-8.8-3.2-10.8-8.2c1.6-0.1,3-0.1,4.4-0.2c-2.5-1.3-4.8-2.7-6.4-5c-0.5-0.6-0.8-1.3-1.2-2c-0.7-1.4-1.6-3.1-0.8-4.4
		c0.5-0.8,2.2,0.6,3.4,0.6c0.3,0,0.6,0,1.3,0c-4.9-4.5-6.2-9.5-3.4-15.6c1.1,1,2,1.9,2.8,2.7c5.7,5.5,12.5,8.6,20.3,9.5
		c1.3,0.2,1.6-0.2,1.5-1.5c-0.4-5.3,1.8-9.4,6.5-11.8c4.6-2.4,9.2-1.7,13.2,1.6c1,0.8,1.8,0.6,2.8,0.4C75.5,24.6,77,23.3,78.9,23.1
		L78.9,23.1z"/>
</g>
</svg>
